<svg width="23" height="30" viewBox="0 0 23 30" fill="none" xmlns="http://www.w3.org/2000/svg">
<path fill-rule="evenodd" clip-rule="evenodd" d="M1.64874 0.235064C1.30685 0.382724 0.811134 0.800178 0.547155 1.16305L0.0672645 1.8228L0.0129865 14.7808C-0.0264702 24.1717 0.0217994 27.888 0.187838 28.2811C0.313819 28.5796 0.72461 29.0883 1.10035 29.4119L1.78373 30H5.18162H8.5795V27.4279C8.5795 24.5362 8.78941 23.8205 9.85594 23.0745C10.7404 22.4562 12.2486 22.4711 13.1587 23.1077C14.1906 23.8291 14.3879 24.5244 14.3879 27.4411V30H17.7118C21.4656 30 21.8504 29.8906 22.5808 28.6165C22.9946 27.8945 23.0002 27.7138 22.9998 15.0502C22.9996 0.876954 23.0455 1.40574 21.734 0.462248C21.1832 0.0660004 20.9247 0.0544155 11.7196 0.0112171C4.09265 -0.0245199 2.15046 0.0186789 1.64874 0.235064ZM7.33772 5.88739C7.47952 6.02641 7.57806 6.69461 7.57806 7.51715C7.57806 8.33969 7.47952 9.00789 7.33772 9.14691C7.19832 9.28358 6.53076 9.38254 5.74964 9.38254C3.99631 9.38254 3.77259 9.17146 3.77259 7.51715C3.77259 5.86284 3.99631 5.65176 5.74964 5.65176C6.53076 5.65176 7.19832 5.75073 7.33772 5.88739ZM13.1461 5.88739C13.2889 6.02739 13.3864 6.70188 13.3864 7.54955C13.3864 9.23547 13.2338 9.38254 11.4837 9.38254C9.73356 9.38254 9.58094 9.23547 9.58094 7.54955C9.58094 6.70188 9.67848 6.02739 9.82129 5.88739C9.96309 5.74837 10.6447 5.65176 11.4837 5.65176C12.3227 5.65176 13.0043 5.74837 13.1461 5.88739ZM18.9544 5.88739C19.0918 6.02209 19.1948 6.66712 19.1948 7.39364C19.1948 9.09115 18.9242 9.38254 17.3479 9.38254C15.5375 9.38254 15.3893 9.24391 15.3893 7.54955C15.3893 6.70188 15.4868 6.02739 15.6296 5.88739C15.7714 5.74837 16.453 5.65176 17.292 5.65176C18.131 5.65176 18.8126 5.74837 18.9544 5.88739ZM7.19071 13.3165C7.51918 13.4889 7.57806 13.7369 7.57806 14.9463C7.57806 15.794 7.48052 16.4685 7.33772 16.6085C7.19491 16.7485 6.50692 16.8441 5.64228 16.8441C3.9192 16.8441 3.77259 16.696 3.77259 14.9579C3.77259 13.4192 4.07903 13.1133 5.61945 13.1133C6.27058 13.1133 6.9776 13.2048 7.19071 13.3165ZM12.9991 13.3165C13.3275 13.4889 13.3864 13.7369 13.3864 14.9463C13.3864 15.794 13.2889 16.4685 13.1461 16.6085C12.827 16.9213 10.1403 16.9213 9.82129 16.6085C9.68389 16.4738 9.58094 15.8287 9.58094 15.1022C9.58094 13.4047 9.85153 13.1133 11.4278 13.1133C12.0789 13.1133 12.786 13.2048 12.9991 13.3165ZM18.8284 13.4383C19.1133 13.691 19.1948 14.0533 19.1948 15.0681C19.1948 15.8211 19.0932 16.4724 18.9544 16.6085C18.8126 16.7475 18.131 16.8441 17.292 16.8441C16.453 16.8441 15.7714 16.7475 15.6296 16.6085C15.4868 16.4685 15.3893 15.7946 15.3893 14.9493C15.3893 13.2563 15.5213 13.128 17.2762 13.1192C18.1054 13.1151 18.5725 13.2111 18.8284 13.4383Z" fill="#FF7433"/>
</svg>
