<svg width="30" height="30" viewBox="0 0 30 30" fill="none" xmlns="http://www.w3.org/2000/svg">
<path fill-rule="evenodd" clip-rule="evenodd" d="M12.5969 0.145645C6.59604 1.33419 2.04794 5.41455 0.471524 11.0243C-0.156289 13.258 -0.157272 16.6769 0.469164 18.8919C1.66421 23.118 4.55821 26.6173 8.42422 28.5109C13.8934 31.1897 20.7236 30.1857 25.1559 26.0513C28.4474 22.9809 29.9921 19.4392 30 14.9451C30.0114 8.23249 25.7375 2.58679 19.0874 0.530892C17.4951 0.0385775 14.1424 -0.16043 12.5969 0.145645ZM16.0311 6.06128C16.4066 6.46361 16.4322 6.73806 16.4322 10.3556V14.2202L18.9063 15.8571C22.2048 18.0395 22.5899 18.5573 21.7283 19.6512C21.0312 20.5364 20.4974 20.3622 17.1404 18.1552C14.9126 16.6904 13.9964 15.9728 13.7799 15.5225C13.5451 15.0347 13.4819 14.0902 13.4819 11.0659C13.4819 7.20503 13.6043 6.34142 14.2167 5.8768C14.7193 5.49568 15.5858 5.58389 16.0311 6.06128Z" fill="#FF7433"/>
</svg>
