<svg width="45" height="40" viewBox="0 0 45 40" fill="none" xmlns="http://www.w3.org/2000/svg">
<path fill-rule="evenodd" clip-rule="evenodd" d="M11.5436 0.0946115C11.1994 0.164777 10.6539 0.512375 10.3315 0.867017C9.07668 2.24742 0.420299 14.179 0.140605 14.9136C-0.0860938 15.5095 -0.0457574 15.858 0.313428 16.4046C1.11335 17.6221 21.1226 39.4954 21.7356 39.8228C22.0542 39.9928 22.6386 40.0506 23.0349 39.9517C23.488 39.8381 27.1717 36.0116 32.9772 29.623C45.5308 15.8093 44.9967 16.4378 44.9967 15.4807C44.9967 14.8795 43.7198 12.926 40.2587 8.23172C37.6525 4.69733 35.1329 1.40926 34.6595 0.924851L33.7984 0.0441169L22.9839 0.00565912C17.0359 -0.0154785 11.8877 0.0244463 11.5436 0.0946115ZM18.5071 8.5661C20.6616 10.9121 22.5123 12.7945 22.62 12.7496C22.7275 12.7047 24.5702 10.7856 26.7148 8.48449C28.8593 6.18342 30.8071 4.301 31.0429 4.301C32.0163 4.301 31.6544 5.30592 29.2485 9.28684C27.8565 11.59 26.7595 13.5164 26.8107 13.5675C26.862 13.6186 29.7493 13.8857 33.2269 14.1614C39.7756 14.6805 40.9294 14.9711 39.9811 15.8621C39.6749 16.1501 37.1144 16.4613 31.1283 16.9381L22.7066 17.6092L14.4939 16.9592C4.86007 16.1968 4.95634 16.2118 4.95634 15.457C4.95634 15.0982 5.2063 14.8264 5.61878 14.7365C6.3448 14.578 16.6567 13.6955 17.7819 13.6955C18.4326 13.6955 18.3083 13.4101 15.9878 9.57014C14.6164 7.30107 13.4944 5.18731 13.4944 4.87289C13.4944 3.53535 14.7074 4.429 18.5071 8.5661Z" fill="#FF7433"/>
</svg>
