<svg width="40" height="40" viewBox="0 0 40 40" fill="none" xmlns="http://www.w3.org/2000/svg">
<path fill-rule="evenodd" clip-rule="evenodd" d="M2.75625 0.164028C1.82054 0.402095 1.02157 1.0883 0.50783 2.09577C0.0207602 3.05144 0.000105753 3.77506 0.000105753 19.9845C0.000105753 38.4734 -0.0419863 37.9494 1.55334 39.2928L2.3931 39.9999H19.7676C38.921 39.9999 38.4619 40.0376 39.4713 38.3806C39.9506 37.5941 39.9992 37.0678 40 32.6481C40.001 28.0233 39.9715 27.7374 39.4075 26.8926C38.5048 25.5404 37.3612 25.0888 34.8375 25.0886L32.6806 25.0881V28.4485C32.6806 31.3717 32.6184 31.8651 32.2024 32.2418C31.581 32.8046 31.0358 32.7899 30.4988 32.1963C30.1441 31.8042 30.0662 31.1206 30.0662 28.4029V25.0881H27.5824H25.0987V28.4485C25.0987 31.5138 25.0511 31.8518 24.5581 32.2986C24.0639 32.746 23.9567 32.7543 23.3162 32.3949C22.6174 32.003 22.6147 31.9904 22.5421 28.5447L22.4691 25.0881H19.993H17.5168V28.4704C17.5168 31.1962 17.4371 31.9323 17.1061 32.2638C16.5553 32.8148 16.0549 32.7815 15.4253 32.1516C14.9581 31.6841 14.9024 31.2796 14.9024 28.3582V25.0881H11.5559C8.02016 25.0881 7.58198 24.9546 7.58198 23.8771C7.58198 22.6689 8.15271 22.4719 11.6529 22.4719H14.9024V19.9866V17.5013H11.5559C8.01754 17.5013 7.58198 17.3681 7.58198 16.2866C7.58198 15.1769 8.46487 14.8852 11.8234 14.8852H14.9024V12.5307V10.1762L11.9612 10.1723C8.7475 10.1681 7.7663 9.88291 7.62721 8.91259C7.45596 7.71676 7.9114 7.56006 11.5593 7.56006H14.95L14.8608 4.83354C14.7798 2.3532 14.7126 2.04319 14.1181 1.39884C12.9552 0.138913 12.1601 -0.0293031 7.52498 0.00366C5.18375 0.0204032 3.03782 0.0926078 2.75625 0.164028Z" fill="#FF7433"/>
</svg>
