<svg width="40" height="40" viewBox="0 0 40 40" fill="none" xmlns="http://www.w3.org/2000/svg">
<path fill-rule="evenodd" clip-rule="evenodd" d="M10.9887 2.86308C6.64427 4.43332 2.68966 5.95277 2.20068 6.23995C1.7117 6.52713 1.01653 7.29136 0.655823 7.93844L0 9.11492V19.8247C0 25.715 0.088405 30.8525 0.196747 31.2412C0.460125 32.1882 1.58316 33.4982 2.5745 34.0149C3.01836 34.2463 6.81112 35.6854 11.0034 37.2128C16.7607 39.3108 18.9462 39.9925 19.937 39.9999C20.9575 40.0076 22.9953 39.3785 29.1185 37.1652C33.447 35.6007 37.4404 34.026 37.9929 33.6661C38.5989 33.271 39.1946 32.5729 39.4955 31.9052C39.9585 30.8771 39.9942 30.037 39.9994 20.0124C40.0049 9.7583 39.9795 9.17521 39.4829 8.19415C39.1957 7.62667 38.5726 6.86403 38.0986 6.49937C36.8751 5.55876 21.3303 -0.0105625 19.958 1.50471e-05C19.2762 0.0053038 16.0202 1.04481 10.9887 2.86308ZM26.9247 7.39343C30.5572 8.70081 33.5629 9.80457 33.6041 9.84636C33.6453 9.88787 30.5999 11.0297 26.8368 12.3836L19.9945 14.8453L13.2046 12.4051C9.47008 11.0628 6.47088 9.90823 6.53908 9.83922C6.7618 9.61471 19.399 5.06347 19.8662 5.03941C20.1159 5.02671 23.2922 6.08579 26.9247 7.39343ZM35.021 22.2733V29.7466L28.9218 31.9309C25.5674 33.1325 22.7321 34.1128 22.6217 34.1098C22.5113 34.1067 22.4522 30.7541 22.4905 26.6596L22.5603 19.2151L28.5939 17.0227C31.9123 15.8168 34.7161 14.8233 34.8242 14.8151C34.9323 14.8069 35.021 18.1632 35.021 22.2733Z" fill="#FF7433"/>
</svg>
