<svg width="22" height="30" viewBox="0 0 22 30" fill="none" xmlns="http://www.w3.org/2000/svg">
<path fill-rule="evenodd" clip-rule="evenodd" d="M8.68235 0.231162C4.36655 1.23612 1.14289 4.60394 0.205783 9.08676C-0.337496 11.6866 0.163414 14.0186 2.08578 17.8374C3.85852 21.3587 9.19309 29.1758 10.2242 29.7627C10.7363 30.0542 11.4172 30.0797 11.8839 29.825C12.8599 29.2919 18.2449 21.3043 19.9645 17.8388C21.6292 14.4842 22.007 13.2056 21.9999 10.9536C21.988 7.16881 20.1603 3.88156 16.8562 1.70264C14.6286 0.233324 11.2695 -0.371342 8.68235 0.231162ZM13.003 8.12739C14.6725 9.11644 15.2258 11.6265 14.1425 13.2968C13.5459 14.2169 12.0393 15.0751 11.0149 15.0784C10.115 15.0814 8.39887 14.107 7.97634 13.353C7.08218 11.7579 7.18887 10.1373 8.27061 8.88023C9.5875 7.3498 11.2454 7.08608 13.003 8.12739Z" fill="#FF7433"/>
</svg>
