<svg width="24" height="20" viewBox="0 0 24 20" fill="none" xmlns="http://www.w3.org/2000/svg">
<path fill-rule="evenodd" clip-rule="evenodd" d="M9.14352 0.0509441C5.64208 0.409561 2.54984 2.53232 1.01922 5.62822C-0.339739 8.37671 -0.339739 11.6265 1.01922 14.375C3.06574 18.5143 7.76778 20.7505 12.3664 19.7716C15.7063 19.0606 18.4432 16.7917 19.6939 13.6972C20.2023 12.4393 20.3755 11.3817 20.1456 10.9401C19.8313 10.3365 19.0528 10.1178 18.4324 10.4587C18.0902 10.6468 17.9183 10.9396 17.7811 11.5685C17.1379 14.5175 14.8355 16.7667 11.7723 17.4384C10.9999 17.6078 9.48787 17.6219 8.74443 17.4667C5.5684 16.8034 3.26222 14.5439 2.58533 11.4321C2.44253 10.7755 2.44253 9.2277 2.58533 8.5711C3.25807 5.4784 5.5465 3.21941 8.68827 2.54674C8.91991 2.49717 9.48848 2.44347 9.95176 2.4274C11.3472 2.37909 12.3486 2.59714 13.662 3.23536C14.3438 3.56669 14.4934 3.61934 14.7533 3.61934C15.8232 3.61934 16.3796 2.40501 15.6648 1.62984C15.422 1.36646 14.1786 0.749197 13.3631 0.487139C12.0544 0.0666247 10.5295 -0.0910062 9.14352 0.0509441ZM22.4744 0.0391701C22.3817 0.0610678 22.2427 0.110806 22.1655 0.149704C22.0883 0.188603 19.6624 2.5299 16.7746 5.35257L11.5241 10.4847L9.75522 8.64697C8.54019 7.3846 7.91485 6.77493 7.75801 6.69978C7.30843 6.48438 6.66225 6.59012 6.32515 6.93432C6.00389 7.2623 5.90354 7.85166 6.09795 8.26849C6.20728 8.50299 10.5129 12.9998 10.8655 13.2478C11.0357 13.3675 11.1202 13.3853 11.5172 13.3853C11.939 13.3853 11.9924 13.3722 12.226 13.2108C12.365 13.1148 15.0354 10.5275 18.1602 7.46125L23.8416 1.88623L23.9369 1.56046C24.0777 1.07898 23.9857 0.720807 23.6321 0.374349C23.2918 0.0409859 22.9209 -0.0664123 22.4744 0.0391701Z" fill="#FECE51"/>
</svg>
