<svg width="158" height="157" viewBox="0 0 158 157" fill="none" xmlns="http://www.w3.org/2000/svg">
<path d="M27.6702 120.329L20.8001 125.624L21.3883 126.796L20.2378 127.682L17.1871 123.725L18.3376 122.838L19.3203 123.705L26.1905 118.409L25.6022 117.238L26.7593 116.346L29.81 120.304L28.653 121.196L27.6702 120.329ZM25.676 130.983L26.1907 131.853L25.1612 132.878L21.9401 129.643L22.9695 128.618L23.9659 129.266L27.913 125.336L27.1816 124.248L28.2169 123.217L30.7177 125.729L29.8821 126.713C30.4184 126.601 30.931 126.61 31.4199 126.74C31.9126 126.874 32.3581 127.142 32.7564 127.542C33.385 128.173 33.675 128.868 33.6264 129.627C33.5778 130.386 33.1221 131.195 32.2593 132.054L29.4887 134.813L30.1322 135.812L29.1028 136.837L25.8348 133.554L26.8642 132.529L27.7727 133.089L30.5374 130.336C30.9649 129.911 31.1829 129.526 31.1915 129.182C31.204 128.833 31.0443 128.493 30.7124 128.159C30.2322 127.677 29.6671 127.509 29.0172 127.657L25.676 130.983ZM33.6755 140.792C33.0146 140.281 32.6453 139.705 32.5674 139.064C32.494 138.426 32.762 137.714 33.3715 136.926L36.1754 133.302L35.1972 132.545L36.2384 131.199L37.2167 131.956L38.5627 130.216L40.4732 131.694L39.1271 133.434L40.4336 134.445L39.3923 135.791L38.0859 134.78L35.2871 138.397C35.0737 138.673 34.9783 138.914 35.0006 139.12C35.0274 139.33 35.1414 139.513 35.3427 139.668C35.4478 139.75 35.5667 139.831 35.6994 139.913C35.8355 139.99 35.9541 140.054 36.0551 140.104L35.1475 141.616C34.9065 141.521 34.6565 141.401 34.3975 141.256C34.1394 141.12 33.8987 140.965 33.6755 140.792ZM40.846 145.467C40.1079 145.03 39.56 144.484 39.2022 143.828C38.8416 143.178 38.6781 142.476 38.7117 141.724C38.75 140.975 38.9863 140.234 39.4205 139.501L39.5897 139.215C40.0437 138.448 40.5883 137.855 41.2236 137.433C41.8618 137.007 42.5443 136.778 43.2711 136.745C43.9732 136.711 44.6766 136.902 45.3813 137.319L45.4099 137.336C46.1098 137.751 46.6161 138.237 46.9288 138.795C47.5674 139.932 47.4455 141.246 46.563 142.737L45.8905 143.872L41.3479 141.182L41.3082 141.217C41.1394 141.567 41.0475 141.918 41.0324 142.269C41.0154 142.613 41.0904 142.937 41.2573 143.241C41.4242 143.546 41.691 143.807 42.0576 144.024C42.4386 144.25 42.8215 144.412 43.2064 144.511C43.599 144.609 44.0088 144.655 44.4358 144.651L44.2388 146.271C43.7675 146.339 43.2382 146.315 42.651 146.199C42.0714 146.081 41.4697 145.837 40.846 145.467ZM42.1781 139.764L42.1784 139.812L44.7569 141.339L44.8668 141.153C45.0501 140.844 45.1703 140.548 45.2276 140.267C45.3258 139.689 45.0939 139.233 44.532 138.9C44.2606 138.74 43.985 138.673 43.7052 138.7C43.4273 138.735 43.1589 138.846 42.9 139.034C42.6458 139.224 42.4052 139.467 42.1781 139.764ZM50.5984 148.34L51.5659 149.03L50.9886 150.363L46.6316 148.476L47.2089 147.143L48.3742 147.376L50.5877 142.265L49.506 141.525L50.0866 140.185L53.3391 141.593L52.9809 142.65L52.9169 142.84C53.7197 142.114 54.5248 141.926 55.3322 142.276C55.4643 142.333 55.6035 142.408 55.7499 142.502C55.8985 142.59 56.0261 142.679 56.1326 142.767L55.0091 144.714L53.931 144.174L53.8243 144.128C53.5654 144.016 53.3239 143.975 53.1 144.005C52.8492 144.041 52.5981 144.14 52.3468 144.303L50.5984 148.34ZM58.7902 141.706L59.4156 139.736L61.805 140.495L61.1795 142.465L58.7902 141.706ZM60.6043 144.277L58.4015 151.215L59.4338 151.804L58.9942 153.189L54.4609 151.75L54.9004 150.365L56.0913 150.482L57.7767 145.173L56.6179 144.544L57.0599 143.151L60.6043 144.277ZM65.5397 154.749C64.6696 154.584 63.9579 154.253 63.4045 153.754C62.8511 153.255 62.4723 152.637 62.268 151.9C62.0648 151.158 62.0464 150.346 62.2128 149.466L62.2452 149.294C62.4127 148.408 62.7254 147.662 63.1835 147.056C63.6437 146.439 64.2196 145.998 64.9114 145.735C65.6087 145.472 66.3896 145.423 67.2542 145.586C68.1351 145.753 68.8468 146.084 69.3893 146.581C69.9373 147.079 70.3129 147.699 70.5162 148.441C70.7204 149.178 70.7394 149.987 70.5729 150.868L70.5405 151.039C70.373 151.926 70.0603 152.672 69.6022 153.278C69.1431 153.89 68.5671 154.33 67.8743 154.599C67.1824 154.862 66.4042 154.912 65.5397 154.749ZM65.8849 152.922C66.2927 152.999 66.6509 152.951 66.9595 152.779C67.2626 152.605 67.5142 152.331 67.7143 151.958C67.9154 151.579 68.0663 151.124 68.167 150.591L68.1994 150.419C68.297 149.903 68.3218 149.429 68.2738 148.997C68.2248 148.571 68.0881 148.222 67.8638 147.948C67.6449 147.676 67.3261 147.5 66.9074 147.421C66.505 147.345 66.1468 147.393 65.8328 147.565C65.5232 147.743 65.2679 148.021 65.0668 148.4C64.8721 148.774 64.7255 149.222 64.6269 149.744L64.5945 149.916C64.4948 150.443 64.469 150.923 64.517 151.354C64.566 151.78 64.7 152.129 64.9188 152.401C65.1442 152.669 65.4662 152.843 65.8849 152.922ZM76.3849 154.231L77.5311 154.545L77.4493 155.995L72.7088 155.728L72.7906 154.278L73.9649 154.094L74.2784 148.533L73.0079 148.212L73.0901 146.754L76.6289 146.953L76.6575 148.069L76.6628 148.269C77.1658 147.311 77.8566 146.856 78.735 146.906C78.8787 146.914 79.0354 146.936 79.2051 146.974C79.3751 147.006 79.5254 147.044 79.6558 147.091L79.2732 149.306L78.0752 149.171L77.9592 149.165C77.6774 149.149 77.4365 149.194 77.2366 149.299C77.0137 149.419 76.8123 149.599 76.6325 149.838L76.3849 154.231ZM94.1261 154.545L88.8819 155.538L88.6116 154.111L89.8411 153.599L88.2381 145.134L86.9051 145.099L86.6333 143.663L91.8449 142.676C92.9106 142.475 93.8926 142.545 94.791 142.887C95.6949 143.229 96.4558 143.797 97.0739 144.592C97.6974 145.387 98.1168 146.352 98.332 147.489L98.3737 147.709C98.5878 148.84 98.5543 149.882 98.2732 150.837C97.9941 151.802 97.4969 152.611 96.7815 153.265C96.0715 153.918 95.1864 154.344 94.1261 154.545ZM92.1011 144.52L90.6412 144.797L92.1995 153.026L93.6594 152.75C94.3227 152.624 94.8471 152.344 95.2325 151.911C95.6243 151.482 95.8828 150.943 96.0077 150.294C96.1381 149.644 96.1302 148.933 95.984 148.161L95.9408 147.933C95.7935 147.155 95.5426 146.485 95.1881 145.921C94.8302 145.369 94.3909 144.968 93.8704 144.718C93.3488 144.461 92.759 144.396 92.1011 144.52ZM106.696 151.382C105.89 151.676 105.12 151.754 104.386 151.615C103.654 151.481 103.008 151.163 102.448 150.661C101.893 150.157 101.469 149.504 101.177 148.703L101.063 148.392C100.758 147.555 100.644 146.757 100.72 145.998C100.795 145.235 101.05 144.562 101.486 143.979C101.904 143.414 102.498 142.991 103.267 142.71L103.298 142.699C104.062 142.42 104.759 142.336 105.389 142.448C106.674 142.675 107.613 143.602 108.206 145.229L108.659 146.469L103.699 148.278L103.701 148.331C103.865 148.683 104.078 148.977 104.34 149.211C104.595 149.442 104.893 149.589 105.235 149.653C105.576 149.717 105.947 149.676 106.347 149.53C106.763 149.378 107.131 149.185 107.452 148.95C107.776 148.708 108.072 148.421 108.339 148.087L109.467 149.266C109.221 149.674 108.868 150.068 108.406 150.449C107.947 150.822 107.377 151.133 106.696 151.382ZM103.128 146.737L103.166 146.767L105.981 145.74L105.907 145.538C105.784 145.2 105.631 144.92 105.45 144.697C105.065 144.254 104.565 144.145 103.952 144.369C103.655 144.477 103.429 144.648 103.273 144.882C103.124 145.119 103.04 145.397 103.021 145.716C103.007 146.033 103.043 146.373 103.128 146.737ZM116.133 147.177C115.542 147.49 114.959 147.727 114.386 147.886C113.818 148.044 113.244 148.141 112.663 148.18L111.451 145.947L112.94 145.158L113.833 146.151C114.043 146.146 114.259 146.116 114.48 146.061C114.707 146.004 114.947 145.908 115.201 145.773C115.68 145.519 115.976 145.262 116.089 145.002C116.202 144.742 116.196 144.494 116.071 144.259C115.952 144.035 115.746 143.893 115.452 143.836C115.147 143.779 114.653 143.852 113.972 144.057C112.93 144.359 112.077 144.422 111.415 144.247C110.752 144.073 110.251 143.665 109.911 143.024C109.676 142.579 109.576 142.119 109.611 141.643C109.64 141.164 109.823 140.694 110.161 140.233C110.504 139.77 111.032 139.349 111.746 138.97C112.343 138.654 112.919 138.424 113.475 138.28C114.033 138.128 114.53 138.055 114.966 138.062L116.139 140.222L114.657 141.007L113.878 140.086C113.515 140.028 113.106 140.119 112.652 140.36C112.275 140.56 112.027 140.788 111.907 141.046C111.787 141.304 111.79 141.553 111.917 141.792C111.99 141.929 112.094 142.037 112.229 142.115C112.377 142.206 112.599 142.239 112.893 142.215C113.191 142.188 113.525 142.127 113.895 142.031C114.997 141.735 115.872 141.656 116.522 141.794C117.168 141.927 117.671 142.331 118.028 143.006C118.42 143.745 118.467 144.484 118.17 145.223C117.878 145.961 117.199 146.612 116.133 147.177ZM116.205 134.426L115.043 132.717L117.116 131.307L118.278 133.017L116.205 134.426ZM119.347 134.589L123.44 140.609L124.541 140.161L125.357 141.363L121.424 144.037L120.607 142.836L121.435 141.972L118.304 137.366L117.093 137.888L116.271 136.68L119.347 134.589ZM128.296 127.019L129.261 128.116L128.617 128.98L133.26 134.26C133.782 134.854 134.111 135.479 134.245 136.135C134.375 136.794 134.312 137.451 134.054 138.105C133.796 138.759 133.341 139.372 132.689 139.946C132.348 140.246 131.927 140.538 131.427 140.824C130.926 141.109 130.443 141.314 129.976 141.437L129.172 139.844C129.573 139.713 129.966 139.54 130.353 139.326C130.747 139.112 131.085 138.881 131.368 138.632C131.854 138.205 132.09 137.757 132.077 137.29C132.068 136.818 131.852 136.342 131.428 135.86L131.039 135.417C131.062 135.846 130.997 136.246 130.844 136.616C130.691 136.987 130.44 137.326 130.091 137.633C129.538 138.119 128.944 138.394 128.308 138.459C127.672 138.532 127.031 138.411 126.385 138.095C125.739 137.779 125.125 137.29 124.544 136.63L124.429 136.499C123.808 135.792 123.365 135.08 123.102 134.361C122.842 133.646 122.775 132.971 122.902 132.336C123.025 131.697 123.357 131.14 123.898 130.665C124.301 130.311 124.723 130.091 125.163 130.005C125.6 129.916 126.058 129.937 126.535 130.07L125.921 129.107L128.296 127.019ZM129.953 134.183L127.377 131.253C126.755 131.041 126.195 131.154 125.697 131.592C125.381 131.87 125.206 132.182 125.172 132.529C125.134 132.88 125.21 133.255 125.399 133.655C125.589 134.056 125.873 134.47 126.249 134.898L126.364 135.029C126.883 135.619 127.394 135.995 127.897 136.157C128.397 136.314 128.884 136.185 129.357 135.768C129.873 135.315 130.071 134.787 129.953 134.183ZM137.108 127.931L137.923 127.334L139.045 128.257L136.141 131.781L135.02 130.857L135.567 129.802L131.268 126.26L130.258 127.094L129.131 126.165L131.385 123.43L132.446 124.165C132.282 123.642 132.24 123.131 132.322 122.632C132.407 122.128 132.629 121.659 132.988 121.223C133.554 120.536 134.218 120.179 134.978 120.152C135.738 120.126 136.588 120.5 137.527 121.274L140.545 123.761L141.476 123.022L142.597 123.946L139.652 127.521L138.53 126.597L138.998 125.638L135.987 123.157C135.522 122.773 135.117 122.594 134.774 122.619C134.426 122.641 134.102 122.834 133.803 123.197C133.37 123.722 133.259 124.301 133.47 124.933L137.108 127.931ZM142.516 102.239L150.594 105.399L151.295 104.292L152.648 104.821L150.827 109.475L149.474 108.946L149.711 107.657L141.633 104.496L140.932 105.604L139.572 105.072L141.392 100.418L142.753 100.95L142.516 102.239ZM152.668 98.4082L153.145 97.5168L154.555 97.8644L153.462 102.297L152.052 101.95L152.088 100.762L146.68 99.4286L146.131 100.618L144.712 100.269L145.56 96.8271L146.835 97.0303C146.461 96.6302 146.203 96.1875 146.06 95.7021C145.919 95.2113 145.916 94.6919 146.051 94.1438C146.264 93.2788 146.708 92.67 147.382 92.3175C148.056 91.9649 148.984 91.9344 150.166 92.2257L153.962 93.1614L154.482 92.0927L155.892 92.4404L154.783 96.9376L153.373 96.5899L153.38 95.5229L149.592 94.5892C149.006 94.4448 148.564 94.4583 148.265 94.6298C147.961 94.7999 147.753 95.1133 147.64 95.57C147.477 96.2309 147.627 96.8008 148.091 97.2798L152.668 98.4082ZM156.881 86.3914C156.793 87.2223 156.496 87.8391 155.991 88.2418C155.487 88.639 154.74 88.785 153.75 88.6798L149.193 88.1957L149.062 89.4256L147.37 89.2458L147.501 88.0159L145.314 87.7835L145.569 85.3815L147.756 85.6139L147.931 83.9713L149.623 84.151L149.448 85.7937L153.996 86.2769C154.343 86.3137 154.598 86.2685 154.762 86.1412C154.927 86.0084 155.022 85.8155 155.049 85.5623C155.063 85.4303 155.07 85.2863 155.07 85.1305C155.064 84.9741 155.056 84.8397 155.046 84.7273L156.81 84.706C156.855 84.9612 156.884 85.237 156.897 85.5333C156.916 85.8247 156.911 86.1107 156.881 86.3914ZM157.13 77.9154C157.139 78.7731 156.957 79.525 156.582 80.1712C156.213 80.8174 155.699 81.3213 155.039 81.6829C154.379 82.0391 153.623 82.2219 152.77 82.2316L152.438 82.2353C151.548 82.2454 150.757 82.0883 150.067 81.7641C149.372 81.4399 148.821 80.9757 148.416 80.3715C148.022 79.7894 147.821 79.0888 147.811 78.2698L147.811 78.2366C147.802 77.4232 147.954 76.738 148.269 76.181C148.909 75.0448 150.095 74.4669 151.827 74.4473L153.147 74.4324L153.207 79.7113L153.257 79.7274C153.644 79.6898 153.991 79.5862 154.299 79.4167C154.602 79.2528 154.84 79.0205 155.014 78.7196C155.187 78.4188 155.272 78.0554 155.267 77.6293C155.262 77.1866 155.202 76.775 155.087 76.3945C154.966 76.0084 154.793 75.6341 154.568 75.2713L156.054 74.5987C156.357 74.9661 156.612 75.4309 156.817 75.993C157.017 76.5497 157.121 77.1905 157.13 77.9154ZM151.564 79.7382L151.605 79.7129L151.571 76.7165L151.355 76.7189C150.995 76.723 150.68 76.7736 150.41 76.8707C149.865 77.0872 149.596 77.5219 149.603 78.1749C149.607 78.4903 149.693 78.7605 149.862 78.9855C150.036 79.2049 150.27 79.3765 150.565 79.5005C150.859 79.6189 151.192 79.6982 151.564 79.7382ZM154.529 68.1034L154.618 66.9183L156.058 66.7217L156.7 71.426L155.261 71.6226L154.857 70.5049L149.339 71.2589L149.266 72.5674L147.819 72.7652L147.339 69.2534L148.428 69.0124L148.624 68.9689C147.587 68.6582 147.009 68.0669 146.89 67.1951C146.87 67.0526 146.863 66.8944 146.867 66.7207C146.866 66.5477 146.875 66.3928 146.896 66.256L149.143 66.2087L149.24 67.4102L149.256 67.5253C149.294 67.805 149.384 68.0329 149.525 68.209C149.686 68.4049 149.901 68.5682 150.17 68.699L154.529 68.1034ZM144.605 64.5275L142.598 65.0204L142 62.5859L144.007 62.093L144.605 64.5275ZM145.853 61.6397L152.923 59.9036L152.888 58.7157L154.298 58.3693L155.433 62.9884L154.022 63.3348L153.501 62.2575L148.092 63.5858L148.159 64.9028L146.74 65.2512L145.853 61.6397ZM152.245 51.9987C152.555 52.8278 152.641 53.6083 152.502 54.3401C152.362 55.072 152.03 55.7163 151.506 56.2732C150.977 56.832 150.292 57.2687 149.453 57.5833L149.29 57.6444C148.445 57.9609 147.645 58.0805 146.889 58.0032C146.123 57.9298 145.448 57.6657 144.864 57.2109C144.277 56.7509 143.83 56.1089 143.521 55.2849C143.207 54.4455 143.121 53.665 143.265 52.9435C143.406 52.2168 143.741 51.5741 144.271 51.0153C144.795 50.4584 145.477 50.0227 146.316 49.7081L146.479 49.647C147.324 49.3305 148.124 49.2109 148.88 49.2882C149.641 49.3635 150.316 49.6276 150.905 50.0805C151.49 50.5353 151.936 51.1747 152.245 51.9987ZM150.504 52.6511C150.358 52.2624 150.131 51.9809 149.824 51.8066C149.518 51.6375 149.154 51.5642 148.731 51.5868C148.303 51.6113 147.835 51.7186 147.327 51.9089L147.164 51.9701C146.671 52.1545 146.253 52.3792 145.909 52.644C145.57 52.9069 145.342 53.2051 145.225 53.5386C145.106 53.8669 145.121 54.2306 145.27 54.6296C145.414 55.0131 145.641 55.2946 145.95 55.4741C146.263 55.6464 146.633 55.7204 147.062 55.6959C147.483 55.6682 147.942 55.5611 148.439 55.3747L148.602 55.3135C149.105 55.1252 149.528 54.8986 149.872 54.6338C150.211 54.3709 150.44 54.0753 150.56 53.747C150.672 53.4154 150.653 53.0501 150.504 52.6511ZM146.158 42.9787L145.829 41.8365L147.11 41.1514L149.349 45.3382L148.069 46.0233L147.301 45.116L142.389 47.7428L142.777 48.9948L141.488 49.6838L139.817 46.5583L140.754 45.9532L140.922 45.8446C139.842 45.9139 139.095 45.5606 138.68 44.7848C138.612 44.6579 138.55 44.5123 138.493 44.348C138.432 44.1863 138.387 44.0377 138.359 43.9023L140.449 43.0762L140.958 44.1688L141.013 44.2713C141.146 44.5202 141.309 44.7026 141.503 44.8186C141.722 44.9462 141.98 45.0246 142.278 45.0535L146.158 42.9787ZM137.195 27.661L140.773 31.6208L139.696 32.5948L138.619 31.8117L132.226 37.589L132.891 38.7451L131.807 39.7247L128.25 35.7896C127.523 34.9849 127.072 34.1099 126.896 33.1646C126.717 32.2153 126.806 31.2696 127.163 30.3278C127.516 29.3818 128.122 28.521 128.98 27.7455L129.146 27.5953C130 26.8235 130.908 26.309 131.869 26.052C132.838 25.7875 133.788 25.7905 134.719 26.0608C135.646 26.3271 136.471 26.8605 137.195 27.661ZM129.691 34.6106L130.687 35.7129L136.901 30.0969L135.905 28.9946C135.452 28.4937 134.94 28.1917 134.37 28.0884C133.799 27.9773 133.205 28.0374 132.586 28.2686C131.963 28.4957 131.36 28.8727 130.777 29.3996L130.605 29.5555C130.018 30.0861 129.576 30.6495 129.279 31.2457C128.995 31.8386 128.881 32.4226 128.938 32.9975C128.991 33.5761 129.242 34.1138 129.691 34.6106ZM127.965 18.5817C128.634 19.1175 129.101 19.7349 129.364 20.4341C129.63 21.1289 129.694 21.8462 129.556 22.586C129.413 23.3224 129.076 24.0233 128.543 24.6888L128.336 24.9481C127.78 25.6439 127.157 26.156 126.469 26.4845C125.778 26.8173 125.07 26.9492 124.346 26.8801C123.646 26.8163 122.976 26.5286 122.337 26.017L122.311 25.9963C121.675 25.4882 121.242 24.9359 121.01 24.3396C120.536 23.1246 120.841 21.8407 121.922 20.488L122.747 19.4573L126.87 22.7548L126.914 22.7263C127.13 22.4031 127.27 22.0686 127.334 21.7229C127.398 21.3849 127.369 21.0535 127.247 20.7286C127.124 20.4036 126.896 20.1081 126.563 19.8419C126.218 19.5654 125.861 19.3511 125.494 19.1991C125.119 19.0479 124.719 18.9446 124.296 18.8894L124.717 17.3129C125.193 17.3112 125.714 17.4088 126.279 17.6057C126.837 17.8036 127.398 18.1289 127.965 18.5817ZM125.849 24.0435L125.856 23.9956L123.516 22.1239L123.381 22.2924C123.156 22.5733 122.996 22.849 122.9 23.1196C122.722 23.6787 122.888 24.1623 123.398 24.5701C123.644 24.7672 123.908 24.8717 124.189 24.8838C124.469 24.8881 124.75 24.8154 125.033 24.6659C125.311 24.5129 125.583 24.3054 125.849 24.0435ZM119.469 12.7026C120.044 13.0453 120.549 13.42 120.983 13.8267C121.412 14.2305 121.794 14.6706 122.129 15.1469L120.85 17.3419L119.403 16.4795L119.787 15.2014C119.674 15.0243 119.536 14.8553 119.374 14.6945C119.208 14.5308 119.001 14.3754 118.754 14.2281C118.288 13.9506 117.914 13.8312 117.633 13.8701C117.353 13.9089 117.144 14.0425 117.008 14.2707C116.878 14.4894 116.865 14.739 116.968 15.0196C117.078 15.3106 117.397 15.6939 117.925 16.1696C118.725 16.9036 119.222 17.5991 119.417 18.2561C119.612 18.9132 119.524 19.5531 119.153 20.176C118.895 20.6086 118.553 20.9333 118.128 21.1501C117.704 21.3745 117.208 21.4619 116.638 21.4125C116.064 21.3602 115.43 21.1274 114.735 20.7139C114.155 20.3684 113.659 19.9956 113.247 19.5954C112.827 19.1972 112.507 18.8101 112.287 18.434L113.523 16.3103L114.963 17.1685L114.581 18.3128C114.72 18.6531 115.01 18.9549 115.452 19.2183C115.819 19.4363 116.143 19.5297 116.426 19.4985C116.708 19.4672 116.919 19.3351 117.058 19.1021C117.137 18.969 117.175 18.8242 117.172 18.6676C117.172 18.4939 117.086 18.2878 116.912 18.0491C116.734 17.8077 116.508 17.5541 116.235 17.2883C115.41 16.5003 114.887 15.793 114.668 15.1664C114.446 14.5445 114.53 13.9056 114.921 13.2495C115.349 12.5316 115.956 12.1073 116.742 11.9767C117.524 11.8432 118.433 12.0852 119.469 12.7026ZM108.535 19.2651L107.68 21.1465L105.398 20.1087L106.253 18.2273L108.535 19.2651ZM107.04 16.4969L110.054 9.8703L109.099 9.16251L109.701 7.8402L114.03 9.80933L113.429 11.1316L112.261 10.8738L109.955 15.9438L111.03 16.7066L110.426 18.0365L107.04 16.4969ZM95.9311 12.7768L96.3686 11.3829L97.4416 11.4848L99.5474 4.77687C99.7845 4.02186 100.148 3.41689 100.639 2.96196C101.135 2.50869 101.73 2.22259 102.422 2.10366C103.115 1.98473 103.876 2.05538 104.705 2.31561C105.138 2.45153 105.606 2.65946 106.11 2.9394C106.614 3.21934 107.039 3.52691 107.386 3.86211L106.442 5.37515C106.122 5.10073 105.77 4.854 105.386 4.63495C104.999 4.40897 104.626 4.23963 104.267 4.12692C103.649 3.93299 103.144 3.96286 102.751 4.21655C102.353 4.46857 102.058 4.90081 101.865 5.51326L101.689 6.07556C102.043 5.83305 102.419 5.68119 102.815 5.61998C103.211 5.55876 103.631 5.59777 104.075 5.737C104.777 5.95745 105.321 6.32245 105.706 6.83201C106.098 7.33794 106.327 7.94913 106.392 8.66558C106.457 9.38203 106.358 10.16 106.094 10.9995L106.042 11.1658C105.76 12.0634 105.38 12.8113 104.902 13.4095C104.426 14.0024 103.884 14.4092 103.275 14.6299C102.665 14.8559 102.016 14.8612 101.33 14.6457C100.818 14.485 100.411 14.2383 100.109 13.9058C99.8061 13.5786 99.5873 13.1764 99.4529 12.6992L98.9485 13.7241L95.9311 12.7768ZM101.197 7.64366L100.028 11.3659C100.169 12.0075 100.556 12.4278 101.19 12.6267C101.591 12.7527 101.949 12.7402 102.263 12.5895C102.582 12.4403 102.864 12.1807 103.108 11.8107C103.351 11.4406 103.559 10.9836 103.729 10.4398L103.781 10.2735C104.017 9.52376 104.073 8.89182 103.95 8.37765C103.826 7.86877 103.463 7.51985 102.861 7.3309C102.206 7.12537 101.651 7.22962 101.197 7.64366ZM92.1216 4.77419L91.1873 4.38904L91.3929 2.95102L95.9123 3.59722L95.7067 5.03523L94.5211 5.11726L93.7327 10.631L94.9711 11.0596L94.7643 12.5059L91.2556 12.0042L91.3309 10.7152C90.97 11.1276 90.5552 11.4289 90.0864 11.619C89.6121 11.8083 89.0956 11.8631 88.5369 11.7832C87.6549 11.6571 87.005 11.2762 86.5871 10.6407C86.1693 10.0052 86.0465 9.08483 86.2189 7.87964L86.7722 4.00933L85.6571 3.59833L85.8627 2.16032L90.4479 2.81591L90.2423 4.25392L89.1799 4.35358L88.6277 8.21567C88.5423 8.81278 88.5998 9.25144 88.8001 9.53164C88.9996 9.81731 89.3322 9.99344 89.7978 10.06C90.4716 10.1564 91.0238 9.95021 91.4543 9.44157L92.1216 4.77419ZM67.369 13.5166L65.883 4.97052L64.5727 4.94559L64.3239 3.51443L69.2471 2.65839L69.4959 4.08955L68.271 4.5553L69.757 13.1014L71.0672 13.1263L71.3175 14.5657L66.3943 15.4217L66.144 13.9824L67.369 13.5166ZM58.8195 6.82957L57.8104 6.8857L57.3749 5.4999L61.7302 4.13099L62.1658 5.51679L61.1318 6.1028L62.8019 11.4164L64.104 11.2681L64.542 12.6619L61.1607 13.7246L60.672 12.5296C60.5246 13.0573 60.2806 13.5082 59.9398 13.8821C59.5938 14.2577 59.1516 14.5301 58.6131 14.6994C57.7631 14.9665 57.0125 14.9037 56.3612 14.5109C55.7099 14.1182 55.2017 13.3411 54.8366 12.1796L53.6644 8.44986L52.481 8.56074L52.0455 7.17494L56.4642 5.78612L56.8998 7.17192L55.9846 7.7206L57.1544 11.4425C57.3352 12.0179 57.5765 12.3887 57.8782 12.5549C58.1815 12.7264 58.5575 12.7417 59.0063 12.6006C59.6556 12.3965 60.0646 11.9722 60.2332 11.3275L58.8195 6.82957ZM46.3744 9.46145C47.1307 9.10615 47.8119 9.0399 48.4179 9.26268C49.0189 9.48782 49.5312 10.0512 49.9547 10.9527L51.9029 15.0999L53.0224 14.5741L53.7459 16.1142L52.6265 16.6401L53.5617 18.6311L51.3754 19.6582L50.4401 17.6672L48.945 18.3695L48.2215 16.8294L49.7166 16.127L47.7719 11.9873C47.6237 11.6718 47.4527 11.477 47.2589 11.4029C47.0602 11.3312 46.8456 11.3495 46.6152 11.4577C46.495 11.5142 46.3683 11.5829 46.2351 11.6638C46.1043 11.7497 45.9935 11.8262 45.9027 11.8933L44.9702 10.3963C45.165 10.2253 45.3857 10.0574 45.6323 9.8926C45.8716 9.72516 46.119 9.58145 46.3744 9.46145ZM38.9835 13.6623C39.711 13.208 40.4482 12.9728 41.1949 12.9567C41.9387 12.9359 42.6367 13.1133 43.2888 13.489C43.9362 13.8676 44.4856 14.4184 44.937 15.1412L45.1129 15.4229C45.5847 16.1786 45.8616 16.9354 45.9434 17.6933C46.0281 18.4559 45.9178 19.1674 45.6125 19.8278C45.3201 20.467 44.8266 21.0035 44.1319 21.4373L44.1037 21.4549C43.4137 21.8858 42.749 22.1116 42.1096 22.1324C40.8062 22.1765 39.6958 21.4639 38.7784 19.9947L38.0794 18.8752L42.5574 16.0791L42.5451 16.028C42.3118 15.717 42.0426 15.4741 41.7377 15.2991C41.4404 15.126 41.1181 15.0434 40.7708 15.0515C40.4235 15.0595 40.0692 15.1764 39.7078 15.4021C39.3322 15.6366 39.0118 15.9019 38.7466 16.198C38.4796 16.5017 38.2498 16.8442 38.0572 17.2254L36.7096 16.3053C36.8658 15.8555 37.1306 15.3966 37.5039 14.9287C37.8754 14.4683 38.3686 14.0462 38.9835 13.6623ZM43.4349 17.4688L43.3918 17.4467L40.85 19.0338L40.9644 19.2169C41.1549 19.522 41.3618 19.7647 41.5852 19.9448C42.0538 20.2982 42.565 20.3019 43.1189 19.9561C43.3864 19.789 43.5725 19.575 43.677 19.314C43.7739 19.0512 43.7986 18.7618 43.7513 18.4456C43.6992 18.1323 43.5937 17.8067 43.4349 17.4688ZM31.9455 21.0033L30.8877 21.5451L29.9693 20.4196L33.6481 17.4178L34.5664 18.5433L33.8235 19.4709L37.3448 23.7864L38.4991 23.1659L39.4227 24.2978L36.6765 26.5387L35.9026 25.7346L35.7638 25.5907C36.0392 26.6373 35.8361 27.4387 35.1544 27.995C35.0429 28.086 34.9119 28.175 34.7615 28.262C34.6146 28.3533 34.4775 28.4259 34.3501 28.4799L33.1378 26.5872L34.1123 25.8777L34.2023 25.8042C34.421 25.6258 34.5686 25.4303 34.6452 25.2178C34.7285 24.9785 34.7557 24.7099 34.7269 24.412L31.9455 21.0033ZM34.069 31.329L35.5313 32.7898L33.7597 34.5633L32.2974 33.1026L34.069 31.329ZM30.9525 31.7592L25.8021 26.6145L24.8046 27.2607L23.7769 26.2341L27.1383 22.869L28.166 23.8956L27.5151 24.8996L31.4557 28.8359L32.547 28.0958L33.5806 29.1282L30.9525 31.7592ZM19.3913 31.3032C19.9386 30.6073 20.5613 30.1289 21.2592 29.8681C21.9571 29.6074 22.68 29.5564 23.4281 29.7153C24.1805 29.8776 24.909 30.2358 25.6137 30.79L25.7507 30.8978C26.4597 31.4554 26.9774 32.0772 27.3037 32.7634C27.6388 33.4563 27.7636 34.1705 27.6781 34.9058C27.5891 35.6455 27.2727 36.3612 26.7288 37.0528C26.1746 37.7574 25.552 38.2358 24.8609 38.4879C24.1664 38.7443 23.443 38.7913 22.6906 38.629C21.9425 38.4702 21.2162 38.1137 20.5115 37.5595L20.3745 37.4517C19.6655 36.8941 19.1478 36.2722 18.8215 35.5861C18.4908 34.8966 18.366 34.1824 18.4471 33.4437C18.5326 32.7083 18.8474 31.9948 19.3913 31.3032ZM20.8528 32.4527C20.5962 32.7789 20.4733 33.1187 20.484 33.4721C20.4982 33.8212 20.6247 34.1706 20.8635 34.5203C21.1067 34.8735 21.4415 35.2178 21.8677 35.553L22.0048 35.6608C22.418 35.9858 22.8271 36.2265 23.232 36.3831C23.6325 36.5362 24.0058 36.5763 24.3518 36.5034C24.6943 36.4349 24.9973 36.2331 25.2607 35.8982C25.5139 35.5763 25.6368 35.2365 25.6295 34.8787C25.6144 34.5219 25.4853 34.1669 25.2421 33.8137C24.9998 33.4683 24.6699 33.1314 24.2523 32.803L24.1153 32.6952C23.6934 32.3634 23.28 32.1192 22.875 31.9627C22.4745 31.8096 22.1029 31.7673 21.7604 31.8358C21.4187 31.9121 21.1162 32.1177 20.8528 32.4527ZM14.8375 41.2143L14.0337 42.0898L12.7816 41.3534L15.1885 37.2607L16.4406 37.9971L16.0662 39.125L20.8673 41.9485L21.7342 40.9657L22.9935 41.7063L21.1968 44.7615L20.1917 44.2764L20.0115 44.1897C20.6334 45.0754 20.7213 45.8975 20.2753 46.656C20.2023 46.78 20.1105 46.9089 19.9996 47.0428C19.8936 47.1794 19.7902 47.2952 19.6895 47.39L17.8952 46.0363L18.5626 45.0324L18.6215 44.9323C18.7646 44.689 18.8351 44.4544 18.8331 44.2286C18.828 43.9752 18.7603 43.7138 18.6298 43.4445L14.8375 41.2143ZM6.41515 56.7974L7.94631 51.6843L9.33789 52.101L9.22644 53.428L17.4805 55.8998L18.1247 54.7323L19.5243 55.1514L18.0026 60.2327C17.6915 61.2717 17.1772 62.1113 16.4598 62.7514C15.7409 63.3969 14.8861 63.811 13.8956 63.9938C12.9034 64.1819 11.8533 64.1101 10.7454 63.7783L10.5307 63.714C9.42802 63.3838 8.51767 62.8744 7.79965 62.1857C7.07102 61.4938 6.58112 60.6799 6.32994 59.7439C6.07718 58.8133 6.10558 57.8311 6.41515 56.7974ZM16.2476 59.6118L16.6738 58.1884L8.65039 55.7857L8.22414 57.2091C8.03046 57.8559 8.03738 58.45 8.2449 58.9916C8.44553 59.537 8.80513 60.0144 9.32372 60.4238C9.84072 60.8386 10.4756 61.1587 11.2284 61.3841L11.451 61.4508C12.2091 61.6778 12.92 61.7636 13.5836 61.7081C14.2381 61.6442 14.7964 61.4388 15.2585 61.0919C15.7258 60.7466 16.0555 60.2533 16.2476 59.6118ZM3.44573 69.435C3.55401 68.5841 3.83807 67.8644 4.29789 67.2758C4.75223 66.6865 5.33112 66.2581 6.03459 65.9906C6.73735 65.7286 7.51143 65.6514 8.35682 65.759L8.6862 65.8009C9.57002 65.9134 10.3313 66.1776 10.9701 66.5936C11.6144 67.0104 12.0957 67.5458 12.4141 68.1999C12.7243 68.8307 12.8278 69.5524 12.7244 70.3648L12.7202 70.3978C12.6175 71.2047 12.372 71.8624 11.9837 72.3709C11.1934 73.4083 9.93917 73.8177 8.22093 73.599L6.91167 73.4324L7.57817 68.1953L7.53086 68.1726C7.1424 68.1566 6.78398 68.2114 6.4556 68.337C6.13341 68.4577 5.86562 68.6552 5.65223 68.9292C5.43884 69.2033 5.30524 69.5517 5.25145 69.9744C5.19556 70.4136 5.19841 70.8295 5.25999 71.2223C5.32637 71.6212 5.44629 72.0158 5.61976 72.4061L4.05479 72.868C3.80516 72.4624 3.61717 71.9671 3.4908 71.382C3.36923 70.8032 3.3542 70.1541 3.44573 69.435ZM9.20962 68.3946L9.1653 68.4141L8.78699 71.3867L9.00109 71.4139C9.35791 71.4593 9.67675 71.4525 9.95762 71.3934C10.5276 71.2539 10.8539 70.8603 10.9363 70.2126C10.9761 69.8997 10.928 69.6202 10.792 69.3742C10.6497 69.1329 10.4412 68.9307 10.1663 68.7674C9.89073 68.6096 9.57183 68.4853 9.20962 68.3946ZM2.84368 79.7225C2.83796 79.0529 2.89626 78.4271 3.01857 77.845C3.14092 77.2684 3.31881 76.7134 3.55221 76.1802L6.09195 76.1336L6.10634 77.8186L4.81424 78.1534C4.72177 78.3423 4.64882 78.5477 4.59537 78.7695C4.54197 78.9969 4.5165 79.2544 4.51896 79.5422C4.5236 80.0845 4.6154 80.4655 4.79436 80.6854C4.97333 80.9052 5.19562 81.014 5.46124 81.0117C5.71579 81.0095 5.93614 80.8914 6.1223 80.6574C6.3139 80.4123 6.47589 79.9405 6.60827 79.2421C6.82054 78.1777 7.15694 77.3918 7.61746 76.8842C8.07798 76.3767 8.6707 76.1198 9.39561 76.1137C9.89917 76.1093 10.354 76.2327 10.7601 76.4838C11.1718 76.7294 11.5043 77.1084 11.7577 77.6209C12.0112 78.1389 12.1413 78.8019 12.1482 79.6098C12.154 80.2849 12.0929 80.9025 11.9648 81.4625C11.8424 82.028 11.6777 82.5026 11.4706 82.8862L9.01391 82.9321L8.99958 81.2554L10.1761 80.988C10.3949 80.6928 10.5021 80.2879 10.4977 79.7733C10.4941 79.3472 10.4055 79.0215 10.232 78.7961C10.0586 78.5706 9.83624 78.4591 9.56509 78.4614C9.41015 78.4627 9.26663 78.5055 9.13453 78.5896C8.98587 78.6794 8.8546 78.8604 8.74071 79.1325C8.62687 79.4102 8.52726 79.7348 8.44189 80.1063C8.19685 81.2208 7.86346 82.0343 7.44172 82.5471C7.02551 83.0598 6.43558 83.3194 5.67194 83.3259C4.83636 83.333 4.15865 83.0345 3.63882 82.4302C3.11904 81.8314 2.85399 80.9288 2.84368 79.7225ZM14.1305 85.6641L16.1825 85.4161L16.4832 87.9049L14.4312 88.1528L14.1305 85.6641ZM12.5441 88.3808L5.31686 89.2541L5.20904 90.4377L3.7669 90.612L3.19632 85.89L4.63846 85.7157L5.02609 86.8478L10.5557 86.1797L10.6476 84.8642L12.098 84.689L12.5441 88.3808ZM15.129 99.8037L13.7104 100.153L13.2409 99.1825L6.4137 100.862C5.64527 101.051 4.93928 101.054 4.29574 100.87C3.65086 100.681 3.0979 100.321 2.63685 99.7909C2.1758 99.2603 1.84151 98.5732 1.63396 97.7296C1.52556 97.2889 1.46037 96.7807 1.43837 96.2048C1.41638 95.6289 1.45862 95.1056 1.56508 94.6349L3.34873 94.6577C3.28006 95.0736 3.2516 95.5023 3.26336 95.9439C3.27107 96.3922 3.31987 96.7991 3.40976 97.1645C3.56443 97.7932 3.8521 98.2097 4.27277 98.4139C4.69476 98.6235 5.21743 98.6517 5.84077 98.4983L6.41306 98.3576C6.02182 98.1803 5.69725 97.9381 5.43937 97.6311C5.18149 97.3241 4.99703 96.945 4.88598 96.4936C4.71016 95.7789 4.74014 95.1247 4.97591 94.531C5.20499 93.9333 5.6089 93.4207 6.18764 92.9934C6.76638 92.5661 7.48295 92.2473 8.33736 92.0372L8.50663 91.9955C9.42015 91.7708 10.2566 91.7075 11.0159 91.8056C11.7698 91.9051 12.399 92.1578 12.9034 92.5637C13.4133 92.9683 13.7541 93.5198 13.926 94.2184C14.0542 94.7396 14.0544 95.2154 13.9267 95.6458C13.8042 96.0748 13.5739 96.4706 13.2357 96.833L14.3735 96.7326L15.129 99.8037ZM8.00904 97.9649L11.7975 97.033C12.2729 96.5798 12.4314 96.0307 12.2727 95.3859C12.1723 94.9775 11.9761 94.6781 11.6842 94.4878C11.391 94.2921 11.023 94.186 10.5801 94.1696C10.1373 94.1531 9.63912 94.213 9.08564 94.3492L8.91637 94.3908C8.15331 94.5785 7.58385 94.8582 7.20799 95.2299C6.8375 95.6003 6.72761 96.0918 6.87831 96.7044C7.04223 97.3707 7.41914 97.7909 8.00904 97.9649ZM10.2626 107.212L10.4179 108.21L9.08175 108.78L7.29037 104.581L8.62651 104.011L9.31155 104.982L14.4347 102.797L14.1589 101.516L15.5027 100.942L16.8934 104.202L15.7523 104.807C16.2921 104.901 16.7648 105.1 17.1705 105.402C17.5783 105.709 17.893 106.122 18.1145 106.642C18.464 107.461 18.4755 108.214 18.1488 108.901C17.8221 109.588 17.0989 110.17 15.9791 110.648L12.383 112.182L12.6099 113.349L11.2738 113.919L9.45632 109.658L10.7925 109.088L11.4286 109.945L15.0171 108.414C15.5719 108.177 15.9172 107.901 16.0529 107.584C16.1937 107.265 16.1718 106.89 15.9872 106.457C15.7201 105.831 15.2575 105.466 14.5993 105.362L10.2626 107.212Z" fill="white"/>
</svg>
