<svg width="512" height="512" viewBox="0 0 512 512" fill="none" xmlns="http://www.w3.org/2000/svg">
<path fill-rule="evenodd" clip-rule="evenodd" d="M0 479.522L195.039 132.612L380.699 470.702C358.293 471.853 336.112 475.026 315.004 478.932L312.904 479.324L189.848 258.939L68.9003 482.741L53.0877 512C34.8779 505.064 16.2499 495.037 0.524828 480.028L0 479.522Z" fill="#FF7433"/>
<path fill-rule="evenodd" clip-rule="evenodd" d="M298.642 296.781L350.355 204.798L505.56 487.425L512 499.153C489.62 485.276 465.363 477.298 440.432 473.366L346.268 304.294L324.692 344.218L298.642 296.781Z" fill="#FECE51"/>
<path fill-rule="evenodd" clip-rule="evenodd" d="M77.1787 207.539L193.86 0L307.83 207.539H269.239L191.084 67.5708L115.441 207.539H77.1787Z" fill="#FECE51"/>
<path fill-rule="evenodd" clip-rule="evenodd" d="M164.01 385.471H187.321V425.993H164.01V385.471ZM164.01 444.002H187.321V484.525H164.01V444.002ZM197.682 444.002H220.994V484.525H197.682V444.002ZM197.682 385.471H220.994V425.993H197.682V385.471Z" fill="#FECE51"/>
</svg>
