<svg width="48" height="40" viewBox="0 0 48 40" fill="none" xmlns="http://www.w3.org/2000/svg">
<path fill-rule="evenodd" clip-rule="evenodd" d="M28.6605 0.168121C28.5561 0.259301 28.2717 0.853865 28.0283 1.48918L27.5858 2.64438L26.8096 2.89887C26.3827 3.03895 25.6403 3.34017 25.16 3.56831C24.6797 3.79645 24.2635 3.98307 24.2353 3.98307C24.207 3.98307 23.7112 3.76981 23.1335 3.50917C22.5559 3.24852 21.948 3.03526 21.7827 3.03526C21.5194 3.03526 21.2713 3.24643 19.782 4.73753C18.2615 6.25982 18.082 6.47289 18.0841 6.75164C18.0854 6.92319 18.3043 7.55017 18.5704 8.14511L19.0543 9.22676L18.7131 9.89857C18.5255 10.268 18.2134 11.018 18.0194 11.5651L17.6669 12.5597L16.4954 13.0094C15.8471 13.2582 15.2496 13.5489 15.1579 13.6603C15.0098 13.8399 14.992 14.1138 14.992 16.2277V18.594L15.2527 18.8502C15.4092 19.0041 15.9484 19.2684 16.6032 19.5121L17.6931 19.9176L17.9151 20.6534C18.0372 21.0581 18.3415 21.8118 18.5913 22.3284L19.0455 23.2675L18.5271 24.439C18.1409 25.3116 18.0242 25.6748 18.0696 25.8625C18.1628 26.2483 21.3097 29.3698 21.6743 29.4382C21.8929 29.4793 22.2337 29.3698 23.1046 28.9789L24.2479 28.4657L24.9566 28.8223C25.3463 29.0184 26.068 29.3168 26.5601 29.4854C27.0523 29.6539 27.5032 29.8389 27.5623 29.8962C27.6212 29.9536 27.7599 30.2474 27.8703 30.5492C28.0605 31.0688 28.071 31.2719 28.071 34.4079C28.071 37.4748 28.0848 37.755 28.2587 38.2192C28.5258 38.9327 28.9315 39.3764 29.6319 39.7213C30.2302 40.0158 30.2538 40.0193 31.4056 39.9827C32.3674 39.9522 32.6396 39.9101 32.952 39.7439C33.4722 39.467 33.99 38.9077 34.2505 38.3413C34.4621 37.8811 34.4699 37.765 34.5204 34.3131C34.5861 29.8265 34.5436 29.9838 35.803 29.5615C36.2679 29.4057 37.0201 29.0956 37.4747 28.8724L38.3011 28.4666L39.4436 28.9729C40.072 29.2514 40.6511 29.4793 40.7306 29.4793C41.0486 29.4793 41.4514 29.1448 42.9271 27.6557C44.7571 25.809 44.7073 25.9638 43.9886 24.3504L43.5099 23.2761L43.9794 22.2783C44.2375 21.7297 44.5455 20.975 44.6637 20.6014L44.8785 19.9221L46.0415 19.4777C46.681 19.2333 47.2709 18.9599 47.3521 18.87C47.4781 18.7309 47.5 18.3416 47.5 16.2408C47.5 13.8586 47.4933 13.7688 47.3015 13.5944C47.1924 13.495 46.606 13.2204 45.9984 12.984L44.8937 12.5541L44.5593 11.6097C44.3754 11.0902 44.0634 10.3391 43.8658 9.94056L43.5067 9.21605L43.987 8.13981C44.7077 6.52435 44.7742 6.71278 42.782 4.72057C41.2971 3.23553 41.0606 3.03526 40.7921 3.03526C40.6245 3.03526 39.9945 3.25487 39.3923 3.52319L38.2972 4.01122L37.3779 3.57286C36.8724 3.33183 36.1192 3.0163 35.7042 2.87167L34.9497 2.60874L34.5352 1.51876C33.9102 -0.124279 34.1813 0.00225397 31.2873 0.00225397C29.1017 0.00225397 28.8307 0.0194094 28.6605 0.168121ZM33.23 2.68125C33.4462 3.24255 33.6937 3.78403 33.7798 3.88469C33.8661 3.98535 34.1202 4.1134 34.3446 4.16922C35.1112 4.35992 36.3631 4.85487 37.1695 5.28622C37.6663 5.55189 38.0866 5.71302 38.2659 5.70658C38.426 5.70089 38.9206 5.52896 39.3652 5.32451C40.6723 4.7235 40.4623 4.67299 41.6711 5.87851L42.7368 6.9412L42.2751 7.97261C42.0212 8.53988 41.8135 9.12686 41.8135 9.27709C41.8135 9.42731 42.0448 9.99733 42.3275 10.5438C42.6103 11.0904 42.997 12.031 43.187 12.6341C43.5805 13.8835 43.4583 13.7733 45.1566 14.409L45.9881 14.7203L45.9622 16.2436L45.9362 17.7668L44.8247 18.1981C44.2134 18.4352 43.6522 18.6928 43.5776 18.7702C43.5031 18.8477 43.3484 19.25 43.2337 19.6642C43.0092 20.4755 42.567 21.5359 42.1053 22.3707C41.9466 22.6574 41.8157 23.0199 41.8142 23.1763C41.8127 23.3327 42.0123 23.9212 42.2577 24.484L42.7039 25.5075L41.6189 26.5879L40.534 27.6684L39.4643 27.1995C38.8759 26.9416 38.3104 26.7306 38.2076 26.7306C38.1048 26.7306 37.6692 26.9196 37.2396 27.1507C36.4645 27.5676 35.2766 28.0679 34.7764 28.1881L34.5158 28.2507V27.2508C34.5158 26.3833 34.5378 26.2431 34.6816 26.1935C39.6756 24.4702 42.6122 19.3193 41.5623 14.1247C40.8277 10.4905 38.1871 7.49169 34.6647 6.29176C32.6024 5.58914 30.0241 5.58137 27.9289 6.27128C25.8787 6.94641 23.8066 8.51827 22.5741 10.3334C20.072 14.0181 20.21 19.0744 22.9092 22.6133C24.0791 24.1472 25.7776 25.4181 27.5261 26.0678L28.071 26.2703V27.2587C28.071 27.8349 28.0327 28.2471 27.979 28.2471C27.7451 28.2471 26.2678 27.6417 25.4469 27.2096C24.9465 26.9461 24.4473 26.7316 24.3375 26.7329C24.2277 26.7342 23.6687 26.9434 23.0953 27.1978L22.0528 27.6603L20.9514 26.5694L19.85 25.4784L20.3117 24.4471C20.5656 23.8799 20.7731 23.3192 20.773 23.2012C20.7728 23.0833 20.5196 22.4902 20.2105 21.8833C19.9013 21.2764 19.5365 20.4021 19.3998 19.9403C19.0211 18.6614 19.0846 18.7284 17.7723 18.2232L16.6047 17.7738L16.604 16.2467L16.6032 14.7197L17.6273 14.3256C18.1905 14.1089 18.7409 13.8688 18.8503 13.7921C18.9831 13.699 19.1607 13.2987 19.3854 12.5855C19.5703 11.9984 19.9582 11.0588 20.2474 10.4972C20.5367 9.93563 20.7722 9.38116 20.7709 9.26505C20.7695 9.14894 20.5579 8.58471 20.3006 8.01128L19.8327 6.96869L20.9146 5.88372L21.9964 4.79867L23.0198 5.23513C23.5826 5.47522 24.1234 5.69776 24.2215 5.72961C24.3367 5.76705 24.7987 5.58649 25.5242 5.22063C26.1426 4.9088 27.0859 4.51735 27.6204 4.35063C28.1549 4.18401 28.6628 3.98753 28.7491 3.91407C28.8353 3.84062 29.0912 3.29212 29.3177 2.69518L29.7296 1.60975L31.2832 1.63534L32.8367 1.66093L33.23 2.68125ZM33.105 7.54259C34.9158 7.91517 36.3762 8.76157 37.7855 10.2553C41.7494 14.4566 40.5984 21.2666 35.4502 24.073C35.0665 24.2821 34.7008 24.4538 34.6373 24.4545C34.5487 24.4556 34.5155 23.533 34.4951 20.4987L34.4684 16.5416L33.2771 14.5038C31.7733 11.9314 31.8496 12.0483 31.6258 11.9773C31.3414 11.887 30.9178 11.9186 30.7702 12.041C30.6983 12.1008 30.5139 12.3702 30.3605 12.6396C30.2073 12.909 29.6293 13.9164 29.0764 14.8782L28.071 16.6269V20.5898V24.5527L27.3365 24.1808C25.4982 23.2497 24.1211 21.8407 23.2451 19.9943C22.7207 18.8892 22.4774 17.8896 22.4161 16.589C22.3005 14.1361 23.2204 11.777 24.9872 9.99525C27.1282 7.83603 30.1274 6.92983 33.105 7.54259ZM31.7851 15.1938L32.2293 15.9729L31.3227 16.0002C30.824 16.0152 30.3984 16.01 30.377 15.9886C30.3297 15.9412 31.2172 14.4079 31.2896 14.4119C31.3178 14.4134 31.5407 14.7653 31.7851 15.1938ZM32.8993 27.4652C32.8952 34.8253 32.8654 37.3814 32.7808 37.6271C32.5917 38.176 32.1628 38.3887 31.2448 38.3887C30.5985 38.3887 30.4232 38.3551 30.2144 38.1908C29.6526 37.7488 29.6822 38.3416 29.6822 27.541V17.6316H31.2934H32.9046L32.8993 27.4652ZM9.68462 19.7657C8.0451 20.2142 6.62356 21.348 5.90668 22.779C5.47555 23.6397 5.31386 24.3676 5.31348 25.4511C5.31282 27.0902 5.91398 28.4986 7.10114 29.6394C7.39096 29.9178 7.61103 30.1573 7.59018 30.1715C7.56923 30.1857 7.29628 30.2969 6.98352 30.4186C4.76426 31.2823 2.67579 33.2014 1.55924 35.4031C0.664181 37.1679 0.22793 39.3574 0.680956 39.8104C0.868138 39.9976 0.996842 40 11.0631 40H21.2558L21.4884 39.7673C21.7707 39.4851 21.7754 39.3009 21.5313 38.1029C20.86 34.8087 18.652 32.0132 15.6194 30.6178C15.1961 30.423 14.7709 30.2362 14.6745 30.2025C14.5246 30.1503 14.5678 30.0796 14.9719 29.7163C16.433 28.4026 17.16 26.1821 16.7566 24.2663C16.5693 23.3773 15.9867 22.1888 15.427 21.5539C14.8507 20.9003 13.8602 20.2404 12.9996 19.9365C12.1081 19.6218 10.5113 19.5395 9.68462 19.7657ZM12.1552 21.3859C12.9307 21.6158 13.3647 21.8679 13.9557 22.4317C16.0766 24.4548 15.512 27.8458 12.8338 29.1695C11.5763 29.791 10.0547 29.6938 8.84936 28.9147C6.66687 27.5039 6.26531 24.5182 8.00122 22.6076C9.04934 21.4538 10.7236 20.9615 12.1552 21.3859ZM13.1518 31.4671C15.7553 32.0934 17.994 33.8696 19.1876 36.2561C19.4806 36.8422 19.9204 38.0709 19.9204 38.3039C19.9204 38.3532 16.2078 38.3887 11.0589 38.3887C6.18504 38.3887 2.19736 38.3718 2.19736 38.3513C2.19736 38.1474 2.67351 36.8551 2.97139 36.2505C4.28157 33.5914 6.95897 31.6787 9.92156 31.2854C10.8144 31.1669 12.2364 31.2469 13.1518 31.4671Z" fill="#FF7433"/>
</svg>
