<svg width="30" height="40" viewBox="0 0 30 40" fill="none" xmlns="http://www.w3.org/2000/svg">
<path fill-rule="evenodd" clip-rule="evenodd" d="M16.0981 0.33325C16.4779 0.526877 17.1593 0.920072 17.6123 1.20702C18.3876 1.69825 18.541 1.72901 20.2128 1.72901C22.4252 1.72901 22.8576 1.96824 23.8027 3.71455C24.6045 5.19594 24.8023 5.39376 26.3112 6.22122C28.0179 7.15737 28.2437 7.51981 28.2839 9.38705C28.3019 10.2211 28.3215 11.0657 28.3277 11.2641C28.3338 11.4624 28.6616 12.1597 29.0564 12.8134C30.2808 14.8415 30.2776 15.2331 29.0206 17.3116L28.2929 18.5148L28.3154 20.2139C28.3425 22.272 28.0917 22.8043 26.7533 23.5274C25.0806 24.4309 24.6302 24.8503 23.8909 26.1913C22.8616 28.0591 22.4537 28.2915 20.2057 28.2915C18.432 28.2915 18.4159 28.2954 17.376 28.9668C16.1121 29.7829 15.206 30.1027 14.5624 29.9601C14.2981 29.9014 13.4952 29.502 12.7779 29.0725L11.4738 28.2915H9.73731C7.53477 28.2915 7.11406 28.065 6.24378 26.4105C5.49578 24.9883 5.084 24.5824 3.54706 23.7513C1.91426 22.8684 1.6879 22.4371 1.67321 20.1814L1.66184 18.418L0.886546 17.1947C-0.221287 15.447 -0.271492 14.597 0.648641 13.1754C1.64329 11.6387 1.757 11.2536 1.70679 9.59291C1.64767 7.63654 1.93 7.13028 3.58677 6.22419C5.15694 5.36545 5.28971 5.23403 6.12431 3.7149C7.0803 1.97488 7.33097 1.83595 9.7081 1.72901C11.6239 1.64285 11.6645 1.63202 12.7783 0.918849C13.3991 0.52111 14.025 0.153954 14.1693 0.102401C14.7158 -0.0920991 15.4316 -0.00647011 16.0981 0.33325ZM10.3438 10.7372C11.3517 9.63537 12.6928 8.90962 14.0343 8.74011C17.7552 8.26968 20.9816 10.8158 21.2878 14.4643C21.4596 16.5121 20.7623 18.2332 19.1664 19.7005C17.8462 20.9143 17.0125 21.214 14.9565 21.214C13.4094 21.214 13.096 21.1593 12.2439 20.7413C10.934 20.0987 9.85259 18.9915 9.21287 17.6384C8.7542 16.6683 8.67951 16.3117 8.68231 15.1045C8.68668 13.2807 9.16354 12.027 10.3438 10.7372Z" fill="#FF7433"/>
<path d="M28.4216 31.1465C29.5049 33.7197 30.0637 35.2577 29.9942 35.4762C29.9349 35.6626 29.7007 35.9368 29.4735 36.0855C29.1005 36.3298 28.8773 36.329 27.1689 36.078C26.1286 35.9251 25.0343 35.7556 24.7369 35.7014C24.2117 35.6057 24.1624 35.6563 22.9902 37.493C22.3269 38.5324 21.6452 39.5219 21.4753 39.6916C21.0719 40.0945 20.1885 40.0876 19.838 39.6785C19.6312 39.4373 16.6234 32.5934 16.6191 32.3545C16.6187 32.3306 16.7169 32.3102 16.837 32.3091C16.9574 32.3082 17.5509 31.9937 18.156 31.6101C19.2332 30.9275 19.2902 30.9128 20.8674 30.9111C22.1883 30.9097 22.6361 30.8358 23.3532 30.5006C24.4715 29.9777 25.5244 28.9192 26.0579 27.7812C26.2887 27.2891 26.5369 26.9471 26.6093 27.0211C26.6817 27.0952 27.4973 28.9516 28.4216 31.1465Z" fill="#FF7433"/>
<path d="M5.04009 29.448C6.07165 30.5091 7.16689 30.9092 9.04669 30.9111C10.6293 30.9128 10.6788 30.9256 11.7415 31.6118C12.3369 31.9963 12.93 32.3109 13.0594 32.3109C13.1889 32.3109 13.2947 32.3704 13.2947 32.4433C13.2947 32.6644 10.496 39.1851 10.2201 39.6068C10.0392 39.8833 9.79154 40 9.38518 40C8.66989 40 8.42708 39.745 6.93161 37.4224C6.29731 36.4373 5.74855 35.6312 5.71234 35.6312C5.67613 35.6312 4.6318 35.7876 3.39172 35.9788C2.15164 36.1701 1.03874 36.3274 0.918383 36.3283C0.553304 36.3314 0 35.6576 0 35.2102C0 34.9785 0.621527 33.3075 1.38107 31.4967C2.1408 29.6857 2.89317 27.8896 3.05288 27.5051L3.34361 26.8061L3.88345 27.8099C4.18031 28.3619 4.7009 29.0991 5.04009 29.448Z" fill="#FF7433"/>
</svg>
