<svg width="34" height="33" viewBox="0 0 34 33" fill="none" xmlns="http://www.w3.org/2000/svg">
<path fill-rule="evenodd" clip-rule="evenodd" d="M16.3678 0.589779C16.1468 0.682918 1.49073 10.0681 1.07433 10.3831C0.944185 10.4815 0.763014 10.7076 0.671655 10.8855C0.347841 11.5158 0.49654 12.4301 0.996693 12.8841C1.48048 13.3233 2.25432 13.4353 2.87322 13.1557L3.21146 13.0029L3.21185 22.0482C3.21204 28.0117 3.23459 31.1719 3.27802 31.3234C3.39495 31.732 3.72818 32.136 4.10469 32.3258L4.45028 32.5H16.999H29.5478L29.8933 32.3258C30.2699 32.136 30.6031 31.732 30.72 31.3234C30.7634 31.1719 30.786 28.0117 30.7862 22.0482L30.7866 13.0029L31.1248 13.1557C31.7651 13.4449 32.5983 13.3056 33.0538 12.8331C33.515 12.3549 33.6383 11.4927 33.3311 10.8947C33.2424 10.7219 33.1047 10.5229 33.0251 10.4523C32.7973 10.2504 17.9632 0.741864 17.6755 0.61322C17.3616 0.47295 16.6742 0.460573 16.3678 0.589779ZM24.6659 6.42719C28.7587 9.05201 32.1581 11.2555 32.2201 11.3239C32.4817 11.6124 32.2413 12.1845 31.8585 12.1845C31.7596 12.1845 30.7032 11.5456 29.0368 10.478C27.5719 9.53946 24.315 7.45153 21.7993 5.83817C17.9392 3.36262 17.19 2.90487 16.9994 2.90549C16.8089 2.90618 15.7136 3.58597 10.0086 7.24419C6.28789 9.63004 3.02978 11.7177 2.76833 11.8833C2.50688 12.049 2.22288 12.1845 2.13719 12.1845C1.78078 12.1845 1.52384 11.64 1.74573 11.3548C1.79006 11.2979 5.20389 9.08283 9.33211 6.43244C15.6979 2.34554 16.8673 1.61674 17.0312 1.63424C17.1573 1.64762 19.8137 3.3153 24.6659 6.42719ZM23.3723 8.2152L29.6209 12.2158L29.6238 21.5797C29.6271 31.5634 29.6372 31.2231 29.334 31.336C29.1977 31.3868 4.80032 31.3868 4.66399 31.336C4.36086 31.2231 4.37091 31.5636 4.37471 21.5797L4.37832 12.2158L10.6403 8.20177C14.0844 5.99407 16.9522 4.19381 17.0131 4.20118C17.074 4.20856 19.9356 6.01488 23.3723 8.2152ZM10.7301 10.1495C10.3053 10.2965 10.0385 10.5224 8.40918 12.1148C6.64785 13.8362 6.53929 13.9835 6.53929 14.6536C6.53929 15.3676 6.56751 15.4021 9.38275 18.1392L11.9391 20.6246L10.3762 22.1419L8.81314 23.6593L8.13278 25.97C7.39167 28.4869 7.36448 28.6634 7.65647 29.0613C7.82063 29.285 8.23439 29.4961 8.51278 29.4982C8.61135 29.4989 9.71307 29.217 10.961 28.8715C12.2089 28.5262 13.288 28.2277 13.3588 28.2083C13.4297 28.1889 14.1907 27.4948 15.05 26.6658L16.6124 25.1587L19.1734 27.638C21.083 29.4866 21.8082 30.1497 22.0244 30.2446C22.4163 30.4168 23.0494 30.4169 23.4418 30.2448C23.8509 30.0655 27.0563 26.9711 27.2896 26.5304C27.4899 26.1519 27.5124 25.5493 27.3409 25.1552C27.2633 24.9767 26.4916 24.1848 24.646 22.3896L22.0598 19.8742L24.2576 17.7327C26.8293 15.227 26.8218 15.2371 26.8233 14.3098C26.8248 13.4046 26.7083 13.208 25.4534 11.9968C24.195 10.7823 24.0733 10.7154 23.1197 10.7159C22.5366 10.7161 22.4031 10.7364 22.1532 10.8623C21.964 10.9577 21.0864 11.7601 19.6252 13.1738L17.387 15.3392L14.7609 12.7987C12.2525 10.3721 12.119 10.2537 11.7847 10.1587C11.363 10.0388 11.0576 10.0362 10.7301 10.1495ZM12.0633 11.8064L12.7128 12.4283L12.0856 13.0478C11.5056 13.6204 11.4582 13.6859 11.4582 13.9142C11.4582 14.332 11.8376 14.5931 12.2207 14.4391C12.3198 14.3993 12.6593 14.1148 12.9752 13.807L13.5494 13.2472L14.0805 13.7598L14.6115 14.2723L14.1983 14.6875C13.9711 14.9159 13.7657 15.178 13.7419 15.27C13.6437 15.6494 14.0398 16.045 14.4278 15.9551C14.5132 15.9354 14.7788 15.7336 15.018 15.5067L15.4531 15.0943L16.001 15.6232L16.5491 16.1521L14.6644 17.9814L12.7797 19.8108L10.3158 17.4208C8.96062 16.1063 7.81148 14.95 7.76219 14.8513C7.71291 14.7525 7.68791 14.6115 7.70659 14.5377C7.74506 14.3859 10.6776 11.4829 10.975 11.3023C11.0813 11.2377 11.2235 11.1848 11.291 11.1846C11.36 11.1845 11.6974 11.4561 12.0633 11.8064ZM23.5411 11.873C23.7681 11.9568 25.2773 13.3889 25.5126 13.7439C25.8563 14.2625 25.7324 14.6963 25.0566 15.3402L24.6641 15.7142L23.1682 14.2628L21.6722 12.8114L22.0577 12.4284C22.2697 12.2179 22.5301 11.9925 22.6365 11.9277C22.8489 11.7983 23.2696 11.7728 23.5411 11.873ZM23.2974 17.0442L22.7672 17.5612L21.2687 16.1084L19.7703 14.6555L20.3004 14.1384L20.8305 13.6214L22.3291 15.0742L23.8275 16.5271L23.2974 17.0442ZM19.4802 15.9983L19.9933 16.4991L15.9322 20.4392L11.8711 24.3794L11.1653 24.0881C10.7772 23.9279 10.4463 23.7849 10.4301 23.7703C10.3994 23.7425 18.8739 15.4975 18.9332 15.4975C18.9518 15.4975 19.198 15.7229 19.4802 15.9983ZM17.6754 22.4987C15.3369 24.7677 13.4062 26.6241 13.3849 26.6241C13.345 26.6241 12.7468 25.2933 12.7468 25.2047C12.7468 25.1777 14.5659 23.3904 16.7893 21.233L20.8318 17.3105L21.3795 17.8419L21.9271 18.3732L17.6754 22.4987ZM21.8653 22.126C21.4121 22.5815 21.324 22.7788 21.4461 23.0647C21.5449 23.2962 21.6844 23.3737 22.0024 23.3737C22.2176 23.3737 22.2986 23.3237 22.6833 22.9532L23.12 22.5329L23.6663 23.0602L24.2127 23.5875L23.5696 24.2217C22.8973 24.8844 22.8292 25.0175 23.0013 25.3312C23.1167 25.5414 23.2582 25.6198 23.5258 25.622C23.7496 25.6238 23.8269 25.5712 24.4143 25.0183L25.0577 24.4126L25.6671 25.0014C26.5671 25.871 26.6441 25.678 24.6148 27.6415C23.0942 29.1128 22.9342 29.2495 22.7337 29.2495C22.5312 29.2495 22.322 29.0632 19.9815 26.7972L17.4485 24.3447L19.3329 22.5157L21.2173 20.6867L21.7479 21.1988L22.2784 21.7109L21.8653 22.126ZM10.6631 25.1183L11.5549 25.4877L11.9553 26.381C12.1756 26.8723 12.3468 27.2831 12.3357 27.2938C12.3246 27.3046 12.0791 27.3801 11.7901 27.4616L11.2646 27.6099L11.0666 27.2495C10.8114 26.7849 10.2565 26.2489 9.7708 25.9977C9.55999 25.8887 9.40008 25.7671 9.41548 25.7274C9.43087 25.6877 9.49227 25.4865 9.55187 25.2802C9.69129 24.7976 9.70882 24.7489 9.74296 24.7489C9.75862 24.7489 10.1726 24.9151 10.6631 25.1183ZM9.69864 27.3917C10.1906 27.9095 10.1967 27.8938 9.41593 28.1165C9.03909 28.2239 8.71843 28.2999 8.70336 28.2853C8.68113 28.2638 8.92937 27.3356 9.04366 27.0126C9.08722 26.8896 9.38571 27.0623 9.69864 27.3917Z" fill="#FF7433"/>
</svg>
