<svg width="65" height="60" viewBox="0 0 65 60" fill="none" xmlns="http://www.w3.org/2000/svg">
<path fill-rule="evenodd" clip-rule="evenodd" d="M31.349 0.0854902C31.1255 0.144575 30.7331 0.301956 30.4769 0.435134C30.2207 0.568312 23.445 5.6914 15.4199 11.8198L0.828885 22.9624L0.414375 23.7904C0.0606666 24.4974 0 24.7695 0 25.6519C0 26.4934 0.0652708 26.8163 0.351406 27.3894C1.00533 28.6998 2.31847 29.4654 3.92708 29.474C5.10101 29.4804 5.55114 29.2692 7.46173 27.8152L9.06723 26.5935L9.10393 41.9104L9.14062 57.2275L9.5076 57.9222C9.70951 58.3043 10.121 58.8274 10.4222 59.0848C11.564 60.0607 10.0791 59.9992 32.5 59.9992C54.9209 59.9992 53.436 60.0607 54.5778 59.0848C54.879 58.8274 55.2905 58.3043 55.4924 57.9222L55.8594 57.2275L55.9007 52.2222L55.9418 47.2168L56.5774 46.8815C57.4544 46.4189 57.5969 46.0723 57.33 45.0525C56.8987 43.4044 57.312 41.6503 58.4204 40.4253C58.8739 39.9242 58.9568 39.886 59.449 39.952C60.2806 40.0634 60.7383 39.7865 61.6013 38.6502C62.9994 36.8092 63.375 36.1947 63.3747 35.7484C63.3743 34.8468 63.0339 34.5118 59.4479 31.8824L55.9948 29.3504L55.9561 27.9661L55.9173 26.5818L57.5306 27.8094C59.4747 29.2888 59.8776 29.4727 61.1741 29.4727C63.4756 29.4727 65 27.8975 65 25.5192C65 24.7849 64.9234 24.4654 64.5856 23.7904L64.1711 22.9624L49.5766 11.8171C41.5495 5.68721 34.718 0.537349 34.3953 0.373074C33.7565 0.0476329 32.0881 -0.109747 31.349 0.0854902ZM33.4857 2.28651C34.1752 2.65481 62.4538 24.355 62.6661 24.6785C62.8052 24.8904 62.901 25.2967 62.901 25.6738C62.901 26.3736 62.5725 26.8536 61.8295 27.2395C60.9011 27.7216 61.3918 28.0587 46.8012 16.9159C39.318 11.2011 33.0475 6.47087 32.8667 6.40435C32.6859 6.33796 32.3923 6.32201 32.2143 6.36892C32.0363 6.41584 25.7664 11.1375 18.2812 16.8615C9.0629 23.9107 4.53023 27.2969 4.23272 27.3564C3.61224 27.4805 3.17471 27.338 2.62072 26.831C2.00877 26.2713 1.86834 25.4188 2.28028 24.7645C2.49343 24.4261 29.0889 3.94441 31.187 2.50284C31.614 2.20958 31.883 2.13102 32.4615 2.13102C32.8649 2.13102 33.3258 2.20093 33.4857 2.28651ZM43.2054 16.8694L53.6927 24.8762L53.7313 26.2957L53.7699 27.7153L53.1896 27.2811C51.304 25.8701 50.7752 25.673 49.8738 26.0457C49.3236 26.2733 47.1418 29.2348 47.0335 29.9011C46.9249 30.5696 47.078 31.0481 47.5382 31.4772L47.9359 31.8481L47.3946 32.6572C46.4781 34.0276 44.9689 34.8509 43.3734 34.8509C42.7795 34.8509 42.5822 34.9125 42.3116 35.1828C42.1288 35.3654 41.9784 35.563 41.9775 35.6222C41.9766 35.6813 41.5259 39.5628 40.9763 44.2477C40.0988 51.7256 39.9991 52.8091 40.1604 53.1212C40.3577 53.5027 40.607 53.6445 41.0803 53.6445C41.244 53.6445 44.1165 52.4277 47.4635 50.9404C50.8106 49.4532 53.5966 48.2363 53.6548 48.2363C53.7129 48.2363 53.7604 50.1282 53.7604 52.4407C53.7604 57.045 53.7451 57.1414 52.9425 57.6147C52.6 57.8169 50.8339 57.8359 32.5 57.8359C14.1661 57.8359 12.4 57.8169 12.0575 57.6147C11.1831 57.0991 11.2393 58.2591 11.242 40.7791L11.2445 24.9132L21.8366 16.8325C27.6624 12.3882 32.4939 8.77667 32.5734 8.80723C32.653 8.83765 37.4373 12.4656 43.2054 16.8694ZM55.9948 32.0155C58.7505 34.0424 60.986 35.765 60.9624 35.8436C60.912 36.0112 59.6894 37.6902 59.6176 37.6902C59.5908 37.6902 57.2716 36.006 54.464 33.9476C51.6565 31.8891 49.338 30.1895 49.3118 30.1707C49.2857 30.1518 49.5904 29.6816 49.9889 29.1255C50.4193 28.5251 50.7685 28.1583 50.849 28.2224C50.9234 28.2818 53.2391 29.9886 55.9948 32.0155ZM18.7738 31.5336C18.4861 31.636 18.0673 31.8919 17.843 32.1023C17.1229 32.7779 17.0188 33.2076 16.9547 35.7635L16.8963 38.0958H16.2285C15.6999 38.0958 15.4913 38.1651 15.2283 38.4278L14.8958 38.7596V44.174C14.8958 50.6381 14.7454 50.1292 16.6562 50.1292H17.875V50.7751C17.875 51.6915 18.1442 52.0221 18.8906 52.0221C19.637 52.0221 19.9062 51.6915 19.9062 50.7751V50.1292H25.6615H31.4167V50.7751C31.4167 51.6915 31.6859 52.0221 32.4323 52.0221C33.1787 52.0221 33.4479 51.6915 33.4479 50.7751V50.1292H34.6667C36.5775 50.1292 36.4271 50.6381 36.4271 44.174V38.7596L36.0946 38.4278C35.8317 38.1651 35.623 38.0958 35.0944 38.0958H34.4266L34.3682 35.7635C34.3258 34.0712 34.2528 33.3008 34.1021 32.9558C33.8328 32.3393 33.049 31.6581 32.4021 31.4789C31.575 31.2495 19.4349 31.2982 18.7738 31.5336ZM53.3209 35.7462C55.3128 37.2054 56.9969 38.449 57.0631 38.5097C57.1305 38.5715 56.9377 38.899 56.6248 39.2539C55.5124 40.5155 54.8842 42.4963 55.0381 44.2575L55.1215 45.2136L49.7613 47.5933C46.8133 48.9021 44.4199 49.9253 44.4428 49.867C44.4657 49.8087 45.5135 48.3676 46.7716 46.6645L49.0588 43.5682L49.5901 43.6187C50.7153 43.7258 52.0284 42.8218 52.4057 41.6804C52.7662 40.59 52.306 39.2552 51.3331 38.5691C50.8148 38.2036 50.6552 38.1634 49.7201 38.1634C48.5549 38.1634 48.119 38.3755 47.4294 39.2774C47.0972 39.7121 47.058 39.8741 47.0639 40.7892C47.0676 41.3528 47.1171 41.9389 47.1743 42.0915C47.2581 42.3158 46.8413 42.963 45.001 45.4663C43.1792 47.9444 42.7175 48.4971 42.6913 48.2309C42.6735 48.048 42.9492 45.4342 43.3041 42.4224L43.9493 36.9466L44.3522 36.9063C46.195 36.7219 48.3748 35.29 49.315 33.6463C49.4884 33.3432 49.6456 33.0948 49.6646 33.0943C49.6836 33.0936 51.3289 34.2871 53.3209 35.7462ZM32.0667 33.6611C32.1793 33.7736 32.2292 34.4783 32.2292 35.9596V38.0958H31.6381C30.877 38.0958 30.3333 38.4943 30.3333 39.0522C30.3333 39.2698 30.2823 39.4479 30.22 39.4479C30.1576 39.4479 29.5026 39.357 28.7643 39.2459C27.0466 38.9874 24.2763 38.9874 22.5587 39.2459C21.8204 39.357 21.1654 39.4479 21.1029 39.4479C21.0406 39.4479 20.9896 39.2698 20.9896 39.0522C20.9896 38.4943 20.4459 38.0958 19.6848 38.0958H19.0938V35.9596C19.0938 34.4783 19.1436 33.7736 19.2563 33.6611C19.4902 33.4274 31.8327 33.4274 32.0667 33.6611ZM50.1273 40.3477C50.4102 40.6034 50.4518 41.0748 50.2125 41.3137C49.8531 41.6726 49.0208 41.3543 49.0208 40.858C49.0208 40.6253 49.4991 40.1239 49.7211 40.1239C49.8083 40.1239 49.9911 40.2247 50.1273 40.3477ZM18.9583 42.9534V45.6478L19.3152 45.9279C19.6639 46.2019 19.8071 46.2082 25.6615 46.2082C31.5158 46.2082 31.6591 46.2019 32.0078 45.9279L32.3646 45.6478V42.9534V40.2591H33.3125H34.2604V44.1801V48.1011H25.6615H17.0625V44.1801V40.2591H18.0104H18.9583V42.9534ZM27.6285 41.2098C28.2597 41.2864 29.1265 41.4161 29.5547 41.4978L30.3333 41.6464V42.8456V44.0449H25.6615H20.9896V42.8433V41.6418L21.8359 41.4829C23.9628 41.0835 25.855 40.9943 27.6285 41.2098Z" fill="#FBECDB"/>
</svg>
