<svg width="62" height="60" viewBox="0 0 62 60" fill="none" xmlns="http://www.w3.org/2000/svg">
<path fill-rule="evenodd" clip-rule="evenodd" d="M29.2441 0.0346209C25.3567 0.43283 22.4968 1.72643 19.6707 4.36501C18.247 5.69437 18.0448 5.97127 18.0438 6.5944C18.0431 6.96662 18.1286 7.15053 18.4547 7.47917C18.8427 7.87018 18.9142 7.8941 19.6959 7.89447C20.9966 7.8952 23.2013 8.13061 24.4609 8.40324C26.5892 8.86406 28.0991 9.62362 29.2008 10.7876C30.4074 12.0624 30.8739 13.3848 30.8771 15.5382C30.8793 17.0645 30.5556 18.2958 29.7868 19.6852C29.2923 20.5786 28.2532 21.6588 15.1841 34.8645C2.67496 47.5043 1.07192 49.1665 0.737098 49.8438C0.195324 50.9402 0 51.8308 0 53.2048C0 55.2444 0.681516 56.821 2.15692 58.1952C3.34473 59.3013 5.08787 60 6.66016 60C8.10529 60 9.889 59.3355 11.0003 58.3831C11.3305 58.1001 17.0709 51.8 23.7569 44.3828C35.7849 31.0394 35.926 30.8885 37.1197 30.0946C39.4654 28.5345 41.3326 27.5488 42.7379 27.1286C43.8489 26.7964 43.8359 26.7872 43.8359 27.9204C43.8359 28.5539 43.9023 29.0497 44.0208 29.3015C44.1226 29.5175 45.7164 31.2097 47.5628 33.0621C50.5247 36.0335 50.9762 36.4405 51.3986 36.5197C51.7665 36.5887 51.9693 36.5558 52.2757 36.3776C52.5907 36.1944 60.5864 27.1304 61.7275 25.6629C61.9286 25.4045 62 25.1504 62 24.6937V24.0749L59.1187 21.1711L56.2374 18.2673H55.2437H54.25L54.2519 17.2605L54.254 16.2537L48.167 10.1483C44.2776 6.24708 41.6866 3.74591 40.9902 3.22018C39.0538 1.75853 36.9145 0.7987 34.5161 0.315674C33.3949 0.089782 30.3102 -0.074603 29.2441 0.0346209ZM32.6348 2.82014C34.5806 2.94339 36.7764 3.7065 38.5575 4.87843C39.4367 5.45701 40.4258 6.36985 43.4727 9.41482C45.5706 11.5114 48.2544 14.1808 49.4365 15.3467L51.5859 17.4665V18.6661C51.5859 20.6213 51.905 20.9522 53.7913 20.9522H54.9188L56.845 22.8962C58.6497 24.7176 58.7604 24.8558 58.5994 25.0853C58.505 25.2201 56.902 27.0875 55.0371 29.2351L51.6465 33.1398L49.0732 30.5557L46.5 27.9714V26.7034V25.4353L46.0788 25.0351C45.1859 24.1864 43.5024 24.0293 41.5957 24.617C40.3533 24.9999 38.0405 26.171 36.4492 27.2229L35.0566 28.1435L32.7389 25.8133L30.4211 23.483L31.0223 22.7362C33.0529 20.2139 33.9283 17.2312 33.5514 14.118C33.3893 12.7785 32.9 11.2448 32.3157 10.2449C31.8036 9.36844 30.4032 7.95952 29.5147 7.42658C27.9869 6.51044 25.6388 5.71353 23.8716 5.51131C22.6847 5.37561 22.6694 5.35779 23.3281 4.88294C24.2419 4.22406 25.8316 3.50794 27.1105 3.17893C28.1981 2.89909 30.4766 2.65319 31.3027 2.72653C31.5025 2.74423 32.102 2.78633 32.6348 2.82014ZM30.7501 27.7174C32.7916 29.7772 32.9655 29.9859 32.8074 30.1866C32.409 30.693 10.6671 54.7756 9.8408 55.6259C8.66983 56.8308 8.10953 57.1188 6.82303 57.1769C5.95285 57.2162 5.74808 57.1819 5.09938 56.8885C4.23804 56.499 3.38736 55.6478 3.00034 54.7883C2.80102 54.3455 2.7372 53.961 2.73175 53.1702C2.71831 51.2254 1.63089 52.4733 15.7858 38.19C22.7202 31.1927 28.4222 25.4676 28.4569 25.4676C28.4917 25.4676 29.5235 26.48 30.7501 27.7174Z" fill="#FBECDB"/>
</svg>
