<svg width="59" height="60" viewBox="0 0 59 60" fill="none" xmlns="http://www.w3.org/2000/svg">
<path fill-rule="evenodd" clip-rule="evenodd" d="M22.4702 0.13746C22.2111 0.282679 20.8091 1.81761 14.0368 9.36953L11.9297 11.7192V31.2077V50.6959L12.2101 51.442C12.5903 52.4537 13.6595 53.5198 14.7185 53.9433L15.4956 54.2541L24.6158 54.3193L33.7361 54.3845L32.2548 55.9335C31.4401 56.7855 30.7058 57.6094 30.6231 57.7644C30.4151 58.154 30.4348 58.778 30.6692 59.2294C31.0907 60.0406 30.3427 59.9997 44.7363 59.9997C59.1298 59.9997 58.3819 60.0406 58.8033 59.2294C58.9755 58.8979 59 57.1401 59 45.1144V31.3779L58.7189 31.0222C58.5643 30.8265 58.2403 30.5842 57.9988 30.4838C57.2386 30.1676 56.8122 30.3518 55.6794 31.4861L54.656 32.511L54.5912 17.8246L54.5264 3.13827L54.1807 2.49285C53.7137 1.62102 52.8724 0.838385 51.933 0.401823L51.1549 0.0402597L36.956 0.00837603C25.8066 -0.0166662 22.6956 0.0110868 22.4702 0.13746ZM51.3238 2.27302C51.6683 2.45619 52.0276 2.79878 52.2639 3.16951L52.6462 3.76975L52.6459 19.2022L52.6458 34.6347L44.1478 43.5092L35.6499 52.3837H26.1303C19.6556 52.3837 16.3963 52.338 15.9408 52.2407C15.1729 52.0768 14.3297 51.4087 14.0494 50.742C13.9057 50.4003 13.8747 47.0335 13.8747 31.7465V13.1664L15.0742 13.094C15.7339 13.0542 17.9946 12.989 20.0981 12.9492C23.5971 12.8828 23.969 12.8543 24.4696 12.613C25.0686 12.3244 25.5221 11.7119 25.6269 11.0499C25.6659 10.8035 25.3634 8.82699 24.9064 6.34264C24.4732 3.98725 24.1187 2.0257 24.1187 1.98362C24.1187 1.94166 30.1143 1.92282 37.4423 1.94192L50.7659 1.97652L51.3238 2.27302ZM23.063 7.07003C23.4284 9.09045 23.6809 10.7898 23.624 10.8465C23.5671 10.9032 22.1526 10.9791 20.4807 11.0153C18.8087 11.0515 16.9016 11.1076 16.2426 11.14L15.0447 11.1989L18.6399 7.2057C20.6173 5.00934 22.2719 3.2538 22.3169 3.3044C22.3618 3.355 22.6976 5.04948 23.063 7.07003ZM3.95922 7.60844C3.67628 7.6744 3.31178 7.8528 3.14904 8.00498C2.98644 8.15705 2.21127 9.49668 1.42663 10.9819L0 13.6822V27.4952V41.3083L0.429209 41.7356C1.09053 42.3939 1.58081 42.4657 5.10162 42.4203C7.95826 42.3833 8.27284 42.357 8.6743 42.1216C8.91652 41.9796 9.22968 41.7098 9.37037 41.522C9.61998 41.1885 9.62763 40.8571 9.69506 27.501L9.76405 13.8216L8.40225 11.0616C7.65327 9.54366 6.90054 8.17447 6.7295 8.01905C6.19798 7.53589 5.01954 7.36124 3.95922 7.60844ZM6.32688 11.3064C6.84685 12.3201 7.23729 13.206 7.19437 13.275C7.10749 13.4151 2.68962 13.4531 2.55075 13.315C2.4732 13.2378 4.12819 9.95647 4.44795 9.5536C4.52122 9.46118 4.76124 9.40309 4.98129 9.42452C5.35564 9.46092 5.442 9.58161 6.32688 11.3064ZM40.0145 14.8081C39.7574 15.0908 37.8685 21.0303 37.8657 21.565C37.8646 21.7601 37.9804 22.0361 38.1231 22.1781C38.3643 22.4182 38.5553 22.4363 40.8462 22.4363H43.3099V27.197V31.9576L42.1104 32.0113C40.0668 32.1029 39.8087 32.4573 39.8091 35.1705C39.8092 37.2307 39.9586 37.7105 40.7165 38.0874C41.1107 38.2835 41.5791 38.3132 44.2824 38.3132C47.7954 38.3132 48.1091 38.2465 48.5289 37.41C48.8517 36.7666 48.8589 33.5985 48.539 32.9274C48.2305 32.2805 47.5353 31.9949 46.2599 31.9913L45.2549 31.9885V27.2124V22.4363H47.7187C50.0096 22.4363 50.2006 22.4182 50.4418 22.1781C50.5844 22.0361 50.6994 21.7601 50.6975 21.565C50.692 21.0233 48.8075 15.0909 48.5516 14.8094C48.3393 14.5759 48.1026 14.5622 44.2824 14.5622C40.47 14.5622 40.2252 14.5763 40.0145 14.8081ZM7.78022 25.8893V36.5064H4.86264H1.94506V25.8893V15.2721H4.86251H7.78009L7.78022 25.8893ZM47.2 16.5529C47.2 16.5829 47.4626 17.4493 47.7835 18.4783C48.1045 19.5072 48.367 20.3831 48.367 20.4246C48.367 20.4661 46.529 20.5 44.2824 20.5C42.0359 20.5 40.1983 20.4564 40.199 20.4032C40.1996 20.35 40.4622 19.4734 40.7825 18.4553C41.1028 17.4373 41.3648 16.5804 41.3648 16.5514C41.3648 16.5222 42.6777 16.4984 44.2824 16.4984C45.8871 16.4984 47.2 16.523 47.2 16.5529ZM4.34396 17.6854C4.20132 17.7659 4.04169 17.8949 3.98931 17.9719C3.93692 18.049 3.89322 21.7279 3.89206 26.1474C3.89011 34.0121 3.89556 34.1883 4.14945 34.4411C4.47713 34.7673 5.06726 34.7724 5.46418 34.4526L5.77033 34.2059L5.81001 26.4816C5.83763 21.0942 5.80612 18.6092 5.70575 18.2675C5.51384 17.6141 4.91995 17.3602 4.34396 17.6854ZM21.9616 17.6717C21.2762 17.8694 20.3197 18.5979 19.9428 19.2092C19.4513 20.006 19.3209 20.842 19.3205 23.1961L19.3202 25.2116L18.3758 25.2189C15.7741 25.2391 14.0224 27.5656 14.6495 30.1679C14.9404 31.3747 16.0703 32.5562 17.2786 32.9169L17.7648 33.0621L17.7651 35.2682C17.7652 37.1118 17.8026 37.5481 17.992 37.9219C18.2766 38.4838 18.8475 38.8169 19.6973 38.9171C20.3571 38.9948 20.3582 38.9958 20.3582 39.4659C20.3582 40.1027 20.8357 40.99 21.4328 41.4628C22.1167 42.0044 23.3073 42.092 24.1918 41.6658C24.9316 41.3092 25.5063 40.4735 25.6252 39.5813L25.7082 38.959H27.3123H28.9165V39.448C28.9165 40.1037 29.3887 40.9857 29.9983 41.4687C30.4571 41.8321 30.5761 41.8634 31.499 41.8634C32.3512 41.8634 32.5711 41.8158 32.9667 41.546C33.5942 41.1179 34.0835 40.3319 34.1819 39.5936L34.2629 38.9851L34.9751 38.8964C35.8673 38.7855 36.5215 38.2463 36.7005 37.4745C36.7663 37.1906 36.8216 36.0838 36.8233 35.0152L36.8264 33.0721L37.4689 32.8421C37.8222 32.7156 38.3733 32.3826 38.6935 32.1021C40.4151 30.5935 40.4429 27.7628 38.7511 26.2413C37.94 25.5118 37.1844 25.2218 36.0809 25.2162L35.141 25.2116L35.1408 22.8788C35.1407 20.0457 35.0243 19.593 34.0469 18.6199C32.9599 17.5378 32.9055 17.5292 27.2401 17.5427C24.5605 17.5492 22.1852 17.6071 21.9616 17.6717ZM32.2799 19.7032C33.1205 20.152 33.1956 20.4723 33.1956 23.6082C33.1956 26.1889 33.1771 26.4145 32.9482 26.6207C32.5406 26.9879 32.1252 28.1217 32.0574 29.0518L31.9937 29.9231H27.2134H22.433L22.4322 29.1809C22.4313 28.1902 22.2566 27.6193 21.7047 26.8029L21.2444 26.1219L21.2876 23.4018C21.3353 20.3948 21.3775 20.227 22.213 19.7198C22.6032 19.483 22.8967 19.4683 27.2328 19.4679C31.446 19.4674 31.8757 19.4875 32.2799 19.7032ZM19.5802 27.4509C19.7585 27.5813 20.0356 27.88 20.1962 28.1147C20.4842 28.5359 20.4879 28.5968 20.4879 32.7821V37.0228H20.0989H19.7099V34.3765C19.7099 31.3224 19.7057 31.3105 18.5703 31.1767C17.3071 31.0278 16.6044 30.3855 16.498 29.2826C16.4119 28.3913 16.7832 27.7726 17.7003 27.2794C18.1791 27.0219 19.1095 27.1068 19.5802 27.4509ZM36.9103 27.3506C37.787 27.7731 38.2447 28.736 37.9996 29.6421C37.7596 30.5292 36.7731 31.214 35.7352 31.214C35.5264 31.214 35.2489 31.3102 35.1185 31.4276C34.9032 31.6215 34.8813 31.8892 34.8813 34.332V37.0228H34.4275H33.9736V32.9194C33.9736 28.9208 33.981 28.8014 34.2654 28.2402C34.4786 27.8193 34.713 27.586 35.1357 27.3737C35.8523 27.014 36.2023 27.0095 36.9103 27.3506ZM32.0286 34.4411V37.0228H27.2308H22.433V34.4411V31.8594H27.2308H32.0286V34.4411ZM57.0116 58.0204C56.9871 58.0448 51.5782 58.05 44.9917 58.0318L33.0161 57.9989L45.0031 45.4752L56.9901 32.9513L57.0232 45.4637C57.0413 52.3455 57.0361 57.996 57.0116 58.0204ZM46.811 35.151V36.3773H44.2824H41.7538V35.151V33.9247H44.2824H46.811V35.151ZM7.73302 39.0416C7.68764 39.3709 7.65055 39.8356 7.65055 40.0743V40.508H4.7978H1.94506V39.4753V38.4427H4.88027H7.81549L7.73302 39.0416ZM23.7297 39.1884C23.7297 39.5469 23.3543 39.9917 23.0518 39.9917C22.6764 39.9917 22.3033 39.6278 22.3033 39.2617C22.3033 38.9808 22.3548 38.959 23.0165 38.959C23.6135 38.959 23.7297 38.9964 23.7297 39.1884ZM32.2879 39.1884C32.2879 39.5626 31.9079 39.9917 31.5767 39.9917C31.1804 39.9917 30.8615 39.6709 30.8615 39.2725C30.8615 38.9786 30.906 38.959 31.5747 38.959C32.1717 38.959 32.2879 38.9964 32.2879 39.1884ZM52.9868 41.4439C52.8097 41.6037 50.0347 44.4878 46.8203 47.853C41.6323 53.2845 40.9758 54.0178 40.9758 54.3815C40.9758 54.6429 41.0845 54.893 41.2759 55.072C41.5754 55.3521 41.5883 55.3526 47.7954 55.3526C53.2146 55.3526 54.0519 55.3268 54.303 55.1517L54.5912 54.9508V48.3102C54.5912 41.8418 54.5845 41.6631 54.3319 41.4116C53.9876 41.0689 53.3868 41.0832 52.9868 41.4439ZM52.6028 53.3734C52.577 53.3991 50.6994 53.4048 48.4303 53.3859L44.3046 53.3518L48.4429 49.0341L52.5813 44.7164L52.6156 49.0216C52.6344 51.3895 52.6287 53.3478 52.6028 53.3734Z" fill="#FBECDB"/>
</svg>
