<svg width="39" height="60" viewBox="0 0 39 60" fill="none" xmlns="http://www.w3.org/2000/svg">
<path fill-rule="evenodd" clip-rule="evenodd" d="M15.525 0.256501C9.68552 1.47255 4.75627 5.24219 2.11845 10.5093C0.931743 12.8789 0.399494 14.6536 0.113553 17.1942C-0.54256 23.0219 1.67173 28.9727 6.05264 33.1549C8.73093 35.7118 11.8223 37.3121 15.7568 38.1782L16.0821 38.2499V39.7527V41.2553L15.6437 41.5388C15.4026 41.6948 15.0964 42.0071 14.9634 42.2328C14.7295 42.6298 14.7204 42.8449 14.6858 48.8004C14.6466 55.5129 14.7029 56.431 15.2186 57.4789C15.6336 58.3225 16.5565 59.2256 17.4426 59.6553C18.0967 59.9727 18.2546 59.9996 19.4537 60C20.6706 60.0004 20.8066 59.9762 21.5478 59.6281C23.058 58.9188 24.0244 57.5748 24.2542 55.8641C24.3288 55.3087 24.3621 52.5725 24.3401 48.8004C24.3054 42.8449 24.2963 42.6298 24.0624 42.2328C23.9294 42.0071 23.6232 41.6948 23.3821 41.5388L22.9437 41.2553V39.7527V38.2499L23.269 38.1795C27.4421 37.2762 30.7435 35.4793 33.5362 32.591C36.0048 30.0379 37.5018 27.3777 38.3892 23.9676C39.9254 18.0647 38.5214 11.6808 34.6556 6.99103C31.8334 3.56735 27.7684 1.1267 23.4278 0.249816C21.764 -0.0863006 17.1527 -0.0824305 15.525 0.256501ZM20.9723 2.01367C29.5085 2.75603 36.2744 9.53395 36.8884 17.9582C37.1169 21.0908 36.5198 24.1191 35.1279 26.8889C32.7128 31.6947 28.3416 35.0385 22.9437 36.2095C21.5019 36.5223 17.5239 36.5223 16.0821 36.2095C8.89596 34.6505 3.57619 29.1965 2.28218 22.0612C2.01292 20.5767 2.01245 17.9203 2.28123 16.4318C3.77849 8.13929 10.6328 2.26065 19.2171 1.90647C19.4123 1.8985 20.2021 1.9467 20.9723 2.01367ZM19.0773 4.75831C18.5193 4.99896 18.3043 5.8864 18.5723 6.84303C18.71 7.3343 18.9667 7.51878 19.5129 7.51878C20.0591 7.51878 20.3158 7.3343 20.4535 6.84303C20.7279 5.86376 20.5072 4.99556 19.9226 4.75338C19.4503 4.55776 19.5438 4.55718 19.0773 4.75831ZM18.389 9.39838C13.2572 9.94759 9.58472 14.1437 10.0572 18.918C10.2367 20.7318 10.8276 22.0884 12.168 23.7638C13.9954 26.0479 14.8991 28.8909 14.8991 32.3565C14.8991 33.1691 14.9317 33.3092 15.1728 33.5339C15.443 33.7855 15.5004 33.7889 19.5295 33.7889H23.6122L23.8696 33.5175C24.081 33.2943 24.1268 33.1057 24.1268 32.4573C24.1268 28.9395 25.0746 26.0515 27.0574 23.5281C28.3863 21.8368 28.9799 20.1943 28.9892 18.1829C29.0005 15.7012 28.1438 13.7122 26.3259 12.0005C25.2674 11.0038 24.1424 10.3347 22.7431 9.87007C21.8391 9.56972 19.9607 9.24709 19.3946 9.29482C19.297 9.30303 18.8445 9.34971 18.389 9.39838ZM8.20116 9.91522C7.9655 10.017 7.7852 10.2091 7.70109 10.4485C7.51866 10.967 7.73469 11.4259 8.48864 12.1219C9.00208 12.5959 9.16333 12.679 9.57029 12.679C10.2087 12.679 10.5218 12.3685 10.5218 11.7357C10.5218 11.3323 10.438 11.1724 9.95986 10.6634C9.65074 10.3345 9.22662 9.99368 9.01722 9.90619C8.56979 9.71913 8.65805 9.71819 8.20116 9.91522ZM29.9828 9.91088C29.7876 9.99603 29.3751 10.3347 29.0659 10.6636C28.5876 11.1726 28.504 11.3322 28.504 11.7357C28.504 12.3685 28.8171 12.679 29.4555 12.679C29.8625 12.679 30.0237 12.5959 30.5372 12.1219C31.2912 11.4258 31.5071 10.967 31.3246 10.4481C31.2362 10.1968 31.0633 10.0199 30.7987 9.91029C30.3362 9.71878 30.4238 9.71866 29.9828 9.91088ZM21.5241 11.5848C24.7365 12.4092 26.9792 15.0978 26.9792 18.1246C26.9792 19.7425 26.5934 20.7435 25.3267 22.413C23.4159 24.9315 22.5004 27.4223 22.1699 31.0035L22.0968 31.7952H21.3371H20.5776V28.3398V24.8844L21.6128 23.9934C22.2335 23.4591 22.7045 22.9527 22.7892 22.7283C22.9671 22.257 22.9906 18.6559 22.8196 18.0458C22.7521 17.8047 22.5961 17.554 22.4731 17.4888C22.1842 17.3355 21.5094 17.3368 21.099 17.4914C20.8235 17.5954 20.7324 17.571 20.4702 17.323C20.0292 16.9061 19.5835 16.763 19.1876 16.9113C19.0087 16.9784 18.7243 17.1637 18.5556 17.323C18.2934 17.571 18.2023 17.5954 17.9268 17.4914C17.3927 17.2902 16.7013 17.3426 16.437 17.6046C16.1197 17.9192 16.1158 18.6935 16.4299 19.0049C16.6568 19.2298 18.0875 19.716 18.5201 19.7151C18.6432 19.7149 18.917 19.6102 19.1284 19.4823C19.5117 19.2507 19.5141 19.2507 19.8974 19.4823C20.1089 19.6102 20.4283 19.7149 20.6072 19.7151L20.9325 19.7156V20.8005V21.8855L19.7842 22.8822C19.1446 23.4373 18.5995 24.0089 18.5538 24.1721C18.5086 24.3334 18.4665 26.1146 18.46 28.1303L18.4482 31.7952H17.6792C17.0135 31.7952 16.9102 31.7664 16.9102 31.581C16.9102 30.8218 16.6075 28.6367 16.3781 27.7391C15.8387 25.6298 15.047 24.0601 13.6595 22.3487C12.916 21.4317 12.3953 20.4299 12.1768 19.4965C11.9649 18.5908 12.0808 16.7734 12.4009 15.9843C13.7974 12.5429 17.7777 10.6235 21.5241 11.5848ZM5.83508 19.2974C5.36991 19.4982 5.1559 20.0296 5.33501 20.539C5.50608 21.0254 5.74884 21.1229 6.78743 21.1229C7.52482 21.1229 7.72416 21.0817 7.91912 20.8884C8.17572 20.634 8.23807 19.9701 8.03991 19.6029C7.79893 19.1564 6.55981 18.9847 5.83508 19.2974ZM31.3906 19.2967C30.9777 19.4748 30.8701 19.6727 30.8701 20.253C30.8701 20.9219 31.1863 21.1229 32.2384 21.1229C33.277 21.1229 33.5197 21.0254 33.6908 20.539C33.8752 20.0145 33.6565 19.4962 33.1648 19.2925C32.6705 19.0878 31.8702 19.0897 31.3906 19.2967ZM20.8142 39.8873V41.2946H19.4537H18.0933V39.8873V38.48H19.4537H20.8142V39.8873ZM22.3283 49.5334C22.296 55.3637 22.2752 55.9348 22.08 56.3648C21.0726 58.5832 18.1582 58.6511 16.987 56.4836C16.7371 56.021 16.7322 55.9031 16.6967 49.592L16.6606 43.1711H19.5121H22.3636L22.3283 49.5334Z" fill="#FBECDB"/>
</svg>
