<svg width="30" height="30" viewBox="0 0 30 30" fill="none" xmlns="http://www.w3.org/2000/svg">
<path fill-rule="evenodd" clip-rule="evenodd" d="M1.65378 0.458524C1.24287 0.710231 0.702013 1.25372 0.451525 1.66663C0.0275517 2.36533 -0.00361562 2.8312 0.000280351 8.40468C0.00394715 13.7645 0.0493231 14.4887 0.432732 15.3134C0.887415 16.2917 13.6062 29.1722 14.6503 29.7123C15.5234 30.1636 17.3997 30.0711 18.4452 29.525C19.7322 28.8528 29.2166 19.2295 29.664 18.1418C30.1129 17.0507 30.112 15.8748 29.6612 14.7879C29.182 13.6313 16.7394 1.08215 15.4485 0.452997C14.5932 0.036172 14.0205 -0.000904976 8.45866 1.61846e-05C2.81798 0.000707055 2.34909 0.0322571 1.65378 0.458524ZM8.80724 5.66907C9.30752 5.86205 9.84883 6.96237 9.84883 7.78635C9.84883 9.89282 6.79462 10.6086 5.82751 8.72916C5.34005 7.78198 5.4182 7.03423 6.08785 6.23466C6.56018 5.67045 6.86017 5.52606 7.55869 5.52606C8.04134 5.52606 8.60327 5.59054 8.80724 5.66907Z" fill="#FF7433"/>
</svg>
