<svg width="26" height="30" viewBox="0 0 26 30" fill="none" xmlns="http://www.w3.org/2000/svg">
<path fill-rule="evenodd" clip-rule="evenodd" d="M6.79104 0.188795C5.94779 0.523428 5.63599 1.13166 5.63113 2.45037L5.62687 3.65348L3.82375 3.73336C0.783299 3.8678 0 4.67465 0 7.67163V9.39209H13H26V7.55661C26 5.97569 25.9395 5.63144 25.5634 5.07405C24.8556 4.0252 24.0304 3.70038 22.074 3.70038H20.3731V2.50983C20.3731 1.85509 20.2833 1.14952 20.1733 0.941867C19.8747 0.37721 18.8828 -0.0736128 18.2491 0.0671098C17.2964 0.278881 16.8501 0.970129 16.7357 2.41111L16.6334 3.70038H12.9734H9.31343V2.7483C9.31343 1.45078 9.01987 0.701245 8.35628 0.304788C7.72937 -0.0698833 7.48781 -0.0877434 6.79104 0.188795ZM0.000387847 19.5488C0.000581876 28.685 -0.00446292 28.6471 1.33842 29.5545L1.99773 30H12.9831C23.252 30 24.0118 29.9766 24.6298 29.6414C26.0039 28.896 26 28.9241 26 19.6501V11.3547H13H0L0.000387847 19.5488ZM7.1403 15.3193C7.27767 15.4583 7.37313 16.1262 7.37313 16.9483C7.37313 17.7705 7.27767 18.4384 7.1403 18.5773C7.00719 18.712 6.36981 18.8129 5.6519 18.8129C3.97451 18.8129 3.68657 18.5477 3.68657 17.0031C3.68657 15.229 3.82355 15.0838 5.49784 15.0838C6.33546 15.0838 7.00196 15.1794 7.1403 15.3193ZM14.7395 15.4634C15.0484 16.0475 14.9849 17.8761 14.6382 18.3766C14.3763 18.755 14.1605 18.8129 13.0128 18.8129C11.3581 18.8129 11.1567 18.6105 11.1567 16.9483C11.1567 15.265 11.3469 15.0838 13.1139 15.0838C14.3239 15.0838 14.5689 15.1411 14.7395 15.4634ZM22.0806 15.3193C22.4388 15.6816 22.3835 18.1251 22.0086 18.5045C21.5841 18.9338 19.3562 18.9338 18.9317 18.5045C18.5568 18.1251 18.5015 15.6816 18.8597 15.3193C19.1688 15.0067 21.7715 15.0067 22.0806 15.3193ZM7.1403 22.7774C7.27767 22.9164 7.37313 23.5843 7.37313 24.4064C7.37313 25.2286 7.27767 25.8965 7.1403 26.0354C7.00196 26.1754 6.33546 26.271 5.49784 26.271C3.8286 26.271 3.68657 26.123 3.68657 24.3856C3.68657 22.8112 3.96849 22.5419 5.61813 22.5419C6.36224 22.5419 7.00584 22.6414 7.1403 22.7774ZM14.5854 22.8667C14.853 23.1117 14.9403 23.4769 14.9403 24.3517C14.9403 26.1328 14.8074 26.271 13.0947 26.271C11.7667 26.271 11.6251 26.2313 11.3313 25.7779C10.9586 25.2025 11.0259 23.3503 11.4381 22.8483C11.7993 22.4077 14.0988 22.4212 14.5854 22.8667ZM22.0086 22.8502C22.3835 23.2296 22.4388 25.6731 22.0806 26.0354C21.9432 26.1744 21.2829 26.271 20.4701 26.271C19.6574 26.271 18.9971 26.1744 18.8597 26.0354C18.7247 25.8988 18.6269 25.2447 18.6269 24.4792C18.6269 22.7611 18.8354 22.5419 20.4701 22.5419C21.3328 22.5419 21.7954 22.6345 22.0086 22.8502Z" fill="#FF7433"/>
</svg>
