<svg width="30" height="30" viewBox="0 0 30 30" fill="none" xmlns="http://www.w3.org/2000/svg">
<path fill-rule="evenodd" clip-rule="evenodd" d="M20.2227 0.4162C19.8493 0.651766 18.8846 1.52127 18.0789 2.34825L16.614 3.85169L18.1355 5.39197C19.7273 7.00341 20.0138 7.73626 19.2192 8.16351C18.9783 8.29289 18.7128 8.39885 18.6291 8.39885C18.5454 8.39885 17.7439 7.68465 16.8478 6.81196L15.2187 5.22484L13.9992 6.46543L12.7799 7.70579L14.4211 9.40637C15.8642 10.9014 16.0326 11.1631 15.8146 11.5719C15.3757 12.3957 14.6607 12.1217 13.0431 10.5089L11.5104 8.98117L10.2694 10.2124L9.02836 11.4437L10.6082 13.0804C12.2041 14.7339 12.4094 15.1341 11.9162 15.6295C11.3639 16.1844 10.7069 15.8815 9.1954 14.3744L7.66265 12.8466L6.41576 14.0838L5.16887 15.3208L6.75459 16.9245C8.34279 18.5307 8.57546 18.9857 8.06847 19.495C7.5608 20.005 7.08413 19.7699 5.62403 18.2899C4.82212 17.477 4.05326 16.8119 3.91565 16.8119C3.77803 16.8119 2.89758 17.6048 1.95897 18.5741C-0.948098 21.5758 -0.839456 22.0585 3.7769 26.6591L7.12917 30H8.35116H9.57315L19.5999 19.9384C30.6881 8.81154 30.4907 9.06166 29.653 7.20237C29.1445 6.07388 23.7276 0.600833 22.7489 0.227019C21.8173 -0.128831 20.9875 -0.0667565 20.2227 0.4162Z" fill="#FF7433"/>
</svg>
