<svg width="21" height="30" viewBox="0 0 21 30" fill="none" xmlns="http://www.w3.org/2000/svg">
<path fill-rule="evenodd" clip-rule="evenodd" d="M9.43872 0.0406661C3.85951 0.600549 -0.408552 5.49687 0.0311568 10.8329C0.247378 13.4573 0.82107 14.8276 2.87872 17.6331C3.61723 18.6401 4.55798 20.148 4.96915 20.9839L5.71688 22.5038L10.5223 22.5096L15.3277 22.5153L15.6232 21.7544C16.0032 20.7753 17.1346 18.9314 18.3399 17.3271C20.363 14.6342 21.1921 12.152 20.963 9.47498C20.8391 8.02968 20.251 6.172 19.5308 4.95111C18.4472 3.11453 15.796 1.08197 13.5726 0.382942C12.6127 0.0812925 10.6517 -0.08104 9.43872 0.0406661ZM11.1224 4.03273C11.3174 4.22453 11.4769 4.49916 11.4769 4.64301C11.4769 5.07717 10.8016 5.60201 10.243 5.60201C9.27088 5.60201 7.82734 6.27035 7.08262 7.06545C6.15624 8.05409 5.99372 8.37876 5.78405 9.65946C5.57616 10.9295 5.40106 11.1817 4.7267 11.1817C4.03869 11.1817 3.78738 10.6661 3.90914 9.5048C4.19146 6.81262 6.46161 4.4036 9.22073 3.86778C10.4224 3.63448 10.7462 3.66256 11.1224 4.03273ZM5.62827 24.75C5.62827 25.3731 6.02012 27.1374 6.25992 27.5935C6.66188 28.3583 7.6051 29.1727 8.6162 29.6282C9.41515 29.988 9.75721 30.0437 10.744 29.9739C12.2076 29.8705 13.1547 29.4111 14.1135 28.3394C14.8669 27.4974 15.095 26.9232 15.3015 25.3487L15.4217 24.4333H10.525C5.91148 24.4333 5.62827 24.4516 5.62827 24.75Z" fill="#FF7433"/>
</svg>
