<svg width="71" height="70" viewBox="0 0 71 70" fill="none" xmlns="http://www.w3.org/2000/svg">
<rect x="3" y="2.5" width="65" height="65" rx="32.5" fill="#1B1925"/>
<rect x="3" y="2.5" width="65" height="65" rx="32.5" stroke="#FF7433" stroke-width="5"/>
<path fill-rule="evenodd" clip-rule="evenodd" d="M34.437 16.1025C30.1152 16.798 26.4967 19.9326 25.0932 24.1969C24.3035 26.5961 24.3022 29.4309 25.0897 31.8491C25.902 34.3439 27.5974 36.6082 29.7459 38.0679L30.4161 38.5232L29.2865 38.5603C28.2058 38.5958 28.1508 38.6051 28.0177 38.7738C27.9411 38.8708 27.8588 39.0307 27.8347 39.129C27.8016 39.2641 29.0931 46.9526 29.3071 47.8946C29.3443 48.0585 29.3324 48.0617 28.6862 48.0617C27.7053 48.0617 27.7638 47.9767 26.834 50.758C26.4133 52.0164 26.0691 53.1631 26.0691 53.306C26.0691 53.4944 26.1274 53.6258 26.2808 53.783L26.4926 54H29.9659H33.4392L33.6221 53.8126C33.9376 53.4894 33.9376 53.026 33.6221 52.7028L33.4392 52.5154H30.652C28.0272 52.5154 27.8676 52.5078 27.9136 52.3855C27.9405 52.3141 28.16 51.6625 28.4015 50.9377L28.8405 49.6198L36.2719 49.6387L43.7034 49.6576L44.1846 51.0865L44.6657 52.5154H41.8978H39.1299L38.9388 52.7111C38.6665 52.99 38.6665 53.5254 38.9388 53.8043L39.1299 54H42.5661C44.7844 54 46.0518 53.9729 46.1417 53.9235C46.3035 53.8349 46.5 53.4773 46.5 53.2717C46.5 53.1938 46.1412 52.0648 45.7025 50.7629C45.0879 48.9381 44.8628 48.3574 44.7205 48.2287C44.5579 48.0817 44.4571 48.0617 43.8797 48.0617H43.2236L43.2656 47.8204C43.2887 47.6877 43.6363 45.7141 44.038 43.4346C44.6627 39.8897 44.7568 39.2543 44.6887 39.0426C44.5286 38.5457 44.6509 38.5603 40.6341 38.5603H37.009V37.7112V36.8622L37.3532 36.8154C41.6748 36.2284 44.9055 32.4658 44.9055 28.0197C44.9055 23.9103 42.0934 20.2868 38.2316 19.4201C37.858 19.3363 37.4302 19.2479 37.2807 19.2237L37.009 19.1797V17.8041V16.4285L36.7973 16.2115C36.5882 15.9973 36.5756 15.9946 35.8011 16.0019C35.3696 16.0059 34.7558 16.0512 34.437 16.1025ZM35.4876 18.3685C35.4876 19.2976 35.5855 19.1839 34.6544 19.3356C31.7422 19.8102 29.0143 22.2526 28.0635 25.2368C27.4897 27.038 27.517 29.354 28.132 31.028C29.2958 34.1961 31.8726 36.3133 35.1797 36.819L35.4876 36.8661V37.6761C35.4876 38.62 35.5684 38.5619 34.5183 38.3742C33.2302 38.1441 31.842 37.5831 30.7388 36.8469C28.3476 35.2514 26.8085 32.934 26.2072 30.0239C25.9952 28.9978 25.977 27.1982 26.1687 26.2038C26.591 24.0123 27.5322 22.1818 29.0365 20.6261C30.5108 19.1014 32.4543 18.0579 34.5457 17.668C34.8446 17.6123 35.1788 17.5637 35.2883 17.5601L35.4876 17.5534V18.3685ZM37.9147 20.93C39.5032 21.3691 40.8506 22.2484 41.7889 23.4582C44.9798 27.5722 43.1465 33.4908 38.2 35.0448C37.6059 35.2315 37.4507 35.2486 36.3208 35.2527C34.9853 35.2575 34.718 35.2103 33.6199 34.7765C32.5174 34.3409 31.2823 33.3458 30.4847 32.2508C30.3212 32.0263 30.0447 31.5419 29.8703 31.1745C27.8632 26.9454 30.2963 21.9028 34.8355 20.8841C35.5925 20.7142 37.2221 20.7385 37.9147 20.93ZM35.7412 22.7648C35.3372 22.9094 35.0908 23.1743 34.5964 23.9949L34.1036 24.8127L33.2923 25.0166C32.3784 25.2463 32.061 25.3882 31.7783 25.6932C31.3585 26.1465 31.2387 26.8926 31.4941 27.463C31.5672 27.6263 31.8755 28.0606 32.1794 28.428L32.7317 29.0961L32.6863 30.1728C32.6445 31.1653 32.6525 31.2725 32.7897 31.546C33.0878 32.14 33.6095 32.4743 34.2355 32.4725C34.481 32.4717 34.8347 32.3663 35.4487 32.1108L36.3153 31.7502L37.0788 32.0867C37.7331 32.375 37.9155 32.4241 38.3547 32.4298C39.0423 32.4387 39.476 32.1812 39.7831 31.5816C39.9894 31.179 39.9912 31.1646 39.9442 30.2837C39.918 29.7938 39.8816 29.338 39.8631 29.2706C39.8421 29.1943 40.0442 28.888 40.4018 28.4541C40.7166 28.0724 41.0331 27.643 41.1051 27.5001C41.2739 27.1657 41.2805 26.4362 41.1176 26.1172C40.7944 25.4839 40.4394 25.2692 39.2912 25.0124C38.9724 24.9411 38.6579 24.8544 38.5922 24.8196C38.5266 24.785 38.276 24.4301 38.0353 24.0311C37.5434 23.2158 37.3117 22.9578 36.9208 22.7905C36.6168 22.6604 36.0662 22.6483 35.7412 22.7648ZM36.8609 25.0874C37.4844 26.1108 37.6176 26.2073 38.8439 26.5235C39.3152 26.645 39.7112 26.7558 39.724 26.7697C39.7368 26.7836 39.4733 27.129 39.1386 27.5372C38.3449 28.5052 38.2906 28.6788 38.3898 29.9305C38.4303 30.4415 38.4498 30.8735 38.4333 30.8906C38.4167 30.9076 38.016 30.7624 37.543 30.5677C36.4016 30.0982 36.1711 30.0981 35.0676 30.567C34.6174 30.7582 34.2309 30.9147 34.2088 30.9147C34.1866 30.9147 34.1917 30.438 34.2201 29.8554C34.2833 28.5603 34.2682 28.5143 33.4588 27.528C33.1353 27.1338 32.897 26.7866 32.9294 26.7565C32.9616 26.7264 33.379 26.6057 33.8568 26.4885C34.9675 26.216 35.1443 26.0817 35.7717 25.0346C36.0338 24.5972 36.2692 24.238 36.2946 24.2366C36.3201 24.2352 36.5749 24.618 36.8609 25.0874ZM42.3691 44.0718L41.6716 48.0245L36.2789 48.0435L30.8863 48.0626L30.2058 44.1836C29.8316 42.0502 29.5104 40.263 29.492 40.2119C29.4655 40.1381 30.85 40.1191 36.2626 40.1191H43.0665L42.3691 44.0718ZM33.3683 42.0137C33.1488 42.2386 33.0897 42.4992 33.1811 42.8384C33.3163 43.3403 33.3457 43.3456 36.1382 43.3701C39.0134 43.3955 39.1336 43.3784 39.3549 42.914C39.4702 42.672 39.4784 42.5854 39.4087 42.347C39.2545 41.8198 39.2945 41.8264 36.2608 41.8264H33.5512L33.3683 42.0137ZM35.148 44.7992C34.6082 44.9684 34.4347 45.6582 34.8299 46.0632L35.0417 46.2801H36.2845H37.5273L37.7391 46.0632C38.0343 45.7607 38.0347 45.3394 37.7401 45.0015L37.5292 44.7598L36.4541 44.7433C35.8627 44.7342 35.275 44.7594 35.148 44.7992ZM35.7476 52.7438C35.3364 53.2444 35.6219 54 36.2222 54C36.7638 54 37.0445 53.7222 37.03 53.2003C37.0192 52.8083 36.6871 52.5154 36.2536 52.5154C35.987 52.5154 35.9047 52.5525 35.7476 52.7438Z" fill="#FBECDB"/>
</svg>
