<svg width="30" height="30" viewBox="0 0 30 30" fill="none" xmlns="http://www.w3.org/2000/svg">
<path fill-rule="evenodd" clip-rule="evenodd" d="M12.3353 0.241947C6.90672 1.21927 2.43015 5.09767 0.676442 10.3431C0.198412 11.7732 0.0970486 12.3708 0.0206335 14.21C-0.0828235 16.7035 0.194748 18.4604 1.03531 20.629C3.11597 25.9975 8.994 29.9922 14.8244 30C16.0786 30.0017 16.8433 29.7419 17.5694 29.0668C18.9498 27.7837 19.0834 26.3127 18.0447 23.8389C17.4932 22.5256 17.4007 22.13 17.4647 21.3581C17.5455 20.3842 17.8939 19.7707 18.7116 19.1626C19.156 18.8321 19.5018 18.7979 23.2369 18.7162C26.9444 18.6349 27.339 18.5965 27.9788 18.2546C29.6939 17.3382 30.1643 16.2341 29.9527 13.6205C29.6709 10.1371 28.1981 7.00979 25.6413 4.46562C22.0592 0.901424 17.2142 -0.636603 12.3353 0.241947ZM16.207 4.28751C16.8332 4.91054 17.0035 5.55248 16.722 6.22845C15.8204 8.39453 12.4962 7.32312 13.2322 5.10374C13.6777 3.76118 15.2456 3.33085 16.207 4.28751ZM8.59378 7.93104C8.77487 8.08762 9.02924 8.46501 9.15904 8.77001C9.62817 9.87302 8.69444 11.2534 7.4793 11.2534C6.5932 11.2534 5.5602 10.2676 5.5602 9.4222C5.5602 8.85021 6.12128 7.98017 6.66299 7.71231C7.29193 7.40124 8.08417 7.49098 8.59378 7.93104ZM23.4569 7.80605C23.9016 8.02218 24.4023 8.83216 24.4023 9.33592C24.4023 9.94211 23.9117 10.7068 23.3314 11.0055C22.1669 11.6046 20.7385 10.7033 20.7385 9.36925C20.7385 7.91472 22.0854 7.14015 23.4569 7.80605ZM6.75528 15.5111C7.41249 16.0614 7.57805 16.7579 7.24203 17.5581C6.88438 18.4098 6.25195 18.7861 5.37527 18.6691C4.53139 18.5564 4.18944 18.2985 3.86721 17.5312C3.14441 15.8109 5.30671 14.2984 6.75528 15.5111Z" fill="#FF7433"/>
</svg>
