<svg width="70" height="70" viewBox="0 0 70 70" fill="none" xmlns="http://www.w3.org/2000/svg">
<rect x="2.5" y="2.5" width="65" height="65" rx="32.5" fill="#1B1925"/>
<rect x="2.5" y="2.5" width="65" height="65" rx="32.5" stroke="#FF7433" stroke-width="5"/>
<path fill-rule="evenodd" clip-rule="evenodd" d="M20.7039 19.541C20.4794 19.6233 20.2438 19.8354 20.1255 20.0617C20.0003 20.3013 19.9988 20.4824 20.0002 34.9954C20.0016 49.1871 20.0057 49.6953 20.1209 49.9431C20.1866 50.0841 20.3374 50.2671 20.456 50.3498L20.6719 50.5H33.0435H45.4151L45.96 50.3206C46.9466 49.9959 47.6472 49.5798 48.3393 48.9078C50.5312 46.7796 50.5567 43.2419 48.3959 41.0825C47.4911 40.1783 46.3162 39.5801 45.1427 39.426L44.8062 39.3818V31.5703C44.8062 26.283 44.7845 23.7019 44.7391 23.5827C44.6629 23.3828 40.9567 19.7234 40.6908 19.5855C40.5425 19.5087 39.1048 19.4965 30.6589 19.5007C25.2366 19.5034 20.7568 19.5216 20.7039 19.541ZM39.8703 22.0319C39.8703 23.7026 39.898 23.8654 40.2238 24.1156C40.3947 24.2468 40.4547 24.2512 42.0584 24.2512H43.7164V31.8124V39.3735L43.2517 39.4536C41.918 39.6833 40.5777 40.4619 39.8062 41.455L39.5178 41.8263L32.2743 41.831C26.5701 41.8347 24.9968 41.8525 24.8705 41.9148C24.6346 42.0313 24.5232 42.2946 24.6087 42.534C24.7453 42.9165 24.2789 42.8934 31.9126 42.8956C38.5624 42.8974 38.9202 42.9032 38.8782 43.0071C38.6855 43.4823 38.5759 44.1201 38.5665 44.8205L38.5563 45.5859L31.6437 45.6027L24.731 45.6194L24.6085 45.7672C24.4515 45.9563 24.4515 46.2837 24.6085 46.4728L24.731 46.6206L31.7575 46.6519L38.7841 46.6831L39.0067 47.1837C39.3653 47.9899 39.9281 48.7208 40.6353 49.2984L40.9195 49.5305L31.0201 49.5147L21.1206 49.4989L21.1042 35.0761C21.0951 27.1436 21.1014 20.6182 21.1182 20.5752C21.1423 20.5131 23.0797 20.4969 30.5095 20.4969H39.8703V22.0319ZM41.9857 22.2802L42.9777 23.2501H41.9689H40.9601V22.2802C40.9601 21.7468 40.9676 21.3104 40.9769 21.3104C40.9861 21.3104 41.4401 21.7468 41.9857 22.2802ZM24.0028 22.4074C23.1593 22.7119 22.6884 23.7084 22.9812 24.5691C23.1099 24.9473 23.6486 25.5304 23.9338 25.6003L24.1013 25.6414V29.6862V33.731L23.8081 33.8829C22.5623 34.528 22.5972 36.3025 23.8681 36.9342C24.2654 37.1318 24.9419 37.1576 25.3367 36.9903C25.6607 36.8531 26.0693 36.4844 26.2226 36.191L26.3475 35.9521H30.4794H34.6114L34.7362 36.191C34.8896 36.4844 35.2982 36.8531 35.6222 36.9903C36.017 37.1576 36.6935 37.1318 37.0908 36.9342C38.3907 36.2881 38.381 34.4481 37.0745 33.8399L36.8576 33.739V29.6901V25.6414L37.0251 25.6003C37.1171 25.5778 37.346 25.4095 37.5336 25.2264C37.8002 24.9661 37.8983 24.8141 37.9829 24.5301C38.2543 23.619 37.7786 22.6832 36.8991 22.3981C36.0297 22.1162 35.0313 22.5243 34.6996 23.297L34.6123 23.5004H30.4794H26.3466L26.2593 23.297C26.131 22.9982 25.8573 22.7067 25.5283 22.5184C25.1683 22.3125 24.417 22.2578 24.0028 22.4074ZM25.1013 23.588C25.3545 23.8351 25.3818 24.0565 25.1958 24.3543C25.0264 24.6255 24.7023 24.7268 24.3995 24.6034C23.9388 24.4155 23.8527 23.8508 24.2366 23.5354C24.5238 23.2996 24.8246 23.3179 25.1013 23.588ZM36.7222 23.5354C37.1062 23.8508 37.0201 24.4155 36.5594 24.6034C36.2566 24.7268 35.9325 24.6255 35.7631 24.3543C35.5771 24.0565 35.6044 23.8351 35.8576 23.588C36.1343 23.3179 36.4351 23.2996 36.7222 23.5354ZM34.7382 24.8067C34.8836 25.085 35.3971 25.5505 35.6183 25.6047L35.7678 25.6414V29.6901V33.739L35.5509 33.8399C35.216 33.9958 34.893 34.3027 34.7409 34.6096L34.6026 34.8884H30.4794H26.3563L26.218 34.6096C26.0658 34.3027 25.7428 33.9958 25.408 33.8399L25.191 33.739V29.6901V25.6414L25.3406 25.6047C25.5618 25.5505 26.0753 25.085 26.2207 24.8067L26.3475 24.5641H30.4794H34.6114L34.7382 24.8067ZM25.1203 34.9844C25.3513 35.2412 25.373 35.4587 25.1958 35.7423C25.0202 36.0234 24.6927 36.1196 24.3894 35.979C23.9373 35.7697 23.8468 35.312 24.1911 34.976C24.3662 34.8051 24.4593 34.7633 24.6652 34.7633C24.8782 34.7633 24.9549 34.8006 25.1203 34.9844ZM36.7222 34.9234C37.1038 35.2369 37.0271 35.767 36.5695 35.979C36.2662 36.1196 35.9387 36.0234 35.7631 35.7423C35.6117 35.4999 35.6069 35.3059 35.7467 35.0749C35.9546 34.7315 36.4036 34.6617 36.7222 34.9234ZM24.8321 38.1685C24.5068 38.3074 24.4339 38.7646 24.6984 39.0072L24.8468 39.1433H32.4576H40.0685L40.2258 38.9897C40.4296 38.7908 40.4306 38.5158 40.2285 38.2864L40.0737 38.1108L32.5523 38.0973C26.3383 38.086 24.9962 38.0984 24.8321 38.1685ZM45.3069 40.5603C45.5683 40.6133 46.0362 40.7815 46.3646 40.9407C46.8555 41.1786 47.0499 41.321 47.5319 41.7959C48.1678 42.4225 48.4686 42.9046 48.7265 43.711C48.942 44.3848 48.942 45.5401 48.7265 46.2139C48.4663 47.0272 48.1693 47.5027 47.5325 48.1248C46.5898 49.0458 45.5674 49.4701 44.2849 49.4726C42.1817 49.4765 40.4465 48.1924 39.797 46.1513C39.6744 45.7658 39.6483 45.548 39.6512 44.9311C39.6542 44.2604 39.6758 44.1199 39.8531 43.6141C40.204 42.6129 40.7616 41.8602 41.563 41.3057C42.732 40.4968 43.8729 40.2696 45.3069 40.5603ZM46.2485 42.2213C46.0413 42.2764 45.7615 42.5121 44.7911 43.4494L43.5901 44.6093L43.1451 44.1899C42.5826 43.6598 42.2232 43.4947 41.7379 43.5437C40.8648 43.6316 40.3319 44.5226 40.6742 45.3221C40.7988 45.6134 42.627 47.4261 42.9793 47.6078C43.3231 47.7851 43.8514 47.7856 44.198 47.6089C44.5363 47.4366 47.7359 44.2709 47.8564 43.9894C47.9063 43.8729 47.9471 43.6133 47.9471 43.4124C47.9471 42.5651 47.125 41.9886 46.2485 42.2213ZM46.7805 43.2855C46.8228 43.3268 46.8574 43.4044 46.8574 43.458C46.8574 43.5116 46.1219 44.273 45.223 45.1499L43.5886 46.7445L42.6256 45.8065C42.0959 45.2907 41.6703 44.8293 41.6799 44.7814C41.6894 44.7335 41.7468 44.6638 41.8074 44.6266C41.9 44.5696 42.0268 44.6636 42.6086 45.2208C43.3435 45.9246 43.5353 46.0274 43.8292 45.8752C43.9258 45.8252 44.596 45.2051 45.3184 44.4973C46.0408 43.7895 46.648 43.2104 46.6677 43.2104C46.6874 43.2104 46.7382 43.2442 46.7805 43.2855Z" fill="#FBECDB"/>
</svg>
