<svg width="28" height="40" viewBox="0 0 28 40" fill="none" xmlns="http://www.w3.org/2000/svg">
<path fill-rule="evenodd" clip-rule="evenodd" d="M12.585 0.0542215C5.14601 0.800732 -0.544736 7.32916 0.0415424 14.4439C0.329837 17.943 1.09476 19.7701 3.83829 23.5108C4.82298 24.8534 6.0773 26.864 6.62553 27.9785L7.62251 30.0051L14.0297 30.0128L20.437 30.0204L20.8309 29.0059C21.3375 27.7005 22.8461 25.2419 24.4533 23.1028C27.1507 19.5123 28.2561 16.2027 27.9506 12.6333C27.7854 10.7062 27.0014 8.22934 26.041 6.60148C24.5962 4.15271 21.0613 1.44262 18.0968 0.51059C16.817 0.10839 14.2023 -0.108053 12.585 0.0542215ZM14.8299 5.37698C15.0898 5.63271 15.3025 5.99887 15.3025 6.19067C15.3025 6.76956 14.4022 7.46934 13.6573 7.46934C12.3612 7.46934 10.4365 8.36046 9.44349 9.4206C8.20832 10.7388 7.99162 11.1717 7.71207 12.8793C7.43488 14.5727 7.20141 14.9089 6.30226 14.9089C5.38492 14.9089 5.04984 14.2214 5.21218 12.6731C5.58862 9.08349 8.61548 5.87147 12.2943 5.15704C13.8965 4.84598 14.3282 4.88341 14.8299 5.37698ZM7.50436 33C7.50436 33.8309 8.02683 36.1832 8.34656 36.7913C8.8825 37.811 10.1401 38.897 11.4883 39.5042C12.5535 39.9841 13.0096 40.0582 14.3254 39.9652C16.2768 39.8274 17.5396 39.2148 18.818 37.7859C19.8226 36.6632 20.1267 35.8977 20.402 33.7983L20.5622 32.5778H14.0333C7.88198 32.5778 7.50436 32.6022 7.50436 33Z" fill="#FF7433"/>
</svg>
