<svg width="40" height="40" viewBox="0 0 40 40" fill="none" xmlns="http://www.w3.org/2000/svg">
<path fill-rule="evenodd" clip-rule="evenodd" d="M1.35987 0.322198C0.748697 0.593673 0.447556 0.959916 0.232493 1.69371C0.0258029 2.39923 -0.0369882 7.37506 0.0200479 18.5333C0.0990612 34.0375 0.112666 34.3969 0.65634 35.5729C1.39833 37.1782 2.88336 38.6162 4.62061 39.4123C5.83773 39.9696 6.31887 40.0474 7.91353 39.944C8.94881 39.8767 10.1895 39.6162 10.697 39.3594C12.2224 38.5874 13.7958 36.8672 14.3625 35.3519C14.8617 34.0165 14.8832 33.2922 14.8832 17.7526V1.54632L14.2521 0.811743L13.6213 0.0771633L7.90751 0.0145956C3.44247 -0.034359 2.0116 0.0329212 1.35987 0.322198ZM10.1178 7.4727L10.043 10.0251L7.49204 10.1L4.94111 10.1749V7.54758V4.92026H7.56687H10.1926L10.1178 7.4727ZM24.1712 5.74516C23.8834 5.90197 22.2647 7.39862 20.5737 9.07093L17.4995 12.1113V22.7162V33.3212L25.7582 25.0765C30.3005 20.5417 34.1857 16.5136 34.3921 16.1248C35.2016 14.5994 35.012 14.2711 30.9082 10.1021C26.3134 5.43389 25.5945 4.96895 24.1712 5.74516ZM10.043 17.4861V19.9731L7.49204 20.048L4.94111 20.1229V17.4861V14.8494L7.49204 14.9243L10.043 14.9991V17.4861ZM21.9491 32.528L14.4941 40L26.5277 39.9916C35.5742 39.9853 38.6641 39.9042 38.9762 39.6644C39.904 38.9515 40 38.274 40 32.4401C40 26.7281 39.9945 26.6715 39.3692 25.9435L38.7381 25.2089L34.0711 25.1325L29.4038 25.0558L21.9491 32.528ZM8.93102 31.4128C10.2625 32.9534 8.33633 35.2182 6.52112 34.2461C5.81261 33.8668 5.44528 32.612 5.82151 31.857C6.46643 30.5625 8.00615 30.3426 8.93102 31.4128Z" fill="#FF7433"/>
</svg>
