<svg width="40" height="40" viewBox="0 0 40 40" fill="none" xmlns="http://www.w3.org/2000/svg">
<path fill-rule="evenodd" clip-rule="evenodd" d="M16.4471 0.322596C9.20895 1.62569 3.2402 6.79689 0.901923 13.7908C0.264549 15.6975 0.129398 16.4944 0.0275113 18.9467C-0.110431 22.2714 0.259664 24.6139 1.38042 27.5053C4.15462 34.6633 11.992 39.9896 19.7659 40C21.4382 40.0023 22.4577 39.6558 23.4259 38.7557C25.2664 37.045 25.4445 35.0836 24.0595 31.7851C23.3242 30.0342 23.2009 29.5067 23.2863 28.4774C23.394 27.1789 23.8586 26.361 24.9488 25.5502C25.5413 25.1095 26.0024 25.0639 30.9825 24.9549C35.9259 24.8465 36.452 24.7954 37.3051 24.3394C39.5919 23.1176 40.2191 21.6455 39.9369 18.1607C39.5612 13.5161 37.5975 9.34638 34.1884 5.95416C29.4123 1.2019 22.9523 -0.848805 16.4471 0.322596ZM21.6094 5.71668C22.4442 6.54738 22.6713 7.40331 22.2961 8.3046C21.0939 11.1927 16.6616 9.76416 17.643 6.80499C18.2369 5.01491 20.3274 4.44113 21.6094 5.71668ZM11.4584 10.5747C11.6998 10.7835 12.039 11.2867 12.2121 11.6933C12.8376 13.164 11.5926 15.0046 9.97241 15.0046C8.79094 15.0046 7.41361 13.6901 7.41361 12.5629C7.41361 11.8003 8.16171 10.6402 8.88399 10.2831C9.72257 9.86831 10.7789 9.98798 11.4584 10.5747ZM31.2758 10.4081C31.8688 10.6962 32.5364 11.7762 32.5364 12.4479C32.5364 13.2561 31.8823 14.2757 31.1086 14.674C29.5558 15.4728 27.6514 14.2711 27.6514 12.4923C27.6514 10.553 29.4472 9.5202 31.2758 10.4081ZM9.00704 20.6815C9.88331 21.4152 10.1041 22.3438 9.65605 23.4108C9.17918 24.5463 8.33594 25.0481 7.16703 24.8921C6.04186 24.7419 5.58592 24.398 5.15628 23.3749C4.19254 21.0812 7.07561 19.0645 9.00704 20.6815Z" fill="#FF7433"/>
</svg>
