<svg width="24" height="28" viewBox="0 0 24 28" fill="none" xmlns="http://www.w3.org/2000/svg">
<path fill-rule="evenodd" clip-rule="evenodd" d="M13.2977 12.5138C15.0967 12.8114 16.9461 13.9869 18.0624 15.5423C18.4364 16.0633 18.9412 17.0738 19.1263 17.6715C19.6226 19.2755 19.5953 21.0542 19.0514 22.5504C17.9426 25.6003 15.1521 27.5972 12 27.5965C8.43835 27.5957 5.40825 25.0892 4.63281 21.5024C4.48508 20.819 4.45694 19.6003 4.57192 18.8654C4.98693 16.2131 6.78047 13.9146 9.19287 12.9435C10.5188 12.4097 11.8352 12.2719 13.2977 12.5138ZM13.214 15.5542C13.3714 15.4716 14.9524 14.8513 15.2356 14.761C15.7582 14.5943 16.2183 14.9029 16.2175 15.4197C16.2169 15.7927 15.7533 18.3721 15.6035 18.8361C15.1674 20.187 14.2831 21.3598 13.1267 22.1211C12.41 22.5929 11.4401 22.9799 10.7651 23.0634L10.4689 23.1L9.69051 24.1262C8.86249 25.2179 8.70782 25.3503 8.34249 25.2801C7.99594 25.2134 7.78222 24.9416 7.78222 24.5676C7.78222 24.3046 7.78991 24.2927 8.90242 22.8318L9.25111 22.3739L9.25781 21.484C9.26728 20.2155 9.44091 19.4323 9.93572 18.4259C10.329 17.626 10.7625 17.0789 11.4974 16.4546C11.7954 16.2015 11.8632 16.1698 12.1075 16.1698C12.2597 16.1698 12.4324 16.2082 12.4945 16.2558C12.6535 16.3779 12.6793 16.3679 12.7225 16.1684C12.7693 15.9528 12.9971 15.6679 13.214 15.5542Z" fill="#FF7433"/>
<path d="M14.6217 16.7119C14.2615 18.7752 13.9463 19.4919 13.0078 20.3808C12.6222 20.7461 12 21.2015 12 21.1184C12 21.1011 12.1301 20.9128 12.2891 20.6998C12.6603 20.2024 12.7378 19.9339 12.5953 19.6384C12.479 19.397 12.2794 19.2761 11.9782 19.2646C11.7007 19.2541 11.5345 19.3811 11.1171 19.9229C10.9195 20.1794 10.7496 20.3643 10.7396 20.3338C10.7053 20.2293 11.083 19.2104 11.2906 18.8475C11.5254 18.4371 11.8141 18.045 11.8814 18.045C11.9062 18.045 11.9691 18.1582 12.0212 18.2965C12.0733 18.4348 12.1883 18.6359 12.2768 18.7434C12.411 18.9064 12.4864 18.9436 12.7323 18.9676C13.0054 18.9942 13.0421 18.9818 13.2327 18.799C13.4102 18.6288 13.4755 18.4811 13.7084 17.7227C13.8569 17.2393 14.002 16.8179 14.0309 16.7863C14.0812 16.7313 14.5259 16.5315 14.613 16.5247C14.6361 16.5229 14.6399 16.6071 14.6217 16.7119Z" fill="#FF7433"/>
<path d="M23.6009 13.4596L23.5844 16.4921L23.4291 16.8283C23.3437 17.0131 23.1472 17.2928 22.9924 17.4498C22.5956 17.8522 22.2104 17.9885 21.354 18.0294L20.6837 18.0615L20.5594 17.5943C20.4011 16.9993 20.0573 16.1283 19.7884 15.6407C19.2125 14.5968 18.1368 13.3525 17.2866 12.7466C17.0642 12.5882 16.8732 12.4516 16.8622 12.4431C16.8512 12.4346 16.9193 12.3137 17.0134 12.1745C17.2788 11.7821 17.5685 11.1729 17.7957 10.5296C17.8295 10.4338 18.022 10.427 20.7246 10.427H23.6173L23.6009 13.4596Z" fill="#FF7433"/>
<path d="M6.33743 10.933C6.44415 11.2112 6.65688 11.6505 6.81017 11.9092C6.96345 12.1678 7.08889 12.3979 7.08889 12.4203C7.08889 12.4427 6.93936 12.5676 6.75667 12.6978C6.29849 13.0243 5.46083 13.8299 5.09948 14.2916C4.28938 15.3266 3.69572 16.501 3.41301 17.628L3.30445 18.0607L2.60372 18.03C1.7218 17.9915 1.34023 17.8412 0.908343 17.3618C0.790218 17.2307 0.698832 17.1323 0.628135 17.0208C0.380973 16.631 0.386668 16.0808 0.386668 13.4134V10.427H3.26504H6.14341L6.33743 10.933Z" fill="#FF7433"/>
<path d="M19.0489 7.81931V9.02061H18.1894C17.7168 9.02061 17.2491 9.03702 17.1503 9.05706C16.8621 9.11554 16.7092 9.31174 16.5361 9.84517C16.3521 10.4124 15.9283 11.3136 15.727 11.5658L15.5898 11.7378L15.196 11.583C14.1877 11.1866 13.1792 11.0057 11.9711 11.0044C10.8028 11.0032 9.82305 11.1824 8.80038 11.5844L8.40299 11.7406L8.26565 11.5673C8.03841 11.2803 7.68227 10.5398 7.48975 9.95353C7.19607 9.05958 7.1276 9.02061 5.84852 9.02061H4.95111V7.81931V6.61801H12H19.0489V7.81931Z" fill="#FF7433"/>
<path d="M17.3156 4.15681V5.21161H12H6.68444V4.15681V3.10201H12H17.3156V4.15681Z" fill="#FF7433"/>
<path d="M15.9867 1.051V1.6956H12H8.01333V1.051V0.406402H12H15.9867V1.051Z" fill="#FF7433"/>
<path d="M19.9558 1.86883C20.0573 1.93164 20.1798 2.04404 20.228 2.11864C20.2971 2.22552 21.4353 4.81535 23.1521 8.77156L23.2602 9.02061H21.8479H20.4356L20.4352 7.48236C20.435 6.61397 20.4092 5.85006 20.3758 5.72811C20.3432 5.60933 20.2374 5.44454 20.1405 5.36186C19.9751 5.22063 19.9265 5.21161 19.3333 5.21161H18.7022L18.7016 3.84916C18.7008 2.29362 18.6808 2.1041 18.4953 1.90106L18.361 1.7542L19.0661 1.75444C19.663 1.75461 19.7994 1.77214 19.9558 1.86883Z" fill="#FF7433"/>
<path d="M5.4584 1.93475C5.33025 2.11043 5.32621 2.15743 5.30951 3.66345L5.29241 5.21161H4.68291C4.21213 5.21161 4.03539 5.23434 3.90649 5.31158C3.58449 5.50449 3.56445 5.62702 3.56445 7.40331V9.02061H2.14271C1.02841 9.02061 0.72721 9.00479 0.749916 8.94736C1.03875 8.21598 3.7149 2.16317 3.78475 2.0833C4.02973 1.80313 4.19544 1.75467 4.90951 1.75444L5.59013 1.7542L5.4584 1.93475Z" fill="#FF7433"/>
</svg>
