<svg width="71" height="70" viewBox="0 0 71 70" fill="none" xmlns="http://www.w3.org/2000/svg">
<rect x="3" y="2.5" width="65" height="65" rx="32.5" fill="#1B1925"/>
<rect x="3" y="2.5" width="65" height="65" rx="32.5" stroke="#FF7433" stroke-width="5"/>
<path fill-rule="evenodd" clip-rule="evenodd" d="M34.7716 17.6572C34.4011 17.8381 34.341 17.9179 33.7969 18.9522L33.3902 19.7251L32.466 19.8583C31.3707 20.0161 31.0161 20.1824 30.723 20.6756C30.487 21.0727 30.4563 21.7126 30.6546 22.1026C30.7238 22.2387 31.079 22.6484 31.4438 23.0131L32.1072 23.676L31.9477 24.541C31.7661 25.527 31.79 25.8745 32.0688 26.2986C32.3656 26.7499 32.6997 26.9354 33.2733 26.9674C33.7468 26.9937 33.7928 26.9803 34.5753 26.5864C35.0214 26.3618 35.4393 26.178 35.504 26.178C35.5686 26.178 35.9679 26.3578 36.3913 26.5775C37.0946 26.9425 37.2029 26.9771 37.6457 26.9786C38.3046 26.9807 38.7511 26.713 39.0126 26.1591C39.2296 25.6994 39.2329 25.5682 39.0533 24.5375L38.9136 23.7354L39.6296 23.0063C40.5811 22.0373 40.7274 21.5756 40.3313 20.7918C40.0556 20.2462 39.7427 20.064 38.8461 19.9274C37.5444 19.729 37.6506 19.7935 37.2328 18.9482C36.804 18.0808 36.6182 17.8389 36.2305 17.6439C35.8391 17.4469 35.1901 17.4529 34.7716 17.6572ZM36.0865 19.5246C36.6858 20.753 36.8903 20.8994 38.3044 21.1117C39.0543 21.2243 39.2683 21.3015 39.2683 21.4592C39.2683 21.5007 38.9393 21.8682 38.5371 22.2758C37.6049 23.2208 37.5544 23.3781 37.7757 24.6468C37.9965 25.9129 37.9233 25.9605 36.7197 25.3322C36.0299 24.9722 35.8867 24.9239 35.5091 24.9239C35.1366 24.9239 34.9732 24.9771 34.2552 25.3322C33.8012 25.5568 33.3833 25.7405 33.3265 25.7405C33.066 25.7405 33.048 25.5605 33.2127 24.5997C33.4343 23.3072 33.4112 23.2365 32.4507 22.2617C31.7395 21.5398 31.7142 21.5031 31.8194 21.347C31.9127 21.2084 32.0572 21.1662 32.7947 21.0627C33.2709 20.9959 33.7574 20.9016 33.8758 20.8533C34.2153 20.7146 34.5771 20.2614 34.9793 19.4711C35.2943 18.8521 35.3778 18.7408 35.5276 18.7408C35.6791 18.7408 35.7585 18.8521 36.0865 19.5246ZM24.9612 20.9798C24.5523 21.0544 24.4634 21.0934 24.2175 21.3063C24.0558 21.4463 23.8084 21.818 23.5857 22.2557C23.3407 22.7371 23.1654 22.9945 23.0553 23.034C22.9649 23.0664 22.5915 23.1327 22.2255 23.1812C21.8595 23.2297 21.4181 23.3364 21.2448 23.4182C20.6768 23.6864 20.3541 24.4993 20.5649 25.1303C20.6259 25.3128 20.8875 25.6457 21.3056 26.0729L21.9521 26.7333L21.8015 27.5676C21.6747 28.2706 21.6649 28.4533 21.7392 28.7287C21.9316 29.4413 22.531 29.8682 23.2561 29.8089C23.5261 29.7868 23.8544 29.668 24.3871 29.3997L25.1376 29.0215L25.9061 29.4226C26.7557 29.8661 27.1768 29.9333 27.7151 29.7116C28.4933 29.391 28.6819 28.7927 28.4371 27.4214L28.3272 26.8055L28.9544 26.1734C29.2994 25.8258 29.6317 25.4232 29.6929 25.2787C29.8421 24.9265 29.8307 24.4554 29.6644 24.1C29.3974 23.5294 29.0298 23.3288 27.9927 23.1883C27.6267 23.1386 27.267 23.0669 27.1933 23.0289C27.1197 22.991 26.9062 22.6495 26.7189 22.2701C26.3722 21.5675 26.1461 21.279 25.8131 21.114C25.5976 21.0073 25.1756 20.9408 24.9612 20.9798ZM45.5129 21.0105C45.0274 21.118 44.7209 21.4315 44.293 22.2585C44.0802 22.6698 43.9006 23.0135 43.8939 23.0222C43.8872 23.0311 43.5341 23.0892 43.1092 23.1515C42.0747 23.3032 41.9024 23.3673 41.6029 23.7123C41.2746 24.0906 41.1551 24.5886 41.2776 25.0683C41.3485 25.3459 41.4869 25.5337 42.0245 26.0817L42.6844 26.7544L42.557 27.4521C42.4002 28.3112 42.4349 28.8514 42.6685 29.1876C42.9493 29.5917 43.2899 29.7775 43.8096 29.8102C44.2449 29.8375 44.3048 29.8194 45.0653 29.4314L45.8639 29.0239L46.6371 29.4238C47.3007 29.767 47.4678 29.8237 47.8156 29.8237C48.5168 29.8237 49.0818 29.4151 49.2569 28.7814C49.3252 28.5342 49.3158 28.3082 49.2087 27.6144L49.0758 26.7541L49.6729 26.1562C50.4269 25.4011 50.5318 25.2022 50.4931 24.6017C50.4396 23.7733 49.9105 23.3447 48.7507 23.1904C48.395 23.1431 48.0448 23.0879 47.9725 23.068C47.8958 23.0467 47.6841 22.7219 47.4653 22.2897C47.037 21.4437 46.9471 21.3268 46.5883 21.1491C46.2418 20.9774 45.8753 20.9302 45.5129 21.0105ZM25.6483 22.9885C26.0051 23.7343 26.2868 24.0688 26.6838 24.2176C26.7817 24.2543 27.1995 24.3343 27.6121 24.3954C28.7078 24.5577 28.7142 24.5792 27.9049 25.3931C27.0682 26.2347 26.9974 26.4132 27.1357 27.3334C27.3228 28.5772 27.3204 28.5045 27.1767 28.5588C27.0886 28.5921 26.7843 28.4769 26.2719 28.2163C25.2412 27.6919 25.0292 27.6913 23.9828 28.2095C23.2154 28.5896 23.0457 28.6403 22.9663 28.5136C22.942 28.4748 22.9732 28.1549 23.0356 27.8027C23.1898 26.934 23.1816 26.4517 23.0074 26.1204C22.9291 25.9717 22.6131 25.6046 22.305 25.3049C21.9969 25.0051 21.7449 24.7172 21.7449 24.6651C21.7449 24.5362 21.9866 24.4559 22.5582 24.3948C23.8034 24.2621 24.0359 24.1075 24.5858 23.0474C25.1302 21.9978 25.1733 21.9954 25.6483 22.9885ZM46.3379 22.9151C46.9512 24.1224 47.0136 24.1686 48.3258 24.3886C49.4598 24.5788 49.4881 24.6424 48.7334 25.3023C48.1966 25.7715 47.8942 26.1919 47.8148 26.5791C47.7902 26.6994 47.8301 27.162 47.9037 27.6072C47.9773 28.0524 48.0247 28.4543 48.0091 28.5004C47.9571 28.6543 47.7242 28.5871 46.9929 28.2074C45.9862 27.6848 45.7261 27.6861 44.6737 28.2192C44.1173 28.5011 43.8763 28.5887 43.7957 28.5386C43.653 28.4498 43.6516 28.5317 43.8132 27.551C44.0043 26.3908 43.9655 26.2737 43.1025 25.4057C42.6367 24.9372 42.4569 24.7079 42.4896 24.6239C42.5372 24.5015 42.5889 24.4887 43.5936 24.3491C44.613 24.2073 44.8602 24.0106 45.402 22.91C45.6344 22.4376 45.7703 22.2407 45.8634 22.2407C45.9557 22.2407 46.0979 22.4427 46.3379 22.9151ZM34.5363 28.6565C32.6116 28.8928 31.0642 29.8275 29.9586 31.4216C29.3746 32.2638 28.9169 33.6148 28.9169 34.4966V34.7819L28.0481 34.7836C27.5703 34.7847 27.0296 34.8194 26.8466 34.861C25.8511 35.0871 24.9007 35.845 24.4476 36.7742C24.1141 37.4578 24.0028 38.2452 24.0587 39.524C24.1044 40.5678 24.2634 41.151 24.6677 41.7586L24.9192 42.1365L24.9402 45.9876C24.9612 49.8375 24.9613 49.8388 25.135 50.2633C25.5291 51.227 26.4286 52.0526 27.4097 52.3515C27.8869 52.4968 28.06 52.5 35.4975 52.5C42.8425 52.5 43.1134 52.4952 43.5675 52.3568C44.7213 52.0051 45.6566 51.0476 45.957 49.9105C46.052 49.5506 46.0707 48.8768 46.0707 45.8061C46.0707 42.2354 46.0749 42.1264 46.2203 41.9251C46.3025 41.8112 46.4772 41.4944 46.6084 41.2212L46.847 40.7244L46.8711 39.2424C46.8924 37.9187 46.879 37.7084 46.7447 37.2737C46.3896 36.1239 45.4149 35.1912 44.2581 34.894C43.9604 34.8175 43.4734 34.7819 42.7279 34.7819H41.6344V34.6092C41.6344 34.5141 41.5838 34.1505 41.522 33.8011C41.0806 31.3051 39.1636 29.3248 36.6502 28.7687C36.0404 28.6338 35.1192 28.5849 34.5363 28.6565ZM36.5276 30.0142C38.4892 30.5033 40.1206 32.3462 40.3449 34.3262L40.3965 34.7819H35.2747H30.1528L30.1981 34.3553C30.2567 33.8016 30.5609 32.8706 30.8289 32.4247C32.0243 30.4353 34.3208 29.464 36.5276 30.0142ZM44.285 36.2271C44.8014 36.4989 45.2182 36.9278 45.4404 37.4159C45.6148 37.7992 45.6487 37.9868 45.6808 38.7464C45.7394 40.1345 45.5598 40.7848 44.9448 41.4104C44.5177 41.8449 43.9598 42.0884 43.2949 42.1305L42.7661 42.1639L42.7203 41.7821C42.6312 41.04 42.1317 40.3603 41.43 40.0257C41.1581 39.8962 40.9475 39.8579 40.4883 39.8547C39.819 39.8501 39.4147 39.9912 38.9538 40.3903C38.5925 40.7032 38.2332 41.4209 38.2332 41.8298V42.1462H35.4338H32.6345L32.5897 41.7733C32.5016 41.04 32.0467 40.4165 31.3338 40.0523C31.0136 39.8887 30.8525 39.8558 30.3587 39.8532C29.8576 39.8506 29.703 39.8811 29.3471 40.0532C28.6554 40.3877 28.2005 41.0233 28.123 41.7636L28.081 42.1644L27.6199 42.1279C26.7632 42.0601 25.9467 41.5202 25.5821 40.7806C25.3663 40.3428 25.2701 39.5408 25.3217 38.6099C25.3603 37.9145 25.3962 37.7477 25.5915 37.356C25.86 36.8177 26.3378 36.3764 26.873 36.1726C27.2453 36.0308 27.4294 36.0281 35.6084 36.0428L43.9634 36.0579L44.285 36.2271ZM30.8469 41.218C31.2733 41.4989 31.3567 41.7619 31.3567 42.8279C31.3569 43.8932 31.2748 44.1637 30.8782 44.4054C30.3922 44.7016 29.7203 44.5124 29.4793 44.0116C29.3882 43.8222 29.3606 43.5322 29.3606 42.7662C29.3606 41.6378 29.4162 41.4681 29.8707 41.2081C30.2176 41.0097 30.5356 41.013 30.8469 41.218ZM40.9765 41.218C41.4029 41.4989 41.4863 41.7619 41.4863 42.8279C41.4865 43.8932 41.4044 44.1637 41.0078 44.4054C40.5218 44.7016 39.8499 44.5124 39.6089 44.0116C39.5178 43.8221 39.4901 43.5319 39.4901 42.7636C39.4901 41.8886 39.5089 41.7326 39.6385 41.5257C39.9271 41.0652 40.533 40.9258 40.9765 41.218ZM26.9206 43.2812C27.1442 43.3374 27.502 43.384 27.7154 43.3846L28.1036 43.3857V43.7009C28.1036 44.4987 28.7694 45.4113 29.5401 45.6697C29.9982 45.8233 30.7098 45.8266 31.1547 45.6771C31.9031 45.4257 32.5204 44.6254 32.5954 43.8096L32.6344 43.3857H35.4338H38.2332V43.7009C38.2332 44.4987 38.899 45.4113 39.6697 45.6697C40.1278 45.8233 40.8394 45.8266 41.2843 45.6771C42.0327 45.4257 42.65 44.6254 42.725 43.8096L42.764 43.3857L43.2158 43.3847C43.6236 43.3837 44.3423 43.2576 44.6872 43.1265C44.8133 43.0786 44.8185 43.2299 44.7981 46.3481C44.7769 49.6002 44.7757 49.6218 44.6072 49.9331C44.3596 50.3904 43.9876 50.7665 43.5423 51.0098L43.1501 51.224H35.4975H27.8448L27.4526 51.0098C27.0073 50.7665 26.6353 50.3904 26.3877 49.9331C26.2192 49.6218 26.218 49.6002 26.1968 46.3477L26.1754 43.0756L26.3447 43.1272C26.4378 43.1556 26.6969 43.2249 26.9206 43.2812Z" fill="#FBECDB"/>
</svg>
