<svg width="117" height="81" viewBox="0 0 117 81" fill="none" xmlns="http://www.w3.org/2000/svg">
<path fill-rule="evenodd" clip-rule="evenodd" d="M14.637 46.5918L47.5778 12.885L78.9347 45.7348C75.1504 45.8467 71.4041 46.155 67.8392 46.5345L67.4845 46.5726L46.7011 25.1593L26.2739 46.9046L23.6032 49.7475C20.5277 49.0736 17.3816 48.0994 14.7257 46.641L14.637 46.5918Z" fill="#FF7433"/>
<path fill-rule="evenodd" clip-rule="evenodd" d="M65.0757 28.8362L73.8098 19.8988L100.023 47.3598L101.111 48.4992C97.3307 47.1509 93.2337 46.3758 89.0231 45.9937L73.1194 29.5662L69.4753 33.4453L65.0757 28.8362Z" fill="#FECE51"/>
<path fill-rule="evenodd" clip-rule="evenodd" d="M27.6718 20.1651L47.3786 0L66.6273 20.1651H60.1095L46.9097 6.56539L34.1341 20.1651H27.6718Z" fill="#FECE51"/>
<path fill-rule="evenodd" clip-rule="evenodd" d="M42.3374 37.4536H46.2745V41.3908H42.3374V37.4536ZM42.3374 43.1407H46.2745V47.078H42.3374V43.1407ZM48.0243 43.1407H51.9615V47.078H48.0243V43.1407ZM48.0243 37.4536H51.9615V41.3908H48.0243V37.4536Z" fill="#FECE51"/>
<path d="M0 74.2523V70.5129H3.23186V59.2949H0V55.5556H10.9242V59.2949H7.69236V70.5129H10.9242V74.2523H0ZM13.676 74.2523V66.3729C13.676 65.2333 13.9519 64.2006 14.504 63.2746C15.0559 62.3487 15.8395 61.6097 16.8544 61.0577C17.8871 60.5057 19.1068 60.2297 20.5136 60.2297C21.9381 60.2297 23.1489 60.5057 24.1461 61.0577C25.1611 61.6097 25.9357 62.3487 26.4699 63.2746C27.0041 64.2006 27.2712 65.2333 27.2712 66.3729V74.2523H23.1312V66.4798C23.1312 65.999 23.0154 65.5627 22.7839 65.171C22.5524 64.7615 22.2319 64.4409 21.8224 64.2095C21.4306 63.9602 20.9855 63.8355 20.4869 63.8355C19.9705 63.8355 19.5075 63.9602 19.098 64.2095C18.7062 64.4409 18.3946 64.7615 18.1632 65.171C17.9316 65.5627 17.816 65.999 17.816 66.4798V74.2523H13.676ZM30.3962 74.2523V70.967H36.9934C37.1715 70.967 37.3317 70.9313 37.4742 70.8602C37.6166 70.7711 37.7324 70.6554 37.8214 70.5129C37.9104 70.3704 37.955 70.2191 37.955 70.0589C37.955 69.8808 37.9104 69.7206 37.8214 69.5781C37.7324 69.4356 37.6166 69.3288 37.4742 69.2576C37.3317 69.1685 37.1715 69.124 36.9934 69.124H34.5896C33.6992 69.124 32.889 68.9815 32.159 68.6967C31.4467 68.394 30.8769 67.931 30.4496 67.3078C30.04 66.6667 29.8353 65.8387 29.8353 64.8238C29.8353 64.0403 30.0222 63.328 30.3962 62.687C30.7879 62.046 31.3131 61.5296 31.972 61.1379C32.6486 60.7461 33.3876 60.5503 34.1889 60.5503H40.7862V63.8622H34.83C34.5806 63.8622 34.367 63.9424 34.1889 64.1026C34.0287 64.2629 33.9486 64.4588 33.9486 64.6902C33.9486 64.9395 34.0287 65.1532 34.1889 65.3313C34.367 65.4915 34.5806 65.5717 34.83 65.5717H37.1804C38.1775 65.5717 39.0322 65.723 39.7445 66.0257C40.4745 66.3106 41.0354 66.7736 41.4272 67.4146C41.8367 68.0556 42.0416 68.8836 42.0416 69.8986C42.0416 70.6999 41.8367 71.43 41.4272 72.0888C41.0354 72.7476 40.5012 73.273 39.8247 73.6647C39.1657 74.0564 38.4179 74.2523 37.5811 74.2523H30.3962ZM51.2636 74.2523C49.8391 74.2523 48.5749 73.9585 47.4708 73.3709C46.3669 72.7655 45.4943 71.9552 44.8533 70.9403C44.2122 69.9076 43.8917 68.7323 43.8917 67.4146C43.8917 66.0969 44.2122 64.9306 44.8533 63.9157C45.4943 62.8829 46.3669 62.0638 47.4708 61.4584C48.5749 60.853 49.8391 60.5503 51.2636 60.5503H53.3202V64.0492H51.4238C50.7294 64.0492 50.133 64.2006 49.6343 64.5033C49.1357 64.7882 48.7441 65.1888 48.4591 65.7052C48.192 66.2038 48.0584 66.7736 48.0584 67.4146C48.0584 68.0556 48.192 68.6343 48.4591 69.1507C48.7441 69.6493 49.1357 70.0499 49.6343 70.3527C50.133 70.6375 50.7294 70.78 51.4238 70.78H53.3202V74.2523H51.2636ZM61.1205 74.5728C59.9097 74.5728 58.8414 74.2612 57.9153 73.6379C56.9894 73.0147 56.2683 72.1779 55.7519 71.1272C55.2356 70.0589 54.9773 68.8569 54.9773 67.5215C54.9773 66.1326 55.28 64.895 55.8854 63.8088C56.4909 62.7048 57.3456 61.8323 58.4495 61.1913C59.5713 60.5503 60.889 60.2297 62.4025 60.2297C63.9339 60.2297 65.2337 60.5503 66.3021 61.1913C67.3884 61.8145 68.2164 62.6781 68.7861 63.7821C69.3737 64.8683 69.6675 66.088 69.6675 67.4413V74.2523H65.6077V72.0621H65.5008C65.2516 72.5429 64.9311 72.9792 64.5393 73.3709C64.1476 73.7448 63.6668 74.0386 63.097 74.2523C62.545 74.4659 61.8862 74.5728 61.1205 74.5728ZM62.3491 70.9937C62.9724 70.9937 63.5155 70.8424 63.9784 70.5396C64.4592 70.2191 64.8243 69.7828 65.0735 69.2309C65.3228 68.6789 65.4474 68.0646 65.4474 67.3879C65.4474 66.7291 65.3228 66.1326 65.0735 65.5984C64.8243 65.0642 64.4592 64.6457 63.9784 64.343C63.5155 64.0225 62.9724 63.8622 62.3491 63.8622C61.7081 63.8622 61.1472 64.0225 60.6664 64.343C60.1856 64.6457 59.8207 65.0642 59.5713 65.5984C59.3221 66.1326 59.1974 66.7291 59.1974 67.3879C59.1974 68.0646 59.3221 68.6789 59.5713 69.2309C59.8207 69.7828 60.1856 70.2191 60.6664 70.5396C61.1472 70.8424 61.7081 70.9937 62.3491 70.9937ZM79.9674 60.2297C81.1249 60.2297 82.1488 60.4167 83.039 60.7906C83.9472 61.1468 84.7129 61.6631 85.3361 62.3398C85.9771 62.9986 86.4668 63.7821 86.8051 64.6902C87.1435 65.5806 87.3126 66.5688 87.3126 67.655C87.3126 69.0082 87.0277 70.2102 86.4579 71.2608C85.9059 72.2935 85.1403 73.1038 84.1608 73.6914C83.1815 74.279 82.042 74.5728 80.742 74.5728C80.19 74.5728 79.6648 74.5016 79.1661 74.3591C78.6854 74.2166 78.2402 74.0119 77.8307 73.7448C77.439 73.4777 77.1095 73.1482 76.8424 72.7565H76.7623V80.0483H72.6223V67.655C72.6223 66.1415 72.925 64.8327 73.5304 63.7287C74.1359 62.6247 74.9906 61.77 76.0945 61.1646C77.1986 60.5413 78.4896 60.2297 79.9674 60.2297ZM79.9674 63.8088C79.3264 63.8088 78.7655 63.9691 78.2847 64.2896C77.8218 64.5923 77.4657 65.0197 77.2163 65.5717C76.9671 66.1058 76.8424 66.7113 76.8424 67.3879C76.8424 68.0646 76.9671 68.67 77.2163 69.2042C77.4657 69.7383 77.8218 70.1657 78.2847 70.4862C78.7655 70.789 79.3264 70.9403 79.9674 70.9403C80.6085 70.9403 81.1605 70.789 81.6234 70.4862C82.0864 70.1657 82.4426 69.7383 82.6918 69.2042C82.9589 68.67 83.0925 68.0646 83.0925 67.3879C83.0925 66.7113 82.9589 66.1058 82.6918 65.5717C82.4426 65.0197 82.0864 64.5923 81.6234 64.2896C81.1605 63.9691 80.6085 63.8088 79.9674 63.8088ZM96.9199 74.2523C95.3707 74.2523 94.0085 73.9674 92.8333 73.3976C91.6581 72.81 90.7411 72.0087 90.0822 70.9937C89.4412 69.961 89.1207 68.7679 89.1207 67.4146C89.1207 65.9189 89.4324 64.6368 90.0555 63.5684C90.6788 62.5001 91.5068 61.681 92.5395 61.1112C93.5901 60.5235 94.7476 60.2297 96.0117 60.2297C97.4541 60.2297 98.656 60.5324 99.6175 61.1379C100.597 61.7433 101.336 62.5713 101.834 63.6219C102.333 64.6546 102.582 65.8387 102.582 67.1742C102.582 67.4057 102.565 67.6817 102.529 68.0022C102.511 68.3049 102.484 68.5453 102.449 68.7234H93.4743C93.5812 69.1864 93.786 69.5781 94.0887 69.8986C94.3914 70.2191 94.7743 70.4595 95.2372 70.6198C95.7002 70.7623 96.2166 70.8334 96.7863 70.8334H100.98V74.2523H96.9199ZM93.3675 66.1326H98.5759C98.5403 65.8477 98.4869 65.5717 98.4156 65.3046C98.3444 65.0375 98.2286 64.806 98.0684 64.6101C97.926 64.3964 97.7568 64.2184 97.5609 64.0759C97.3651 63.9157 97.1335 63.791 96.8664 63.702C96.6172 63.6129 96.3323 63.5684 96.0117 63.5684C95.6023 63.5684 95.2372 63.6397 94.9166 63.7821C94.5961 63.9246 94.329 64.1204 94.1154 64.3697C93.9017 64.6012 93.7326 64.8772 93.6079 65.1977C93.501 65.5004 93.4209 65.812 93.3675 66.1326ZM105.021 74.2523V70.967H111.619C111.797 70.967 111.957 70.9313 112.099 70.8602C112.242 70.7711 112.357 70.6554 112.447 70.5129C112.535 70.3704 112.58 70.2191 112.58 70.0589C112.58 69.8808 112.535 69.7206 112.447 69.5781C112.357 69.4356 112.242 69.3288 112.099 69.2576C111.957 69.1685 111.797 69.124 111.619 69.124H109.215C108.324 69.124 107.514 68.9815 106.784 68.6967C106.072 68.394 105.502 67.931 105.075 67.3078C104.665 66.6667 104.46 65.8387 104.46 64.8238C104.46 64.0403 104.647 63.328 105.021 62.687C105.413 62.046 105.938 61.5296 106.597 61.1379C107.274 60.7461 108.013 60.5503 108.814 60.5503H115.411V63.8622H109.455C109.206 63.8622 108.992 63.9424 108.814 64.1026C108.654 64.2629 108.574 64.4588 108.574 64.6902C108.574 64.9395 108.654 65.1532 108.814 65.3313C108.992 65.4915 109.206 65.5717 109.455 65.5717H111.806C112.803 65.5717 113.657 65.723 114.37 66.0257C115.1 66.3106 115.661 66.7736 116.052 67.4146C116.462 68.0556 116.667 68.8836 116.667 69.8986C116.667 70.6999 116.462 71.43 116.052 72.0888C115.661 72.7476 115.126 73.273 114.45 73.6647C113.791 74.0564 113.043 74.2523 112.206 74.2523H105.021Z" fill="#FF7433"/>
</svg>
