<svg width="23" height="30" viewBox="0 0 23 30" fill="none" xmlns="http://www.w3.org/2000/svg">
<path fill-rule="evenodd" clip-rule="evenodd" d="M2.85376 0.148465C1.85635 0.373062 0.524644 1.64155 0.216374 2.66058C0.0552444 3.19374 0 6.38696 0 15.1862V26.9962L0.460901 27.9045C0.981827 28.9305 1.70656 29.5447 2.74451 29.8393C3.24933 29.9826 5.89468 30.025 11.9519 29.9866L20.451 29.9328L21.1246 29.4758C22.0593 28.8415 22.6157 28.0405 22.8462 26.9969C22.9822 26.3814 23.0252 22.531 22.9863 14.4613C22.9331 3.48422 22.911 2.77932 22.5994 2.20583C22.1349 1.35107 21.6259 0.840684 20.8052 0.407134C20.1118 0.0406855 19.925 0.0321679 11.8634 0.00331092C6.86287 -0.0147681 3.32511 0.0422503 2.85376 0.148465ZM18.0665 4.03407C18.9106 4.46258 19.1666 5.16314 19.096 6.85075C19.0372 8.25623 19.0099 8.34019 18.4562 8.82589L17.8779 9.33315H11.4887H5.09948L4.49746 8.7421C3.90323 8.1587 3.89544 8.13106 3.89544 6.6079C3.89544 4.87614 4.09587 4.41703 5.02476 4.02016C5.88229 3.65372 17.3414 3.66588 18.0665 4.03407ZM6.54947 11.5051C7.25578 11.8637 7.61381 12.4247 7.61381 13.1729C7.61381 13.9687 7.09819 14.6327 6.27272 14.9003C5.10249 15.2794 3.89544 14.4022 3.89544 13.1729C3.89544 12.3977 4.29224 11.8081 5.02476 11.4952C5.73922 11.1899 5.93116 11.1911 6.54947 11.5051ZM12.1005 11.4086C13.6817 11.9988 13.7953 14.1036 12.2841 14.8076C11.5245 15.1614 10.8114 15.0326 10.1984 14.4307C9.26636 13.5157 9.51567 11.9969 10.6797 11.4999C11.3609 11.2088 11.5354 11.1977 12.1005 11.4086ZM18.2558 11.6424C19.4924 12.4582 19.3161 14.2689 17.9452 14.8313C17.1502 15.1574 16.5758 15.0294 15.9132 14.3789C14.9992 13.4816 15.3147 12.0161 16.534 11.4952C17.3053 11.1656 17.5672 11.188 18.2558 11.6424ZM7.06384 17.4863C7.51022 17.8957 7.61381 18.1283 7.61381 18.7205C7.61381 19.7206 6.72706 20.6326 5.75462 20.6326C4.81086 20.6326 3.89384 19.7175 3.89933 18.7812C3.90889 17.1727 5.85396 16.3767 7.06384 17.4863ZM12.7122 17.4131C13.3548 17.944 13.5366 18.7179 13.2031 19.5019C12.9451 20.1081 12.1594 20.6326 11.5092 20.6326C10.8984 20.6326 10.1175 20.1409 9.81438 19.5655C8.9117 17.8515 11.1923 16.1575 12.7122 17.4131ZM18.521 17.573C18.9779 18.0215 19.1231 18.3118 19.1231 18.7765C19.1231 19.9252 17.7827 20.9004 16.6774 20.5561C15.3783 20.1512 14.9564 18.4384 15.9222 17.4901C16.6875 16.7388 17.7044 16.7713 18.521 17.573ZM12.3994 22.8386C13.2457 23.4063 13.5496 24.2506 13.2016 25.068C12.7446 26.142 12.524 26.1957 8.59245 26.1915C4.7774 26.1874 4.58139 26.1444 4.09322 25.2073C3.63462 24.3268 4.10066 23.0824 5.02653 22.7151C5.23228 22.6336 6.87669 22.5618 8.68098 22.5557C11.4823 22.5463 12.0256 22.5877 12.3994 22.8386ZM18.3951 22.9898C19.3802 23.8035 19.2861 25.4023 18.2216 25.9428C16.8465 26.6409 15.4011 25.8619 15.4086 24.4269C15.413 23.5888 15.7809 23.0016 16.4671 22.7374C17.2233 22.446 17.8337 22.526 18.3951 22.9898Z" fill="#FF7433"/>
</svg>
