<svg width="32" height="22" viewBox="0 0 32 22" fill="none" xmlns="http://www.w3.org/2000/svg">
<path fill-rule="evenodd" clip-rule="evenodd" d="M7.70108 0.269932C5.97493 0.813496 4.53679 2.07773 3.75153 3.7421C3.40725 4.4718 3.34624 4.81479 3.29767 6.29768C3.2451 7.90548 3.25887 8.01044 3.52438 8.01044C3.95159 8.01044 5.07106 8.76507 5.53676 9.36694C6.19246 10.2144 6.38244 10.9456 6.38244 12.6205V14.1326H15.9923H25.6021L25.6544 12.347C25.7022 10.7138 25.7412 10.5035 26.1109 9.88427C26.5898 9.0827 27.2477 8.50473 28.1129 8.12632L28.7423 7.85097V6.55889C28.7423 3.90885 27.6731 2.02511 25.45 0.758251C24.1404 0.0120712 23.8976 -0.00731579 15.9436 0.00113868C9.2402 0.00813548 8.45021 0.0339359 7.70108 0.269932ZM1.86916 9.49944C1.23894 9.6318 0.563404 10.1695 0.224009 10.8092C-0.0623749 11.3488 -0.0798487 20.5694 0.204462 21.1294C0.53364 21.7782 1.26485 22.0288 2.64479 21.966C3.75064 21.9157 3.91012 21.8704 4.31068 21.4927C4.55427 21.2628 4.75358 20.9232 4.75358 20.7378V20.4006H16.0075H27.2615V20.7375C27.2615 21.1348 27.7327 21.6743 28.2478 21.8672C28.799 22.0734 30.4621 22.0314 31.0325 21.7969C31.9725 21.4102 32 21.2455 32 16.0079C32 11.6072 31.9812 11.2712 31.7038 10.7071C30.9008 9.0741 28.4482 9.03197 27.4916 10.6347C27.2271 11.0778 27.1806 11.4446 27.1349 13.4411L27.0823 15.738L15.955 15.7005L4.82762 15.6632L4.75358 13.258C4.67391 10.6714 4.60831 10.4264 3.85415 9.89768C3.25725 9.47933 2.59667 9.34682 1.86916 9.49944Z" fill="#FF7433"/>
</svg>
