<svg width="60" height="60" viewBox="0 0 60 60" fill="none" xmlns="http://www.w3.org/2000/svg">
<rect width="60" height="60" rx="30" fill="#FF7433"/>
<path fill-rule="evenodd" clip-rule="evenodd" d="M33.7681 14.1345C33.6837 14.2074 33.4537 14.6831 33.2569 15.1913L32.8992 16.1155L32.2716 16.3191C31.9265 16.4312 31.3262 16.6721 30.9379 16.8546C30.5495 17.0372 30.2131 17.1865 30.1902 17.1865C30.1673 17.1865 29.7665 17.0159 29.2994 16.8073C28.8324 16.5988 28.3409 16.4282 28.2073 16.4282C27.9944 16.4282 27.7938 16.5971 26.5897 17.79C25.3604 19.0079 25.2152 19.1783 25.2169 19.4013C25.218 19.5386 25.3949 20.0401 25.6101 20.5161L26.0014 21.3814L25.7255 21.9189C25.5738 22.2144 25.3214 22.8144 25.1647 23.2521L24.8796 24.0478L23.9324 24.4075C23.4083 24.6066 22.9252 24.8391 22.8511 24.9282C22.7313 25.0719 22.717 25.291 22.717 26.9822V28.8752L22.9277 29.0802C23.0543 29.2033 23.4902 29.4147 24.0196 29.6096L24.9008 29.9341L25.0803 30.5227C25.179 30.8465 25.425 31.4495 25.627 31.8627L25.9942 32.614L25.5751 33.5512C25.2628 34.2493 25.1685 34.5399 25.2052 34.69C25.2805 34.9986 27.8248 37.4958 28.1196 37.5506C28.2964 37.5834 28.572 37.4958 29.2761 37.1831L30.2004 36.7725L30.7734 37.0579C31.0885 37.2148 31.672 37.4534 32.0699 37.5883C32.4678 37.7232 32.8324 37.8711 32.8801 37.917C32.9278 37.9629 33.0399 38.1979 33.1292 38.4393C33.283 38.855 33.2915 39.0175 33.2915 41.5263C33.2915 43.9799 33.3026 44.204 33.4432 44.5754C33.6591 45.1461 33.9872 45.5011 34.5535 45.7771C35.0372 46.0127 35.0563 46.0155 35.9875 45.9862C36.7651 45.9618 36.9852 45.9281 37.2378 45.7951C37.6584 45.5736 38.0771 45.1262 38.2876 44.6731C38.4587 44.3049 38.465 44.212 38.5059 41.4505C38.559 37.8612 38.5246 37.987 39.5429 37.6492C39.9187 37.5246 40.5269 37.2765 40.8944 37.0979L41.5626 36.7733L42.4863 37.1784C42.9944 37.4011 43.4626 37.5834 43.5268 37.5834C43.784 37.5834 44.1097 37.3158 45.3027 36.1245C46.7823 34.6472 46.7421 34.7711 46.161 33.4803L45.7739 32.6209L46.1535 31.8227C46.3623 31.3837 46.6112 30.78 46.7068 30.4811L46.8805 29.9377L47.8208 29.5822C48.3379 29.3866 48.8148 29.1679 48.8805 29.096C48.9823 28.9847 49 28.6733 49 26.9926C49 25.0869 48.9946 25.015 48.8395 24.8755C48.7513 24.796 48.2772 24.5763 47.7859 24.3872L46.8928 24.0432L46.6224 23.2877C46.4738 22.8721 46.2214 22.2713 46.0617 21.9524L45.7714 21.3728L46.1597 20.5118C46.7424 19.2195 46.7961 19.3702 45.1854 17.7765C43.9849 16.5884 43.7937 16.4282 43.5766 16.4282C43.4411 16.4282 42.9318 16.6039 42.4448 16.8186L41.5594 17.209L40.8162 16.8583C40.4074 16.6655 39.7985 16.413 39.4629 16.2973L38.853 16.087L38.5178 15.215C38.0125 13.9006 38.2317 14.0018 35.8919 14.0018C34.1248 14.0018 33.9056 14.0155 33.7681 14.1345ZM37.4625 16.145C37.6374 16.594 37.8375 17.0272 37.9071 17.1078C37.9768 17.1883 38.1823 17.2907 38.3637 17.3354C38.9836 17.4879 39.9957 17.8839 40.6477 18.229C41.0493 18.4415 41.3892 18.5704 41.5342 18.5653C41.6636 18.5607 42.0635 18.4232 42.423 18.2596C43.4797 17.7788 43.3099 17.7384 44.2873 18.7028L45.1489 19.553L44.7756 20.3781C44.5704 20.8319 44.4024 21.3015 44.4024 21.4217C44.4024 21.5419 44.5894 21.9979 44.818 22.4351C45.0466 22.8723 45.3593 23.6248 45.5129 24.1073C45.831 25.1068 45.7322 25.0187 47.1053 25.5272L47.7776 25.7762L47.7567 26.9949L47.7357 28.2135L46.837 28.5585C46.3427 28.7482 45.889 28.9542 45.8287 29.0162C45.7685 29.0782 45.6434 29.4 45.5506 29.7313C45.3691 30.3804 45.0116 31.2287 44.6383 31.8965C44.51 32.1259 44.4041 32.4159 44.403 32.541C44.4018 32.6662 44.5632 33.137 44.7615 33.5872L45.1223 34.406L44.2451 35.2703L43.3679 36.1347L42.503 35.7596C42.0273 35.5533 41.5701 35.3845 41.487 35.3845C41.4039 35.3845 41.0517 35.5357 40.7044 35.7205C40.0777 36.0541 39.1173 36.4543 38.7128 36.5504L38.5021 36.6006V35.8006C38.5021 35.1067 38.5199 34.9945 38.6362 34.9548C42.6739 33.5761 45.0482 29.4554 44.1993 25.2997C43.6054 22.3924 41.4704 19.9934 38.6225 19.0334C36.9551 18.4713 34.8705 18.4651 33.1765 19.017C31.5189 19.5571 29.8437 20.8146 28.8471 22.2667C26.8242 25.2144 26.9357 29.2596 29.1181 32.0906C30.064 33.3178 31.4372 34.3345 32.8509 34.8542L33.2915 35.0163V35.807C33.2915 36.2679 33.2604 36.5977 33.2171 36.5977C33.028 36.5977 31.8335 36.1134 31.1698 35.7677C30.7652 35.5569 30.3617 35.3853 30.2728 35.3863C30.1841 35.3874 29.7322 35.5547 29.2686 35.7582L28.4257 36.1283L27.5352 35.2555L26.6447 34.3828L27.018 33.5577C27.2232 33.1039 27.3911 32.6554 27.3909 32.561C27.3908 32.4667 27.1861 31.9921 26.9361 31.5066C26.6862 31.0211 26.3912 30.3216 26.2807 29.9522C25.9745 28.9291 26.0259 28.9827 24.9648 28.5786L24.0209 28.219L24.0202 26.9974L24.0196 25.7758L24.8476 25.4605C25.303 25.2871 25.7479 25.095 25.8364 25.0337C25.9438 24.9592 26.0874 24.6389 26.269 24.0684C26.4185 23.5988 26.7321 22.847 26.966 22.3978C27.1999 21.9485 27.3903 21.5049 27.3892 21.412C27.3881 21.3192 27.217 20.8678 27.009 20.409L26.6307 19.5749L27.5054 18.707L28.3801 17.8389L29.2075 18.1881C29.6625 18.3802 30.0997 18.5582 30.1791 18.5837C30.2722 18.6136 30.6458 18.4692 31.2324 18.1765C31.7324 17.927 32.4949 17.6139 32.9271 17.4805C33.3593 17.3472 33.7699 17.19 33.8397 17.1313C33.9094 17.0725 34.1163 16.6337 34.2994 16.1561L34.6325 15.2878L35.8885 15.3083L37.1446 15.3287L37.4625 16.145ZM37.3615 20.0341C38.8256 20.3321 40.0063 21.0093 41.1457 22.2043C44.3506 25.5653 43.42 31.0132 39.2576 33.2584C38.9474 33.4257 38.6517 33.563 38.6004 33.5636C38.5287 33.5645 38.5019 32.8264 38.4854 30.399L38.4638 27.2333L37.5006 25.603C36.2848 23.5452 36.3465 23.6386 36.1655 23.5819C35.9356 23.5096 35.5931 23.5348 35.4738 23.6328C35.4157 23.6807 35.2665 23.8961 35.1426 24.1116C35.0187 24.3272 34.5514 25.1331 34.1043 25.9026L33.2915 27.3015V30.4719V33.6422L32.6976 33.3446C31.2113 32.5997 30.0979 31.4726 29.3896 29.9954C28.9657 29.1114 28.769 28.3117 28.7194 27.2712C28.626 25.3089 29.3697 23.4216 30.7982 21.9962C32.5292 20.2688 34.9541 19.5439 37.3615 20.0341ZM36.2943 26.1551L36.6535 26.7783L35.9205 26.8002C35.5173 26.8122 35.1732 26.808 35.1559 26.7908C35.1177 26.7529 35.8352 25.5263 35.8937 25.5295C35.9165 25.5307 36.0967 25.8122 36.2943 26.1551ZM37.1952 35.9721C37.1919 41.8603 37.1678 43.9051 37.0994 44.1017C36.9465 44.5408 36.5997 44.711 35.8575 44.711C35.335 44.711 35.1932 44.6841 35.0244 44.5526C34.5702 44.1991 34.5941 44.6733 34.5941 36.0328V28.1053H35.8968H37.1995L37.1952 35.9721ZM18.4259 29.8126C17.1003 30.1714 15.951 31.0784 15.3714 32.2232C15.0228 32.9118 14.8921 33.4941 14.8918 34.3608C14.8912 35.6722 15.3773 36.7988 16.3371 37.7115C16.5714 37.9343 16.7493 38.1259 16.7325 38.1372C16.7155 38.1485 16.4949 38.2375 16.242 38.3349C14.4477 39.0258 12.7591 40.5611 11.8564 42.3225C11.1327 43.7343 10.78 45.4859 11.1463 45.8483C11.2976 45.9981 11.4017 46 19.5404 46H27.7813L27.9694 45.8139C28.1976 45.5881 28.2014 45.4407 28.004 44.4823C27.4612 41.847 25.6761 39.6106 23.2242 38.4942C22.8819 38.3384 22.5382 38.189 22.4603 38.162C22.339 38.1203 22.374 38.0637 22.7007 37.7731C23.882 36.7221 24.4698 34.9457 24.1436 33.413C23.9922 32.7019 23.5212 31.751 23.0686 31.2431C22.6027 30.7203 21.8019 30.1923 21.106 29.9492C20.3853 29.6974 19.0943 29.6316 18.4259 29.8126ZM20.4234 31.1087C21.0503 31.2927 21.4013 31.4944 21.8791 31.9454C23.5938 33.5638 23.1373 36.2766 20.972 37.3356C19.9553 37.8328 18.7251 37.755 17.7505 37.1317C15.986 36.0031 15.6613 33.6146 17.0648 32.0861C17.9122 31.1631 19.2659 30.7692 20.4234 31.1087ZM21.2291 39.1737C23.334 39.6747 25.144 41.0957 26.1091 43.0049C26.346 43.4737 26.7016 44.4567 26.7016 44.6431C26.7016 44.6825 23.6999 44.711 19.537 44.711C15.5964 44.711 12.3723 44.6975 12.3723 44.681C12.3723 44.5179 12.7573 43.484 12.9981 43.0004C14.0574 40.8731 16.2221 39.3429 18.6174 39.0283C19.3393 38.9336 20.489 38.9976 21.2291 39.1737Z" fill="white"/>
</svg>
