<svg width="60" height="60" viewBox="0 0 60 60" fill="none" xmlns="http://www.w3.org/2000/svg">
<rect width="60" height="60" rx="30" fill="#FF7433"/>
<path fill-rule="evenodd" clip-rule="evenodd" d="M28.8474 10.1273C28.2432 10.3491 28.0981 10.4415 27.5798 10.9338C26.9973 11.4871 26.8066 11.5687 26.343 11.4629C26.1518 11.4192 25.6913 11.3971 25.3199 11.4136C24.4308 11.4532 23.7607 11.7514 23.1114 12.3963C22.5475 12.9564 22.2513 13.5389 22.1586 14.2703C22.1198 14.576 22.0394 14.9036 21.9799 14.9983C21.9203 15.0929 21.6097 15.3021 21.2896 15.4632C19.9789 16.1225 19.3073 17.3026 19.3932 18.7953C19.4284 19.4078 19.4707 19.5614 19.7631 20.1406C20.1286 20.8645 20.1302 20.819 19.7094 21.6657C19.0773 22.9377 19.3465 24.5436 20.3649 25.5756C20.6084 25.8223 20.9669 26.0733 21.2939 26.226C21.9242 26.5201 22.068 26.7087 22.1432 27.3403L22.1994 27.8125L20.9252 27.8104L19.6512 27.8084L19.5075 27.4997C19.4285 27.3299 19.2449 27.1181 19.0996 27.0292C18.7848 26.8365 15.5117 26.1631 14.89 26.1631C14.4182 26.1631 14.0333 26.3738 13.8134 26.7524C13.6218 27.0826 10.9401 40.4058 11.001 40.7251C11.0676 41.0737 11.3244 41.4572 11.6043 41.6258C11.8464 41.7716 15.3096 42.5001 15.7602 42.5C16.1477 42.4999 16.6633 42.2019 16.8582 41.8656L17.0343 41.5617L21.1183 45.5931C24.3116 48.7452 25.2887 49.6654 25.5988 49.8125C25.936 49.9726 26.1139 50.0006 26.7883 50C27.4612 49.9994 27.6329 49.9721 27.9219 49.8199C28.419 49.558 28.8399 49.1521 29.0565 48.7258C29.1611 48.5198 29.255 48.3371 29.2653 48.3197C29.2756 48.3024 29.5901 48.5793 29.9643 48.9351C30.7723 49.7034 31.1591 49.8966 31.9825 49.9431C32.457 49.97 32.6687 49.9427 33.0295 49.8078C33.6039 49.5931 34.1941 49.0696 34.4344 48.5614L34.6214 48.1659L35.0449 48.4026C35.7357 48.7887 36.8181 48.8303 37.4829 48.4961C38.2529 48.1092 38.8142 47.3141 38.9223 46.457L38.973 46.055L39.3887 46.0125C40.2552 45.924 40.9633 45.4297 41.3563 44.6392C41.5892 44.1706 41.6184 44.0381 41.6246 43.4193L41.6316 42.7251L42.298 42.0616C42.9182 41.4441 42.9678 41.411 43.0142 41.5828C43.1459 42.0707 43.7194 42.4998 44.2398 42.5C44.6904 42.5001 48.1536 41.7716 48.3957 41.6258C48.6756 41.4572 48.9324 41.0737 48.999 40.7251C49.0599 40.4058 46.3782 27.0826 46.1866 26.7524C45.9667 26.3738 45.5818 26.1631 45.11 26.1631C44.4894 26.1631 41.2153 26.8365 40.9012 27.0287C40.5784 27.2263 40.3092 27.7518 40.3092 28.1841V28.5062L39.587 28.6741C38.9074 28.8322 37.5253 28.9289 37.4205 28.8258C37.3942 28.8 37.4662 28.5766 37.5805 28.3293C37.6948 28.0822 37.8169 27.6514 37.8518 27.3722C37.8868 27.093 37.9735 26.7768 38.0445 26.6695C38.1154 26.5622 38.4131 26.3626 38.7061 26.226C39.6324 25.7936 40.3341 24.9031 40.5561 23.878C40.6051 23.6516 40.629 23.1891 40.6092 22.8504C40.5798 22.3472 40.5214 22.1303 40.2906 21.6657C39.8698 20.819 39.8714 20.8645 40.2369 20.1406C40.5293 19.5614 40.5716 19.4078 40.6068 18.7953C40.6927 17.3026 40.0211 16.1225 38.7104 15.4632C38.3903 15.3021 38.0797 15.0929 38.0201 14.9983C37.9606 14.9036 37.8802 14.576 37.8414 14.2703C37.7487 13.5389 37.4525 12.9564 36.8886 12.3963C36.2393 11.7514 35.5692 11.4532 34.6801 11.4136C34.3087 11.3971 33.862 11.4159 33.6875 11.4554C33.2199 11.5616 32.9736 11.4595 32.4147 10.928C31.6782 10.2274 31.211 10.04 30.119 10.007C29.4156 9.98576 29.1693 10.0091 28.8474 10.1273ZM30.8723 11.4822C31.0686 11.5704 31.4102 11.8306 31.6315 12.0604C31.8528 12.2903 32.1507 12.5382 32.2934 12.6113C32.6636 12.8009 33.2635 12.8772 33.747 12.7962C34.7315 12.6312 35.3286 12.7796 35.9025 13.3316C36.2811 13.6959 36.4694 14.0882 36.533 14.6462C36.6397 15.5816 37.1166 16.2523 37.9166 16.592C38.4937 16.837 38.7687 17.0885 39.0336 17.6134C39.3947 18.3292 39.3758 18.7832 38.9495 19.6275C38.6637 20.1938 38.6203 20.3483 38.6159 20.8153C38.6115 21.296 38.6469 21.4236 38.9548 22.0363C39.2799 22.6832 39.2966 22.7489 39.2606 23.244C39.1966 24.1266 38.7808 24.7007 37.9131 25.1042C37.4248 25.3311 36.873 25.861 36.7016 26.2672C36.6432 26.4057 36.5587 26.7814 36.5138 27.1021C36.4544 27.5264 36.3716 27.7701 36.2098 27.9966C35.8439 28.5084 35.7945 28.5164 35.0969 28.1775C34.7579 28.0127 34.2527 27.7323 33.9743 27.5542C33.5082 27.2562 33.4798 27.2224 33.6174 27.1291C35.06 26.1507 35.9079 25.255 36.4797 24.1059C36.9098 23.2414 37.106 22.581 37.2193 21.6158C37.4792 19.4012 36.6233 17.1075 34.9718 15.5931C33.5706 14.3083 31.9288 13.6748 30 13.6748C28.984 13.6748 28.1498 13.824 27.3038 14.1572C25.6874 14.7937 24.2649 16.0889 23.4772 17.6412C22.9631 18.6542 22.6497 20.2139 22.7431 21.2934C22.9717 23.9342 24.3905 26.0793 26.6867 27.2562C27.2475 27.5437 27.28 27.5738 27.1517 27.6888C27.0353 27.7931 26.7509 27.8125 25.3329 27.8125C23.4067 27.8125 23.569 27.883 23.4677 27.0016C23.4389 26.75 23.365 26.4252 23.3037 26.2799C23.1274 25.862 22.5807 25.3338 22.0869 25.1042C21.2192 24.7007 20.8034 24.1266 20.7394 23.244C20.7034 22.7489 20.7201 22.6832 21.0452 22.0363C21.3531 21.4236 21.3885 21.296 21.3841 20.8153C21.3797 20.3483 21.3363 20.1938 21.0505 19.6275C20.6242 18.7832 20.6053 18.3292 20.9664 17.6134C21.2313 17.0885 21.5063 16.837 22.0834 16.592C22.8834 16.2523 23.3603 15.5816 23.467 14.6462C23.5588 13.8412 23.9914 13.2399 24.7239 12.8988C25.1294 12.7101 25.5645 12.6809 26.253 12.7962C26.7365 12.8772 27.3364 12.8009 27.7066 12.6113C27.8494 12.5382 28.1472 12.2903 28.3685 12.0604C28.8872 11.5216 29.3282 11.322 30 11.322C30.3493 11.322 30.6304 11.3736 30.8723 11.4822ZM31.2928 15.1362C33.3956 15.6008 35.1189 17.2502 35.7197 19.3736C35.9383 20.1462 35.9573 21.3814 35.7629 22.1755C35.3699 23.7798 34.2348 25.2383 32.8061 25.9749L32.1808 26.2973L31.7843 26.1364C31.4747 26.0107 31.2052 25.9744 30.5551 25.971C29.7588 25.9669 29.6964 25.979 29.1264 26.2487L28.5303 26.5306L28.1352 26.3975C24.6784 25.233 23.0927 21.3466 24.7709 18.1518C25.5466 16.6751 26.9827 15.5537 28.6037 15.1589C29.33 14.982 30.5484 14.9717 31.2928 15.1362ZM29.574 16.0507C29.458 16.1549 29.1911 16.6789 28.924 17.327C28.6749 17.9318 28.4436 18.457 28.4101 18.494C28.3631 18.5461 26.3632 18.7645 25.8133 18.7776C25.5974 18.7827 25.3212 19.1588 25.3212 19.4477C25.3212 19.7694 25.3116 19.7586 26.5326 20.8049C27.0004 21.2059 27.3831 21.5822 27.3831 21.6415C27.3831 21.7006 27.2568 22.2718 27.1025 22.9105C26.8036 24.1477 26.8015 24.4314 27.0898 24.6314C27.4346 24.8706 27.7233 24.7821 28.8888 24.0796L30 23.4098L31.1112 24.0796C32.2767 24.7821 32.5654 24.8706 32.9102 24.6314C33.1985 24.4314 33.1964 24.1477 32.8975 22.9105C32.7432 22.2718 32.6169 21.7006 32.6169 21.6415C32.6169 21.5822 32.9996 21.2059 33.4674 20.8049C33.9352 20.404 34.3992 19.9981 34.4984 19.9028C34.7911 19.622 34.7176 19.0473 34.3651 18.8605C34.2818 18.8164 33.6362 18.7302 32.9304 18.6691C32.2246 18.6079 31.6206 18.5283 31.5881 18.4923C31.5556 18.4562 31.3251 17.9318 31.076 17.327C30.5951 16.1599 30.3833 15.874 30 15.874C29.8737 15.874 29.6826 15.9533 29.574 16.0507ZM30.3139 19.0194C30.6096 19.7287 30.7891 19.8765 31.364 19.8842C31.5515 19.8867 31.8439 19.9132 32.0137 19.9431L32.3224 19.9975L31.7972 20.4295C31.5083 20.6671 31.2387 20.9552 31.198 21.0697C31.1455 21.2172 31.1668 21.4686 31.271 21.9317C31.352 22.2912 31.4051 22.5983 31.3892 22.6141C31.3733 22.6299 31.1046 22.4924 30.7921 22.3084C30.4795 22.1246 30.1231 21.9742 30 21.9742C29.8769 21.9742 29.5205 22.1246 29.2079 22.3084C28.8954 22.4924 28.6267 22.6299 28.6108 22.6141C28.5949 22.5983 28.648 22.2912 28.729 21.9317C28.8332 21.4686 28.8545 21.2172 28.802 21.0697C28.7613 20.9552 28.4917 20.6671 28.2028 20.4295L27.6776 19.9975L27.9863 19.9431C28.1561 19.9132 28.4485 19.8867 28.636 19.8842C29.2109 19.8765 29.3904 19.7287 29.6861 19.0194C29.831 18.6718 29.9722 18.3874 30 18.3874C30.0278 18.3874 30.169 18.6718 30.3139 19.0194ZM31.4489 27.4823C31.6418 27.5667 32.1077 27.8688 32.4845 28.1535C34.9516 30.0179 37.4396 30.6088 40.048 29.9499L40.6196 29.8056L40.6957 30.1639C40.7376 30.3609 41.1911 32.6015 41.7034 35.1428L42.635 39.7635L41.7051 40.6801L40.7753 41.5967L36.5573 37.3873C33.3814 34.218 32.1879 33.0771 31.7263 32.7694C30.2531 31.7872 29.0833 31.582 28.4068 32.1873C28.0561 32.5012 28.0103 32.6746 27.8232 34.3974C27.6285 36.1894 27.2241 37.0668 26.3184 37.6622C25.9204 37.9239 25.4823 38.134 25.4388 38.0841C25.383 38.0201 24.211 32.5204 24.211 32.3228C24.211 32.1939 24.2913 31.9765 24.3894 31.8396C24.4876 31.7027 25.6883 30.6694 27.0578 29.5435C28.9446 27.9921 29.6361 27.4682 29.9126 27.3803C30.3648 27.2367 30.9818 27.2776 31.4489 27.4823ZM16.7158 27.8122C17.5813 27.9849 18.2981 28.1351 18.3086 28.146C18.329 28.167 15.7236 41.1118 15.6925 41.1443C15.6826 41.1547 14.9246 41.0133 14.0081 40.8302L12.3419 40.4971L13.6468 33.9977C14.5081 29.7076 14.9841 27.4983 15.047 27.4983C15.0994 27.4983 15.8504 27.6396 16.7158 27.8122ZM46.3532 33.9977L47.6581 40.4971L45.9919 40.8302C45.0754 41.0133 44.3174 41.1547 44.3075 41.1443C44.2756 41.111 41.6712 28.1668 41.6921 28.1452C41.7258 28.1106 44.6987 27.5144 44.8794 27.5061C45.0406 27.4987 45.1082 27.7968 46.3532 33.9977ZM24.9273 29.5242C24.6888 29.7275 24.2427 30.1083 23.936 30.3706C23.2134 30.9883 22.8629 31.6158 22.8629 32.2914C22.8629 32.7514 24.2048 39.0532 24.3664 39.3524C24.5876 39.7616 25.3277 39.6819 26.4765 39.1251C27.6124 38.5745 28.4547 37.6134 28.8159 36.4554C29.0019 35.8592 29.1783 34.8056 29.2544 33.8368L29.3087 33.1457L29.5552 33.1986C29.918 33.2763 30.6083 33.6381 31.1499 34.0344C31.5655 34.3385 34.9194 37.6474 39.0319 41.8108L40.3297 43.1246L40.2908 43.525C40.2071 44.3884 39.3891 44.9131 38.5895 44.6161C38.4668 44.5706 36.9917 43.1745 35.3118 41.5137C32.371 38.6066 32.2462 38.4942 31.9578 38.4942C31.5687 38.4942 31.2688 38.7733 31.2688 39.1354C31.2688 39.3668 31.5596 39.6798 34.355 42.4573C37.0599 45.145 37.4521 45.565 37.53 45.8576C37.6529 46.3185 37.5279 46.7395 37.1778 47.0439C36.9097 47.2771 36.4249 47.4664 36.239 47.4107C36.1878 47.3952 36.0389 47.3592 35.9083 47.3305C35.7339 47.2922 34.8051 46.424 32.4142 44.0644C28.8696 40.5663 28.9542 40.6316 28.4643 41.0133C28.2987 41.1423 28.2554 41.2435 28.2554 41.5013C28.2554 41.8229 28.2824 41.8534 30.7049 44.2642C32.0522 45.6049 33.1971 46.7846 33.2491 46.8857C33.4124 47.2025 33.3655 47.7416 33.1461 48.07C32.8115 48.5707 32.0994 48.7753 31.6019 48.5136C31.4841 48.4516 30.2637 47.2829 28.8898 45.9165C27.5159 44.5501 26.2954 43.3814 26.1777 43.3194C25.8547 43.1495 25.6513 43.182 25.3847 43.446C25.1769 43.6518 25.1496 43.7253 25.1898 43.9707C25.229 44.21 25.4537 44.4726 26.5808 45.5968C27.7214 46.7344 27.9336 46.9833 27.9815 47.2396C28.1085 47.9189 27.6187 48.6103 26.9584 48.6841C26.761 48.7061 26.4992 48.7 26.3767 48.6704C26.2239 48.6336 24.768 47.2459 21.7458 44.2564L17.3376 39.8961L18.3991 34.6201C18.9829 31.7183 19.4756 29.2999 19.4939 29.2459C19.5198 29.1696 20.1788 29.1485 22.4441 29.1511L25.3609 29.1546L24.9273 29.5242Z" fill="white"/>
</svg>
