<svg width="60" height="60" viewBox="0 0 60 60" fill="none" xmlns="http://www.w3.org/2000/svg">
<rect width="60" height="60" rx="30" fill="#FF7433"/>
<path fill-rule="evenodd" clip-rule="evenodd" d="M30.7309 10.2052C30.6877 10.3181 30.6524 11.1407 30.6524 12.0332V13.6561L29.9483 13.7058C28.5263 13.8063 26.8203 14.2525 25.4449 14.8835L24.7844 15.1866L23.9561 13.7451C23.4507 12.8653 23.0587 12.2713 22.9502 12.2205C22.7131 12.1095 22.3634 12.3286 22.3634 12.588C22.3634 12.6894 22.7373 13.4184 23.1943 14.2081L24.0252 15.6438L23.3908 16.0728C22.3087 16.8046 20.4409 18.7051 19.9634 19.56C19.9143 19.648 19.8428 19.7663 19.8045 19.8229C19.752 19.9004 19.3702 19.7179 18.2567 19.0829C17.4436 18.6193 16.7189 18.24 16.646 18.24C16.3649 18.24 16.1478 18.6843 16.3089 18.9303C16.3414 18.98 17.0108 19.3886 17.7964 19.8382C18.5821 20.2879 19.2249 20.6901 19.2249 20.7318C19.2249 20.7737 19.1702 20.9132 19.1032 21.0418C18.5535 22.0986 17.9917 23.9806 17.8528 25.2309C17.8034 25.6759 17.7461 26.157 17.7257 26.3L17.6885 26.56H15.9677C14.5106 26.56 14.2275 26.5793 14.1204 26.6857C13.9482 26.857 13.9616 27.0878 14.1549 27.28C14.3057 27.4298 14.4231 27.44 16.0022 27.44H17.6885L17.7284 27.7C17.7502 27.843 17.7898 28.212 17.8163 28.52C17.9215 29.741 18.4502 31.5879 19.0121 32.6971L19.2947 33.2548L17.8371 34.0922C17.0355 34.5526 16.3421 34.9885 16.2964 35.0605C16.2404 35.1488 16.2394 35.2646 16.2934 35.4158C16.4448 35.8394 16.7529 35.7408 18.5673 34.6886C19.5417 34.1234 20.235 33.6706 20.2817 33.5688C20.345 33.4306 20.276 33.2293 19.9216 32.5189C18.941 30.553 18.5065 28.5602 18.6066 26.487C18.6696 25.1823 18.8381 24.2618 19.2266 23.1006C20.1368 20.3798 21.7919 18.2119 24.1699 16.6262C27.4167 14.4608 31.406 13.929 35.1188 15.1666C38.8223 16.4011 41.7867 19.3847 43.0193 23.1182C43.279 23.905 43.609 25.5118 43.609 25.9902C43.609 26.481 44.0721 26.731 44.3717 26.4021C44.4943 26.2673 44.5073 26.1586 44.4599 25.6621C44.3272 24.2729 43.878 22.6343 43.2853 21.3769C43.1084 21.0018 42.9732 20.6872 42.9846 20.6779C42.996 20.6686 43.6516 20.2906 44.4413 19.8379C45.9894 18.9506 46.1476 18.8006 45.9121 18.4433C45.8384 18.3314 45.7041 18.24 45.6136 18.24C45.523 18.24 44.863 18.5762 44.1467 18.9872C43.4305 19.3982 42.7697 19.7739 42.6784 19.8221C42.5275 19.9017 42.4647 19.8422 41.9947 19.1749C41.3317 18.2334 39.9137 16.8238 38.9667 16.1647C38.2953 15.6975 38.2356 15.6351 38.3156 15.4851C38.3641 15.3943 38.7443 14.7334 39.1605 14.0166C39.6258 13.2155 39.9077 12.6462 39.8921 12.5393C39.8575 12.3006 39.4733 12.0907 39.2842 12.207C39.1747 12.2742 37.591 14.8448 37.4749 15.1436C37.4613 15.1786 37.1386 15.0621 36.7578 14.8847C35.4058 14.2549 33.7046 13.809 32.2668 13.7075L31.5377 13.6561V11.924C31.5377 10.6836 31.5102 10.1647 31.4411 10.096C31.388 10.0432 31.2241 10 31.0769 10C30.8637 10 30.7934 10.0418 30.7309 10.2052ZM30.025 18.0083C25.3888 18.6303 22.1519 21.737 21.7258 25.9734C21.5266 27.9545 22.0077 30.4034 22.94 32.1534C23.4538 33.1178 23.7545 33.5582 25.1089 35.3308C26.7853 37.5247 27.1974 38.2081 27.3154 38.99C27.3457 39.1907 27.4264 39.401 27.4947 39.4574C27.6905 39.619 37.2006 39.5573 37.8147 39.3906C38.7391 39.1395 39.5108 38.3761 39.7809 37.4454C39.8749 37.1219 39.9071 36.6388 39.9071 35.5535V34.0961L40.9332 34.0422C42.1828 33.9766 42.3942 33.9164 42.7501 33.5248C43.0636 33.1798 43.1801 32.727 43.0634 32.307C43.0225 32.1597 42.5738 31.3734 42.0662 30.5596C40.5596 28.1441 40.5509 28.1262 40.5509 27.4154C40.5509 25.2519 39.9082 22.8866 38.9341 21.4658C37.8098 19.8258 35.7376 18.5602 33.4541 18.1188C32.6341 17.9602 30.8189 17.9018 30.025 18.0083ZM32.7045 18.8828C34.2473 19.1008 35.87 19.7696 36.9411 20.6289C38.6249 21.9796 39.5326 24.1252 39.6364 27L39.6827 28.28L40.1114 29.04C40.3472 29.458 40.9227 30.4117 41.3904 31.1594C41.8582 31.907 42.2409 32.5944 42.2409 32.687C42.2409 33.0521 42.0253 33.1209 40.6337 33.1998C39.9152 33.2406 39.2824 33.3111 39.2274 33.3564C39.1564 33.415 39.1112 33.9645 39.0715 35.2521C39.0083 37.2974 38.9305 37.6222 38.3922 38.0922C37.7705 38.6346 37.9346 38.6174 32.8204 38.6798L28.1881 38.7365L28.0833 38.3882C27.8339 37.56 27.2772 36.6785 25.7999 34.773C23.773 32.1585 23.1459 30.9204 22.7141 28.68C22.4955 27.5464 22.5314 25.9338 22.7977 24.9207C23.5518 22.0519 25.6307 20.0412 28.7612 19.153C29.8952 18.8311 31.5413 18.7184 32.7045 18.8828ZM27.6549 22.7565C27.1847 22.9358 26.8363 23.2421 26.5818 23.6997C26.1237 24.5234 26.3464 25.7358 27.0543 26.2726C27.5354 26.6374 27.8502 26.72 28.7587 26.72H29.6062V29.2817V31.8434L29.8074 31.9346C29.9579 32.0027 30.0593 32.0027 30.2098 31.9346L30.411 31.8434V29.2817V26.72H31.2157H32.0205V29.2817V31.8434L32.2217 31.9346C32.3722 32.0027 32.4736 32.0027 32.6241 31.9346L32.8253 31.8434V29.2817V26.72H33.6947C34.4688 26.72 34.61 26.6973 34.9824 26.5128C36.2307 25.8944 36.5052 24.2507 35.5271 23.2503C34.5188 22.219 32.6979 22.5677 32.1382 23.8994C32.0594 24.087 32.0205 24.467 32.0205 25.0498V25.92H31.2157H30.411V25.0374C30.411 24.4696 30.3716 24.061 30.3003 23.8916C30.1404 23.511 29.7121 23.0562 29.3322 22.8633C28.9132 22.6506 28.0729 22.597 27.6549 22.7565ZM28.9632 23.7C29.4701 24.0429 29.5571 24.241 29.5932 25.1336L29.6259 25.9428L28.8587 25.903C27.9884 25.8577 27.6737 25.7254 27.3661 25.2757C27.0121 24.7579 27.2774 23.8898 27.8676 23.6343C28.2458 23.4707 28.6611 23.4956 28.9632 23.7ZM34.6568 23.6796C35.2259 24.0246 35.4109 24.7636 35.0582 25.2838C34.7594 25.7246 34.4397 25.8578 33.5728 25.903L32.8056 25.9428L32.8377 25.1489C32.865 24.4732 32.8981 24.3154 33.0598 24.0895C33.4582 23.5334 34.1307 23.3607 34.6568 23.6796ZM27.0326 40.1C26.8377 40.199 26.5675 40.4183 26.4321 40.5874C26.1879 40.8926 26.186 40.9022 26.186 41.8748C26.186 42.8088 26.1958 42.8674 26.3962 43.1257L26.6065 43.3967L26.3962 43.7122C26.2086 43.9938 26.1831 44.1192 26.1591 44.8837C26.1357 45.6254 26.1544 45.7831 26.2992 46.0652C26.6249 46.7 27.1801 46.96 28.2099 46.96H28.882L28.8824 47.78C28.8829 48.7596 28.969 49.1108 29.3007 49.4862C29.7525 49.9978 29.7653 50 32.2605 50C34.7697 50 34.8638 49.9843 35.2967 49.4941C35.6349 49.1112 35.7214 48.7642 35.7219 47.7875L35.7224 46.975L36.507 46.9475C37.4425 46.9147 37.8119 46.7596 38.1769 46.2462C38.3939 45.9409 38.4212 45.8339 38.4466 45.189C38.4821 44.2894 38.4258 43.9886 38.1639 43.6794C37.977 43.4584 37.9683 43.4202 38.077 43.297C38.3759 42.9578 38.4586 42.6512 38.4586 41.8808C38.4586 41.0543 38.3432 40.697 37.9623 40.3438C37.5002 39.9154 37.5628 39.92 32.2816 39.92H27.387L27.0326 40.1ZM37.242 40.9305C37.8206 41.3334 37.7749 42.5999 37.1709 42.8998C36.9127 43.0281 36.5089 43.0398 32.3197 43.0398C27.1933 43.04 27.2887 43.0497 27.06 42.5054C26.9751 42.3036 26.9451 42.0495 26.9682 41.7307C26.9982 41.3197 27.0371 41.2257 27.2596 41.0281L27.5164 40.8H32.2855C36.5644 40.8 37.0739 40.8134 37.242 40.9305ZM37.1812 43.9653C37.7762 44.2711 37.8153 45.5503 37.242 45.9495C37.074 46.0666 36.5656 46.08 32.3022 46.08C27.087 46.08 27.3327 46.1026 27.0708 45.5991C26.9156 45.3008 26.9164 44.6177 27.0723 44.3181C27.3236 43.8349 27.1936 43.8467 32.2861 43.8432C36.3552 43.8404 36.9681 43.8557 37.1812 43.9653ZM34.8372 47.7562C34.8372 49.1974 34.8326 49.2 32.3022 49.2C29.7718 49.2 29.7672 49.1974 29.7672 47.7562V46.96H32.3022H34.8372V47.7562Z" fill="white"/>
</svg>
