<svg width="70" height="51" viewBox="0 0 70 51" fill="none" xmlns="http://www.w3.org/2000/svg">
<path d="M41.2398 47.4627C40.8508 48.4758 41.2441 49.6118 42.1708 50.1517C42.9448 50.6026 43.4519 50.5867 44.8928 50.0657C46.8527 49.3582 47.8706 48.9145 49.9805 47.8515C57.4875 44.0677 63.0734 38.7432 66.3879 32.2126C67.8273 29.377 68.6703 26.9301 69.3256 23.6897C69.9565 20.5694 69.9961 19.8467 69.9997 11.4156C70.0027 4.30617 69.9894 3.71721 69.8175 3.28868C69.3386 2.09558 68.496 1.2313 67.3723 0.779644L66.773 0.539726L56.8227 0.507935C49.6727 0.485531 46.6965 0.509377 46.2473 0.59465C44.9442 0.841793 43.7542 1.75956 43.1924 2.9512L42.9132 3.54377V14.0048V24.4666L43.215 25.1155C43.6059 25.9567 44.5806 26.8846 45.4328 27.2264L46.039 27.4699L51.9592 27.5003L57.8794 27.5299L57.8074 27.8623C57.0941 31.159 55.199 34.9724 52.7785 37.983C51.7351 39.2809 49.5389 41.4589 48.1757 42.548C46.7334 43.6999 44.5192 45.1632 43.1923 45.8403C41.9042 46.4987 41.4724 46.8571 41.2398 47.4627Z" fill="#FF7433"/>
<path d="M0.049614 47.8197C-0.186951 48.8791 0.444763 50.0057 1.4698 50.3533C2.14108 50.5809 2.3519 50.5614 3.47681 50.169C11.1561 47.4909 17.9857 42.7127 22.2989 36.9995C25.4503 32.8247 27.507 28.0524 28.3691 22.9129C28.8282 20.1762 28.8474 19.7202 28.8474 11.5189V3.64711L28.6056 3.05165C28.1203 1.85711 26.8504 0.848297 25.5133 0.59465C25.0641 0.509377 22.0879 0.485531 14.9379 0.507935L4.98764 0.539726L4.41456 0.773865C3.22134 1.26237 2.43955 2.06307 1.98119 3.267C1.75925 3.85017 1.7575 3.92244 1.72811 13.5264C1.71022 19.3575 1.73844 23.4845 1.79919 23.9203C2.04514 25.6857 3.30653 27.0508 5.01878 27.407C5.38316 27.4822 7.46473 27.5219 11.14 27.5219C16.5623 27.5219 16.7092 27.527 16.7092 27.7207C16.7092 28.017 16.0454 30.2427 15.6567 31.2508C13.4141 37.0645 8.06931 42.7424 1.71996 46.0557C0.537506 46.6728 0.234238 46.993 0.049614 47.8197Z" fill="#FF7433"/>
</svg>
